<?xml version="1.0" encoding="UTF-8"?>
<svg xmlns="http://www.w3.org/2000/svg" xmlns:xlink="http://www.w3.org/1999/xlink" width="79pt" version="1.1" height="84pt" viewBox="0 0 79 84">
 <defs/>
 <g id="Background">
  <path style="fill:#000000; fill-rule:nonzero;stroke:none;" d="M6.67979 6.60372 L5.30152 6.60372 L1.64034 2.51836 L1.64034 6.60372 L0 6.60372 L0 0 L1.50355 0 L5.04864 3.89274 L5.04864 0 L6.67979 0 L6.67979 6.60372 Z" transform="translate(0, 67.6004)"/>
  <path style="fill:#000000; fill-rule:nonzero;stroke:none;" d="M4.84399 3.44682 L4.78772 3.47663 C4.5337 3.62113 4.41753 3.65892 4.30029 3.65892 C4.12678 3.65892 4.07734 3.573 4.07734 3.30127 L4.07734 1.53942 C4.07734 1.11298 4.03826 0.910153 3.94162 0.725634 C3.68878 0.270558 3.04844 0 2.18516 0 C1.8737 0 1.46561 0.0481252 1.19434 0.126065 C0.903516 0.202947 0.494286 0.387467 0.232194 0.542171 L0.232194 1.68509 C0.679361 1.22074 1.32078 0.929638 1.88406 0.929638 C2.4174 0.929638 2.66 1.15207 2.66 1.62651 L2.66 1.68509 L2.59208 1.7034 L2.3795 1.77218 L2.09664 1.85928 C1.24377 2.12983 0.989726 2.21693 0.718441 2.36248 C0.260939 2.61461 0 3.02038 0 3.46631 C0 4.14381 0.533366 4.63786 1.25181 4.63786 C1.7381 4.63786 2.14608 4.5118 2.63116 4.20227 L2.72898 4.14381 C2.8255 4.49337 3.04844 4.63786 3.52434 4.63786 C3.90255 4.63786 4.4566 4.47283 4.84399 4.23091 L4.84399 3.44682 Z M2.66 2.39229 L2.66 3.46631 C2.44612 3.67043 2.14608 3.79532 1.91278 3.79532 C1.6311 3.79532 1.42653 3.59249 1.42653 3.32193 C1.42653 3.00207 1.65994 2.76826 2.16456 2.58597 L2.53346 2.44042 L2.66 2.39229 Z" transform="translate(8.14657, 69.6534)"/>
  <path style="fill:#000000; fill-rule:nonzero;stroke:none;" d="M3.6796 2.37281 L2.06792 2.37281 L2.06792 3.35057 L2.06792 3.62113 L2.06792 3.74837 C2.06792 4.68716 2.20364 4.9198 2.73816 4.9198 C3.0289 4.9198 3.25196 4.86029 3.60262 4.68716 C3.62216 4.68716 3.65088 4.6665 3.6796 4.65735 L3.6796 5.67408 C3.18416 5.87703 2.82433 5.95497 2.36796 5.95497 C1.7381 5.95497 1.21394 5.71305 0.911543 5.28661 C0.69896 4.9772 0.64034 4.70547 0.64034 3.99017 L0.64034 2.37281 L0 2.37281 L0 2.11035 L1.8737 0 L2.06792 0 L2.06792 1.4042 L3.6796 1.4042 L3.6796 2.37281 Z" transform="translate(13.4872, 68.3363)"/>
  <path style="fill:#000000; fill-rule:nonzero;stroke:none;" d="M0.777119 1.53942 C0.34948 1.53942 0 1.20008 0 0.794301 C0 0.348379 0.34948 0 0.795482 0 C1.21394 0 1.55294 0.348379 1.55294 0.794301 C1.54376 1.20008 1.20464 1.53942 0.777119 1.53942 Z M1.4277 6.7103 L0.0769821 6.7103 L0.0769821 2.24663 L1.4277 2.24663 L1.4277 6.7103 Z" transform="translate(18.2542, 67.4939)"/>
  <path style="fill:#000000; fill-rule:nonzero;stroke:none;" d="M5.04857 2.33384 C5.04857 1.71373 4.8946 1.25865 4.56348 0.872357 C4.08758 0.309527 3.36002 0 2.545 0 C1.07822 0 0 0.997248 0 2.33384 C0 3.68874 1.04832 4.63786 2.53346 4.63786 C4.03014 4.63786 5.04857 3.7094 5.04857 2.33384 Z M3.53353 2.31318 C3.52552 2.84619 3.44736 3.15572 3.28174 3.38837 C3.09671 3.64061 2.84504 3.76668 2.53346 3.76668 C1.8644 3.76668 1.51504 3.29212 1.51504 2.37163 C1.51504 1.34574 1.83568 0.860854 2.49674 0.860854 C3.18405 0.860854 3.53353 1.32626 3.53353 2.24674 L3.53353 2.31318 Z" transform="translate(20.8855, 69.6534)"/>
  <path style="fill:#000000; fill-rule:nonzero;stroke:none;" d="M1.40816 0.726808 C1.85416 0.223606 2.29216 0 2.8634 0 C3.52317 0 4.0578 0.32103 4.33018 0.872357 C4.46579 1.14397 4.50381 1.35607 4.50381 1.9189 L4.50381 4.553 L3.08752 4.553 L3.08752 2.03464 C3.08752 1.25067 2.90248 0.977763 2.38868 0.977763 C2.02884 0.977763 1.64958 1.25067 1.40816 1.67593 L1.40816 4.553 L0 4.553 L0 0.0882687 L1.40816 0.0882687 L1.40816 0.726808 Z" transform="translate(27.2652, 69.6522)"/>
  <path style="fill:#000000; fill-rule:nonzero;stroke:none;" d="M4.84516 3.44682 L4.78772 3.47663 C4.53359 3.62113 4.41635 3.65892 4.30146 3.65892 C4.12666 3.65892 4.07723 3.573 4.07723 3.30127 L4.07723 1.53942 C4.07723 1.11298 4.03815 0.910153 3.94162 0.725634 C3.68878 0.270558 3.04844 0 2.18398 0 C1.8737 0 1.46443 0.0481252 1.1931 0.126065 C0.902362 0.202947 0.493086 0.387467 0.232123 0.542171 L0.232123 1.68509 C0.678125 1.22074 1.31964 0.929638 1.88288 0.929638 C2.4174 0.929638 2.65988 1.15207 2.65988 1.62651 L2.65988 1.68509 L2.59091 1.7034 L2.37832 1.77218 L2.09558 1.85928 C1.24148 2.12983 0.989703 2.21693 0.717323 2.36248 C0.260962 2.61461 0 3.02038 0 3.46631 C0 4.14381 0.532165 4.63786 1.25184 4.63786 C1.73692 4.63786 2.14491 4.5118 2.6301 4.20227 L2.7278 4.14381 C2.8255 4.49337 3.04844 4.63786 3.52317 4.63786 C3.90255 4.63786 4.45543 4.47283 4.84516 4.23091 L4.84516 3.44682 Z M2.65988 2.39229 L2.65988 3.46631 C2.44495 3.67043 2.14491 3.79532 1.91278 3.79532 C1.62993 3.79532 1.42652 3.59249 1.42652 3.32193 C1.42652 3.00207 1.65876 2.76826 2.16444 2.58597 L2.53346 2.44042 L2.65988 2.39229 Z" transform="translate(33.053, 69.6534)"/>
  <path style="fill:#000000; fill-rule:nonzero;stroke:none;" d="M1.41616 6.60372 L0 6.60372 L0 0 L1.41616 0 L1.41616 6.60372 Z" transform="translate(38.9086, 67.6004)"/>
  <path style="fill:#000000; fill-rule:nonzero;stroke:none;" d="M5.04868 6.60372 L0 6.60372 L0 0 L1.66912 0 L1.66912 5.37371 L5.04868 5.37371 L5.04868 6.60372 Z" transform="translate(44.5389, 67.6004)"/>
  <path style="fill:#000000; fill-rule:nonzero;stroke:none;" d="M0.777001 1.53942 C0.34948 1.53942 0 1.20008 0 0.794301 C0 0.348379 0.34948 0 0.795482 0 C1.21382 0 1.55412 0.348379 1.55412 0.794301 C1.54494 1.20008 1.20464 1.53942 0.777001 1.53942 Z M1.4277 6.7103 L0.0781592 6.7103 L0.0781592 2.24663 L1.4277 2.24663 L1.4277 6.7103 Z" transform="translate(50.714, 67.4939)"/>
  <path style="fill:#000000; fill-rule:nonzero;stroke:none;" d="M1.40698 0 L0 0 L0 6.60372 L1.40698 6.60372 L1.40698 6.26437 C1.79554 6.54526 2.214 6.69081 2.66 6.69081 C3.89336 6.69081 4.74747 5.73136 4.74747 4.35697 C4.74747 2.99174 3.85546 2.05295 2.56336 2.05295 C2.12654 2.05295 1.85534 2.13089 1.40698 2.39112 L1.40698 0 Z M1.40698 3.30245 C1.64146 3.12696 1.96104 3.01123 2.22318 3.01123 C2.92202 3.01123 3.34048 3.51443 3.34048 4.35697 C3.34048 5.19036 2.92202 5.70389 2.2439 5.70389 C1.9714 5.70389 1.7082 5.60635 1.40698 5.37371 L1.40698 3.30245 Z" transform="translate(53.7441, 67.6004)"/>
  <path style="fill:#000000; fill-rule:nonzero;stroke:none;" d="M1.40698 1.36523 L1.42535 1.36523 C1.56212 1.02589 1.74716 0.735963 1.95068 0.474561 C2.20235 0.163978 2.51275 0 2.85305 0 C3.13461 0 3.38874 0.10658 3.78648 0.405778 L3.39792 1.646 C3.07717 1.42368 2.82433 1.3171 2.57254 1.3171 C2.13572 1.3171 1.70808 1.7527 1.48514 2.39229 L1.43688 2.55615 L1.40698 2.62388 L1.40698 4.55077 L0 4.55077 L0 0.0870949 L1.40698 0.0870949 L1.40698 1.36523 Z" transform="translate(59.8526, 69.6534)"/>
  <path style="fill:#000000; fill-rule:nonzero;stroke:none;" d="M4.84528 3.44682 L4.78549 3.47663 C4.53488 3.62113 4.41764 3.65892 4.3004 3.65892 C4.12561 3.65892 4.07734 3.573 4.07734 3.30127 L4.07734 1.53942 C4.07734 1.11298 4.03826 0.910153 3.94174 0.725634 C3.68878 0.270558 3.04856 0 2.18528 0 C1.8737 0 1.46572 0.0481252 1.19322 0.126065 C0.902362 0.202947 0.49438 0.387467 0.233418 0.542171 L0.233418 1.68509 C0.67942 1.22074 1.31964 0.929638 1.88406 0.929638 C2.41752 0.929638 2.66 1.15207 2.66 1.62651 L2.66 1.68509 L2.5922 1.7034 L2.37844 1.77218 L2.09558 1.85928 C1.24148 2.12983 0.98982 2.21693 0.7185 2.36248 C0.260962 2.61461 0 3.02038 0 3.46631 C0 4.14381 0.53346 4.63786 1.25184 4.63786 C1.73692 4.63786 2.1462 4.5118 2.63128 4.20227 L2.7278 4.14381 C2.82444 4.49337 3.04856 4.63786 3.52446 4.63786 C3.90266 4.63786 4.45672 4.47283 4.84528 4.23091 L4.84528 3.44682 Z M2.66 2.39229 L2.66 3.46631 C2.44624 3.67043 2.1462 3.79532 1.91278 3.79532 C1.63004 3.79532 1.42664 3.59249 1.42664 3.32193 C1.42664 3.00207 1.65876 2.76826 2.16456 2.58597 L2.53476 2.44042 L2.66 2.39229 Z" transform="translate(64.0954, 69.6534)"/>
  <path style="fill:#000000; fill-rule:nonzero;stroke:none;" d="M1.40698 1.36523 L1.42652 1.36523 C1.5633 1.02589 1.74716 0.735963 1.95186 0.474561 C2.20247 0.163978 2.51392 0 2.85422 0 C3.13578 0 3.38874 0.10658 3.78648 0.405778 L3.39792 1.646 C3.07834 1.42368 2.8255 1.3171 2.57254 1.3171 C2.13572 1.3171 1.70808 1.7527 1.48514 2.39229 L1.43688 2.55615 L1.40698 2.62388 L1.40698 4.55077 L0 4.55077 L0 0.0870949 L1.40698 0.0870949 L1.40698 1.36523 Z" transform="translate(69.9407, 69.6534)"/>
  <path style="fill:#000000; fill-rule:nonzero;stroke:none;" d="M1.93232 6.60372 L0.43788 6.60372 L1.74834 3.73686 L0 0 L1.50574 0 L2.4473 2.20777 L3.45654 0 L4.93368 0 L1.93232 6.60372 Z" transform="translate(74.0663, 69.7405)"/>
  <path style="fill:#000000; fill-rule:nonzero;stroke:none;" d="M5.04986 2.33384 C5.04986 1.71373 4.8946 1.25865 4.56584 0.872357 C4.08888 0.309527 3.36002 0 2.545 0 C1.07834 0 0 0.997248 0 2.33384 C0 3.68874 1.0495 4.63786 2.53476 4.63786 C4.03132 4.63786 5.04986 3.7094 5.04986 2.33384 Z M3.53588 2.31435 C3.52564 2.84619 3.44748 3.15572 3.28304 3.38837 C3.09918 3.64061 2.84504 3.76668 2.53476 3.76668 C1.86452 3.76668 1.51504 3.29212 1.51504 2.37163 C1.51504 1.34574 1.83698 0.860854 2.49568 0.860854 C3.18534 0.860854 3.53588 1.32626 3.53588 2.24674 L3.53588 2.31435 Z" transform="translate(14.4861, 78.6906)"/>
  <path style="fill:#000000; fill-rule:nonzero;stroke:none;" d="M2.68978 2.22714 L2.68978 3.16593 L2.04956 3.16593 L2.04956 6.69081 L0.640223 6.69081 L0.640223 3.16593 L0 3.16593 L0 2.22714 L0.640223 2.22714 L0.640223 2.11023 C0.670121 1.48214 0.747103 1.15195 0.942501 0.832214 C1.05868 0.620111 1.23336 0.444747 1.43794 0.310584 C1.75752 0.0962504 2.13572 0 2.60244 0 C2.75758 0 2.91402 0.00915553 3.05763 0.0286404 L3.38992 0.0779393 L3.45772 0.0870949 L3.45772 1.21956 L3.37956 1.21041 C3.15532 1.18059 2.98064 1.16228 2.83574 1.16228 C2.26214 1.16228 2.04956 1.41335 2.04956 2.10108 L2.04956 2.22714 L2.68978 2.22714 Z" transform="translate(20.4291, 76.5505)"/>
  <path style="fill:#000000; fill-rule:nonzero;stroke:none;" d="M4.74747 1.86843 L4.63129 1.80998 C3.83474 1.41335 3.19323 1.22989 2.61045 1.22989 C2.01048 1.22989 1.62192 1.44317 1.62192 1.76185 C1.62192 2.04262 1.96104 2.28559 2.69779 2.54582 L3.22313 2.73961 C4.49451 3.19469 5.04974 3.82396 5.04974 4.82238 C5.04974 5.99382 4.00943 6.77791 2.45648 6.77791 C1.89312 6.77791 1.37814 6.67133 0.708023 6.41908 C0.319464 6.26437 0.290743 6.25522 0.116062 6.13948 L0.116062 4.7158 C0.599966 5.01605 0.853983 5.1616 1.18275 5.28661 C1.6012 5.4608 2.00012 5.53768 2.4081 5.53768 C3.0588 5.53768 3.40828 5.33474 3.40828 4.93811 C3.40828 4.60805 3.18405 4.42576 2.5151 4.193 L2.15409 4.06693 C1.64028 3.88359 1.3679 3.76668 1.0575 3.59237 C0.805722 3.45715 0.599966 3.29094 0.436703 3.10865 C0.164323 2.79807 0 2.34299 0 1.87876 C0 0.745002 0.989703 0 2.50474 0 C3.24161 0 3.90255 0.144376 4.74747 0.513531 L4.74747 1.86843 Z" transform="translate(27.1296, 76.5505)"/>
  <path style="fill:#000000; fill-rule:nonzero;stroke:none;" d="M5.55319 4.55077 L4.8946 4.55077 L3.80602 2.1195 L2.67942 4.55077 L2.01966 4.55077 L0 0 L1.43688 0 L2.3795 2.37281 L3.37956 0 L4.2233 0 L5.21418 2.37281 L6.17517 0 L7.60287 0 L5.55319 4.55077 Z" transform="translate(32.9357, 78.7777)"/>
  <path style="fill:#000000; fill-rule:nonzero;stroke:none;" d="M4.59456 3.14657 L4.53594 3.19469 C3.9049 3.62113 3.48762 3.76668 2.93238 3.76668 C2.04956 3.76668 1.50586 3.32076 1.45878 2.547 L4.67166 2.547 L4.67166 2.41976 C4.67166 0.977763 3.7394 0 2.37032 0 C1.01042 0 0 0.986919 0 2.32351 C0 3.71855 0.992057 4.63903 2.46684 4.63903 C3.35084 4.63903 4.0704 4.43386 4.59456 4.04639 L4.59456 3.14657 Z M1.48632 1.81115 C1.53576 1.23917 1.92314 0.851699 2.4473 0.851699 C2.991 0.851699 3.37156 1.23001 3.42782 1.81115 L1.48632 1.81115 Z" transform="translate(41.2754, 78.6906)"/>
  <path style="fill:#000000; fill-rule:nonzero;stroke:none;" d="M4.7291 0 L3.3313 0 L3.3313 2.33384 C2.96228 2.14932 2.57372 2.05295 2.16562 2.05295 C0.882822 2.05295 0 3.00207 0 4.36613 C0 5.71305 0.882822 6.69081 2.08746 6.69081 C2.56336 6.69081 2.93356 6.56475 3.3313 6.24606 L3.3313 6.60372 L4.7291 6.60372 L4.7291 0 Z M3.3313 5.38286 C3.04844 5.60647 2.7956 5.70389 2.50592 5.70389 C1.85534 5.70389 1.44724 5.19952 1.44724 4.38679 C1.44724 3.49612 1.84498 2.99174 2.545 2.99174 C2.7956 2.99174 3.12672 3.0995 3.3313 3.25432 L3.3313 5.38286 Z" transform="translate(47.0149, 76.6376)"/>
  <path style="fill:#000000; fill-rule:nonzero;stroke:none;" d="M4.59221 3.14657 L4.53476 3.19469 C3.90255 3.62113 3.48644 3.76668 2.93238 3.76668 C2.04956 3.76668 1.50468 3.32076 1.45642 2.547 L4.67037 2.547 L4.67037 2.41976 C4.67037 0.977763 3.7381 0 2.36914 0 C1.01042 0 0 0.986919 0 2.32351 C0 3.71855 0.99088 4.63903 2.46566 4.63903 C3.34966 4.63903 4.06922 4.43386 4.59221 4.04639 L4.59221 3.14657 Z M1.48514 1.81115 C1.53458 1.23917 1.92196 0.851699 2.4473 0.851699 C2.991 0.851699 3.3692 1.23001 3.42782 1.81115 L1.48514 1.81115 Z" transform="translate(53.074, 78.6906)"/>
  <path style="fill:#000000; fill-rule:nonzero;stroke:none;" d="M1.40698 0.726808 C1.85416 0.223606 2.29216 0 2.86458 0 C3.52434 0 4.05898 0.32103 4.33136 0.872357 C4.46696 1.14409 4.50604 1.35607 4.50604 1.9189 L4.50604 4.55194 L3.08764 4.55194 L3.08764 2.03464 C3.08764 1.25067 2.90248 0.977881 2.38868 0.977881 C2.03002 0.977881 1.65076 1.25067 1.40698 1.67593 L1.40698 4.55194 L0 4.55194 L0 0.0882687 L1.40698 0.0882687 L1.40698 0.726808 Z" transform="translate(59.0456, 78.6894)"/>
  <path style="fill:#000000; fill-rule:nonzero;stroke:none;" d="M4.60492 3.67382 L9.17759 3.86644 L7.78791 5.39212 L3.71751 5.25103 L6.01767 7.33497 L4.90261 8.5604 L0 4.12091 L1.11495 2.89548 L3.33577 4.90606 L3.35072 4.89233 L2.53229 1.33881 L3.75305 0 L4.60492 3.67382 Z" transform="translate(15.5058, 7.62847)"/>
  <path style="fill:#000000; fill-rule:nonzero;stroke:none;" d="M7.54307 3.2795 C7.64995 3.51792 7.73953 3.76438 7.80285 3.95809 C7.958 4.42119 7.966 4.93586 7.85229 5.36915 C7.6948 5.91708 7.24879 6.5395 6.72922 6.92121 C6.44637 7.12066 6.11643 7.31091 5.74399 7.47606 C4.96464 7.82444 4.36467 7.93219 3.70256 7.8566 C3.3393 7.8073 3.00477 7.70178 2.72086 7.54132 C2.19552 7.24561 1.83568 6.80085 1.49091 6.03285 L0 2.7098 L1.52422 2.02891 L2.86446 5.01725 C3.13002 5.60872 3.322 5.89415 3.58638 6.10507 C4.04156 6.45353 4.644 6.51429 5.23714 6.24949 C5.96364 5.9251 6.3648 5.20638 6.2073 4.50143 C6.17505 4.35585 6.13597 4.22517 6.08194 4.10137 L5.88654 3.66808 L4.5463 0.680889 L6.0717 0 L7.54307 3.2795 Z" transform="translate(24.1524, 1.25059)"/>
  <path style="fill:#000000; fill-rule:nonzero;stroke:none;" d="M6.67979 6.70228 L5.30152 6.68164 L1.70126 2.54129 L1.64158 6.62662 L0 6.60254 L0.0988761 0 L1.6025 0.0217855 L5.09012 3.96727 L5.14756 0.0745119 L6.77866 0.0997365 L6.67979 6.70228 Z" transform="translate(36.2577, 0)"/>
  <path style="fill:#000000; fill-rule:nonzero;stroke:none;" d="M7.42807 3.94089 L7.35226 3.85033 C6.81892 3.19582 6.15103 2.6605 5.4682 2.33153 C4.12902 1.68847 2.94498 2.00025 2.3875 3.15111 C1.88983 4.18046 2.35878 5.3084 3.50375 5.85861 C3.87159 6.03628 4.25438 6.13486 4.67154 6.16352 L5.0096 5.46544 L4.15197 5.05278 L4.68767 3.94548 L7.05799 5.08602 L5.87289 7.53675 C5.03715 7.74768 3.93586 7.59403 2.93015 7.11031 C0.857515 6.11422 0 4.14149 0.86446 2.35445 C1.7461 0.530727 3.79331 0 5.94528 1.03509 C6.46026 1.28268 6.97747 1.61854 7.38675 1.97503 C7.64654 2.19741 7.76142 2.31662 8.0511 2.65018 L7.42807 3.94089 Z" transform="translate(46.6379, 2.07247)"/>
  <path style="fill:#000000; fill-rule:nonzero;stroke:none;" d="M3.34743 8.14892 L0 4.38107 L4.9544 0 L6.06252 1.24718 L2.03002 4.81209 L4.27157 7.33267 L3.34743 8.14892 Z" transform="translate(54.9304, 8.30018)"/>
  <path style="fill:#000000; fill-rule:nonzero;stroke:none;" d="M3.12095 2.14474 L2.98994 2.8692 C2.79101 3.96387 2.54735 4.27563 1.94609 4.1667 C1.36331 4.0613 1.2243 3.68299 1.40934 2.66402 L1.55412 1.86268 L3.12095 2.14474 Z M7.18335 1.17379 L0.666707 0 L0.117239 2.98153 C0.013772 3.55352 0 3.90542 0.049438 4.22974 C0.180449 5.08836 0.744867 5.6729 1.56683 5.8208 C2.42658 5.97445 3.05421 5.62478 3.50598 4.75254 C3.67619 5.34507 4.11301 5.76692 4.65777 5.86435 C5.33601 5.98701 6.03956 5.59273 6.38328 4.89574 C6.55337 4.553 6.61199 4.33749 6.73617 3.65094 L7.18335 1.17379 Z M5.71998 2.61238 L5.60392 3.25092 C5.46702 4.00402 5.20159 4.28021 4.70379 4.19077 C4.18764 4.09792 4.04286 3.75635 4.18658 2.96663 L4.29687 2.35567 L5.71998 2.61238 Z" transform="translate(10.1812, 21.6348)"/>
  <path style="fill:#000000; fill-rule:nonzero;stroke:none;" d="M0.222942 2.53549 L0 0.884917 L6.56255 0 L6.78549 1.65058 L0.222942 2.53549 Z" transform="translate(10.0651, 31.7266)"/>
  <path style="fill:#000000; fill-rule:nonzero;stroke:none;" d="M3.25196 3.20033 L3.58179 3.85952 C4.07958 4.8556 4.0704 5.24987 3.52317 5.52278 C2.99218 5.78524 2.65412 5.56515 2.18975 4.63786 L1.8265 3.90882 L3.25196 3.20033 Z M5.9268 0 L0 2.94479 L1.34601 5.66258 C1.60579 6.18186 1.80696 6.4719 2.04144 6.7022 C2.65988 7.31433 3.46337 7.44509 4.21177 7.07358 C4.99348 6.68506 5.28422 6.03056 5.12567 5.06078 C5.61652 5.43451 6.2199 5.5135 6.71533 5.26713 C7.33272 4.95995 7.65795 4.22398 7.51658 3.46173 C7.44761 3.08459 7.36486 2.87718 7.0534 2.25355 L5.9268 0 Z M5.61652 2.02548 L5.90608 2.60663 C6.24873 3.29094 6.20036 3.67266 5.74753 3.89732 C5.27845 4.12996 4.95781 3.94427 4.59915 3.22451 L4.321 2.66966 L5.61652 2.02548 Z" transform="translate(11.802, 37.2287)"/>
  <path style="fill:#000000; fill-rule:nonzero;stroke:none;" d="M3.70491 8.2658 L0 4.84421 L4.50039 0 L5.72693 1.13141 L2.06333 5.07463 L4.54289 7.36257 L3.70491 8.2658 Z" transform="translate(17.6898, 44.6256)"/>
  <path style="fill:#000000; fill-rule:nonzero;stroke:none;" d="M1.45995 6.58188 L0 5.7715 L3.21865 0 L4.67849 0.810381 L1.45995 6.58188 Z" transform="translate(24.3155, 48.9425)"/>
  <path style="fill:#000000; fill-rule:nonzero;stroke:none;" d="M7.80403 4.33632 C8.12479 2.44605 6.73276 0.709436 4.62681 0.356479 C2.51063 0 0.63575 1.18752 0.316168 3.07884 C0 4.9495 1.38062 6.68389 3.46702 7.03461 C5.60274 7.39344 7.48445 6.22764 7.80403 4.33632 Z M6.11196 4.09099 C5.91891 5.23731 4.9165 5.92269 3.72786 5.72443 C2.4945 5.51585 1.79554 4.57354 1.99565 3.38942 C2.20247 2.16751 3.13826 1.53026 4.38315 1.73885 C5.64759 1.95201 6.32807 2.87026 6.11196 4.09099 " transform="translate(30.8964, 51.438)"/>
  <path style="fill:#000000; fill-rule:nonzero;stroke:none;" d="M6.5775 1.2036 L4.25673 1.76526 L5.52458 6.97851 L3.8923 7.3729 L2.62328 2.1607 L0.293215 2.72353 L0 1.52005 L6.28558 0 L6.5775 1.2036 Z" transform="translate(41.5639, 50.7983)"/>
  <path style="fill:#000000; fill-rule:nonzero;stroke:none;" d="M7.85006 5.29342 L3.90608 8.16485 L0 2.83246 L3.88995 0 L4.61645 0.993727 L2.07604 2.84385 L2.86694 3.92256 L5.29011 2.15836 L6.02238 3.15913 L3.60027 4.92321 L4.5383 6.20592 L7.13391 4.31566 L7.85006 5.29342 Z" transform="translate(50.868, 46.3703)"/>
  <path style="fill:#000000; fill-rule:nonzero;stroke:none;" d="M4.44742 3.46173 L8.97995 2.82788 L7.89019 4.58058 L3.86229 5.17322 L6.50051 6.80772 L5.62334 8.21427 L0 4.72953 L0.875877 3.3231 L3.42547 4.90149 L3.43477 4.88541 L1.98753 1.53719 L2.94733 0 L4.44742 3.46173 Z" transform="translate(57.2317, 39.0604)"/>
  <path style="fill:#000000; fill-rule:nonzero;stroke:none;" d="M7.40511 1.14397 L6.51087 5.93079 L0 4.72261 L0.882822 0 L2.09441 0.225836 L1.51739 3.31043 L2.83468 3.55457 L3.38415 0.613185 L4.60727 0.840196 L4.05663 3.78158 L5.62228 4.07151 L6.21083 0.921539 L7.40511 1.14397 Z" transform="translate(61.2964, 31.2177)"/>
  <path style="fill:#000000; fill-rule:nonzero;stroke:none;" d="M1.21618 0 L1.70585 2.33149 L6.97065 1.23107 L7.31554 2.87143 L2.04956 3.97068 L2.54159 6.31144 L1.32541 6.56592 L0 0.253303 L1.21618 0 Z" transform="translate(60.963, 21.386)"/>
  <path style="fill:#000000; fill-rule:nonzero;stroke:none;" d="M0 2.06903 L0.00459068 0.0125595 C0.00459068 0.0125595 0.960981 0 2.20941 0.0102119 L2.20482 2.06786 L0 2.06903 Z" transform="translate(38.3567, 20.0438)"/>
  <path style="fill:#000000; fill-rule:nonzero;stroke:none;" d="M0.0102407 11.0787 L0 0.00798174 C0 0.00798174 2.19776 0 2.19776 0.00340398 L2.21624 11.0741 L0.0102407 11.0787 Z" transform="translate(38.3557, 24.1475)"/>
  <path style="fill:#000000; fill-rule:nonzero;stroke:none;" d="M0.45742 2.12643 L0 0 L9.67302 0.0103293 L9.66961 2.14016 L0.45742 2.12643 Z" transform="translate(28.6929, 35.2158)"/>
  <path style="fill:#000000; fill-rule:nonzero;stroke:none;" d="M9.18335 2.18594 L9.65243 0 L0 0.00798174 L0 2.18594 L9.18335 2.18594 Z" transform="translate(40.5627, 35.1758)"/>
  <path style="fill:#000000; fill-rule:nonzero;stroke:none;" d="M0 1.72969 C0 1.72969 6.41082 0 12.2458 0.06761 L12.2412 2.10917 C12.2412 2.10917 7.02468 1.92912 0.448356 3.73569 L0 1.72969 Z" transform="translate(26.1099, 22.0429)"/>
  <path style="fill:#000000; fill-rule:nonzero;stroke:none;" d="M12.279 1.71936 C12.279 1.71936 5.83145 0 0 0.06761 L0.00682716 2.11258 C0.00682716 2.11258 5.25432 1.92113 11.8306 3.72536 L12.279 1.71936 Z" transform="translate(40.5582, 22.0429)"/>
  <path style="fill:#000000; fill-rule:nonzero;stroke:none;" d="M0.448238 2.49312 L0 0.485947 C0 0.485947 0.928729 0.263632 2.1495 0 L2.60009 2.00823 L0.448238 2.49312 Z" transform="translate(23.4948, 21.7884)"/>
  <path style="fill:#000000; fill-rule:nonzero;stroke:none;" d="M2.13243 9.9267 L0 0.492872 C0 0.492872 2.14844 0.00575155 2.14961 0 L4.28428 9.43723 L2.13243 9.9267 Z" transform="translate(24.4086, 25.7786)"/>
  <path style="fill:#000000; fill-rule:nonzero;stroke:none;" d="M2.15185 2.49429 L2.60021 0.487121 C2.60021 0.487121 1.67136 0.263632 0.450592 0 L0 2.00823 L2.15185 2.49429 Z" transform="translate(52.8038, 21.7644)"/>
  <path style="fill:#000000; fill-rule:nonzero;stroke:none;" d="M2.14961 9.9267 L4.28192 0.492872 C4.28192 0.492872 2.13466 0.00575155 2.13231 0 L0 9.43841 L2.14961 9.9267 Z" transform="translate(50.207, 25.7545)"/>
  <path style="fill:#000000; fill-rule:nonzero;stroke:none;" d="M0.855161 1.68509 C0.397623 1.68509 0 1.29762 0 0.841369 C0 0.377137 0.37926 0 0.845979 0 C1.3207 0 1.68972 0.367982 1.68972 0.832214 C1.68972 1.29762 1.31152 1.68509 0.855161 1.68509 " transform="translate(14.9023, 17.272)"/>
  <path style="fill:#000000; fill-rule:nonzero;stroke:none;" d="M0.855278 1.68509 C0.397741 1.68509 0 1.29762 0 0.842543 C0 0.377137 0.379378 0 0.846097 0 C1.32082 0 1.68984 0.367982 1.68984 0.832214 C1.68984 1.29762 1.31164 1.68509 0.855278 1.68509 " transform="translate(62.0504, 17.248)"/>
 </g>
</svg>