<?xml version="1.0" encoding="UTF-8"?>
<svg xmlns="http://www.w3.org/2000/svg" xmlns:xlink="http://www.w3.org/1999/xlink" width="347pt" version="1.1" height="331pt" viewBox="0 0 347 331">
 <defs>
  <clipPath id="Clip0">
   <path d="M0 0 L0 330.734 L346.142 330.734 L346.142 0 L0 0 Z" transform="translate(0, 0.265625)"/>
  </clipPath>
 </defs>
 <g id="Background">
  <g id="Group1" clip-path="url(#Clip0)">
   <path style="fill:#000000; fill-rule:nonzero;stroke:none;" d="M16.6494 4.335 L11.4902 4.335 C11.4219 11.077 11.3525 17.751 11.3525 29.034 C11.3525 35.02 11.7656 38.391 13.7607 40.867 C15.6875 43.275 19.1953 44.308 24.1494 44.308 C28.9658 44.308 32.6807 43.138 34.8828 40.249 C36.8779 37.634 36.9463 33.506 37.0156 26.97 L37.1533 4.335 L31.167 4.335 L31.167 0 L47.8174 0 L47.8174 4.335 L42.5186 4.335 L42.3809 30.41 C42.3809 35.914 41.7627 39.904 38.5967 43.758 C35.8447 47.129 30.7549 48.986 23.9424 48.986 C15.5498 48.986 10.9385 46.854 8.11816 43 C5.84863 39.904 5.43555 36.533 5.43555 28.484 C5.43555 20.641 5.50488 11.696 5.57324 4.335 L0 4.335 L0 0 L16.6494 0 L16.6494 4.335 Z" transform="translate(0, 264.745)"/>
   <path style="fill:#000000; fill-rule:nonzero;stroke:none;" d="M25.0439 31.992 L29.584 31.992 C29.584 26.488 29.8594 20.709 29.8594 14.998 C29.8594 11.559 29.7217 4.678 21.8095 4.678 C16.7871 4.678 11.2822 7.705 11.2822 17.338 L11.1455 31.992 L16.3056 31.992 L16.3056 36.326 L0.8935 36.326 L0.8935 31.992 L5.4355 31.992 L5.7109 5.16 L0 5.16 L0 0.826 L11.3515 0.826 C11.3515 2.201 11.2822 4.128 11.1455 5.092 L10.5947 8.669 L10.7324 8.669 C12.247 3.303 17.956 0 23.3232 0 C33.0937 0 35.501 6.604 35.501 13.347 C35.501 19.401 35.2265 26.488 35.2265 31.992 L40.4541 31.992 L40.4541 36.326 L25.0439 36.326 L25.0439 31.992 Z" transform="translate(50.5469, 276.579)"/>
   <path style="fill:#000000; fill-rule:nonzero;stroke:none;" d="M8.5998 0 C10.9398 0 12.8648 1.926 12.8648 4.266 C12.8648 6.605 10.9398 8.531 8.5998 8.531 C6.2608 8.531 4.334 6.605 4.334 4.266 C4.334 1.926 6.2608 0 8.5998 0 Z M6.4668 22.291 L0 22.291 L0 17.957 L12.1098 17.957 L11.8338 49.123 L17.4748 49.123 L17.4748 53.457 L0.5498 53.457 L0.5498 49.123 L6.1928 49.123 L6.4668 22.291 Z" transform="translate(94.7842, 259.448)"/>
   <path style="fill:#000000; fill-rule:nonzero;stroke:none;" d="M0 0 L14.585 0 L14.585 4.334 L10.32 4.334 L18.507 27.107 C18.851 28.07 19.057 29.102 19.265 30.134 L19.402 30.134 C19.609 29.102 19.815 28.07 20.159 27.107 L28.552 4.334 L23.943 4.334 L23.943 0 L38.115 0 L38.115 4.334 L34.195 4.334 L21.948 35.5 L16.305 35.5 L3.99 4.334 L0 4.334 L0 0 Z" transform="translate(112.445, 277.405)"/>
   <path style="fill:#000000; fill-rule:nonzero;stroke:none;" d="M25.869 14.724 C25.869 9.15 22.36 4.334 16.442 4.334 C10.389 4.334 6.261 8.875 5.917 14.724 L25.869 14.724 Z M5.917 19.058 C6.123 26.351 9.287 32.474 19.402 32.474 C23.254 32.474 27.106 31.304 30.066 29.791 L29.86 34.675 C27.245 35.982 21.741 37.152 18.162 37.152 C6.949 37.152 0 31.029 0 18.645 C0 8.187 5.641 0 16.442 0 C30.478 0 31.786 12.729 31.786 19.058 L5.917 19.058 Z" transform="translate(152.651, 276.579)"/>
   <path style="fill:#000000; fill-rule:nonzero;stroke:none;" d="M6.055 4.954 L0 4.954 L0 0.62 L11.695 0.62 L11.695 2.546 C11.695 4.609 11.282 8.807 10.938 11.696 L11.008 11.696 L11.144 11.696 C12.521 6.468 14.379 0 23.185 0 C23.667 0 26.487 0.275 26.762 0.551 L26.212 5.642 C25.25 5.298 23.735 5.092 22.359 5.092 C15.066 5.092 11.832 12.247 11.695 18.508 L11.42 31.786 L17.406 31.786 L17.406 36.12 L0.756 36.12 L0.756 31.786 L5.779 31.786 L6.055 4.954 Z" transform="translate(189.253, 276.785)"/>
   <path style="fill:#000000; fill-rule:nonzero;stroke:none;" d="M25.457 10.664 L20.366 10.664 L20.091 5.642 C18.783 4.541 15.482 4.334 13.83 4.334 C10.252 4.334 5.643 5.504 5.643 9.77 C5.643 13.623 9.083 14.792 14.312 15.687 C23.324 17.2 27.109 19.952 27.109 25.8 C27.109 32.13 22.843 37.152 12.591 37.152 C8.74 37.152 2.616 36.189 0.414 35.02 L0.14 25.937 L5.231 25.937 L5.505 31.235 C7.638 32.268 11.216 32.818 13.555 32.818 C17.271 32.818 21.742 31.235 21.742 26.9 C21.742 23.393 18.096 22.154 14.242 21.328 C4.749 19.264 0 17.612 0 10.664 C0 4.954 3.785 0 13.968 0 C16.926 0 22.43 0.963 25.182 2.133 L25.457 10.664 Z" transform="translate(218.948, 276.579)"/>
   <path style="fill:#000000; fill-rule:nonzero;stroke:none;" d="M8.6 0 C10.94 0 12.866 1.926 12.866 4.266 C12.866 6.605 10.94 8.531 8.6 8.531 C6.261 8.531 4.334 6.605 4.334 4.266 C4.334 1.926 6.261 0 8.6 0 Z M6.467 22.291 L0 22.291 L0 17.957 L12.11 17.957 L11.834 49.123 L17.475 49.123 L17.475 53.457 L0.55 53.457 L0.55 49.123 L6.193 49.123 L6.467 22.291 Z" transform="translate(250.985, 259.448)"/>
   <path style="fill:#000000; fill-rule:nonzero;stroke:none;" d="M0 9.014 L5.711 9.014 L5.985 0.345 L11.626 0 L11.352 9.014 L22.498 9.014 L22.498 13.348 L11.282 13.348 C11.145 19.264 11.008 25.25 11.008 31.167 C11.008 36.258 11.008 40.662 16.443 40.662 C19.332 40.662 21.946 39.836 23.461 39.217 L23.254 43.689 C21.465 44.583 18.162 45.34 15.273 45.34 C5.365 45.34 5.365 38.253 5.365 33.713 C5.365 29.378 5.573 18.508 5.642 13.348 L0 13.348 L0 9.014 Z" transform="translate(270.999, 268.391)"/>
   <path style="fill:#000000; fill-rule:nonzero;stroke:none;" d="M0 0 L14.999 0 L14.999 4.334 L10.526 4.334 L18.989 26.418 C19.403 27.657 19.815 29.309 19.953 30.134 L20.09 30.134 C20.227 29.309 20.64 27.657 21.052 26.418 L28.965 4.334 L23.943 4.334 L23.943 0 L38.115 0 L38.115 4.334 L34.195 4.334 L23.323 34.262 C18.301 48.229 14.242 53.595 5.297 53.595 C3.578 53.595 2.133 53.32 1.101 52.976 L1.101 48.297 C1.926 48.572 3.715 48.917 5.091 48.917 C9.151 48.917 13.348 46.44 16.031 39.973 L17.201 37.082 L4.198 4.334 L0 4.334 L0 0 Z" transform="translate(296.356, 277.405)"/>
   <path style="fill:#000000; fill-rule:nonzero;stroke:none;" d="M0 36.941 L5.66309 36.941 L5.66309 43.502 C7.87207 44.814 12.085 45.297 15.1231 45.297 C22.0273 45.297 26.5859 42.121 26.5859 36.32 C26.5859 23.408 0.07032 31.074 0.07032 13.741 C0.07032 7.871 3.52149 0 17.9541 0 C21.4766 0 27.8965 0.897 30.9356 2.277 L30.9356 12.014 L25.5508 12.014 L25.5508 6.007 C23.7549 5.246 19.749 4.694 17.4707 4.694 C12.292 4.694 6.42188 6.696 6.42188 13.05 C6.42188 25.341 32.9385 17.676 32.9385 35.492 C32.9385 46.125 23.8232 49.991 14.502 49.991 C6.56055 49.991 2.69336 48.129 0 47.575 L0 36.941 Z" transform="translate(1.5332, 203.757)"/>
   <path style="fill:#000000; fill-rule:nonzero;stroke:none;" d="M0 9.045 L5.7314 9.045 L6.0068 0.345 L11.6699 0 L11.3936 9.045 L22.5791 9.045 L22.5791 13.395 L11.3242 13.395 C11.1865 19.334 11.0478 25.342 11.0478 31.279 C11.0478 36.389 11.0478 40.809 16.5029 40.809 C19.4033 40.809 22.0273 39.979 23.5469 39.357 L23.3389 43.848 C21.5439 44.745 18.2295 45.503 15.3291 45.503 C5.3857 45.503 5.3857 38.391 5.3857 33.834 C5.3857 29.484 5.5928 18.574 5.6611 13.395 L0 13.395 L0 9.045 Z" transform="translate(38.8252, 208.245)"/>
   <path style="fill:#000000; fill-rule:nonzero;stroke:none;" d="M17.2627 32.592 C24.8594 32.592 28.5879 26.377 28.5879 18.643 C28.5879 10.909 24.8594 4.694 17.2627 4.694 C9.668 4.694 5.9395 10.909 5.9395 18.643 C5.9395 26.377 9.668 32.592 17.2627 32.592 Z M17.2627 0 C28.1055 0 34.5254 7.458 34.5254 17.677 C34.5254 29.002 28.1055 37.286 17.2627 37.286 C6.4229 37.286 0 29.83 0 19.611 C0 8.285 6.4229 0 17.2627 0 Z" transform="translate(65.3984, 216.462)"/>
   <path style="fill:#000000; fill-rule:nonzero;stroke:none;" d="M28.864 35.56 C26.101 36.388 22.511 37.286 18.575 37.286 C4.488 37.286 0 27.966 0 18.643 C0 5.041 9.873 0 17.815 0 C21.752 0 25.687 0.483 29.347 1.795 L29.347 11.117 L24.237 11.117 L24.237 5.524 C22.719 4.971 19.887 4.694 18.299 4.694 C8.011 4.694 5.938 12.842 5.938 18.643 C5.938 20.576 6.215 32.592 19.472 32.592 C22.994 32.592 25.825 31.623 29.14 30.591 L28.864 35.56 Z" transform="translate(105.508, 216.462)"/>
   <path style="fill:#000000; fill-rule:nonzero;stroke:none;" d="M6.906 4.352 L0 4.352 L0 0 L12.568 0 L12.431 33.145 L26.033 21.958 L26.033 21.821 L21.062 21.821 L21.062 17.471 L36.529 17.471 L36.529 21.821 L32.869 21.821 L18.092 33.836 L34.182 48.752 L38.048 48.752 L38.048 53.102 L22.581 53.102 L22.581 48.752 L26.862 48.752 L26.862 48.614 L12.431 34.872 L12.292 48.752 L16.988 48.752 L16.988 53.102 L1.519 53.102 L1.519 48.752 L6.63 48.752 L6.906 4.352 Z" transform="translate(137.836, 199.819)"/>
   <path style="fill:#000000; fill-rule:nonzero;stroke:none;" d="M6.906 4.352 L0 4.352 L0 0 L12.568 0 L12.499 18.715 C12.499 20.301 12.085 23.824 11.808 25.344 L11.946 25.344 C13.467 19.957 19.198 16.643 24.583 16.643 C34.388 16.643 36.806 23.272 36.806 30.037 C36.806 36.114 36.529 43.227 36.529 48.752 L41.778 48.752 L41.778 53.102 L26.309 53.102 L26.309 48.752 L30.867 48.752 C30.867 43.227 31.141 37.427 31.141 31.695 C31.141 28.243 31.006 21.337 23.066 21.337 C18.023 21.337 12.499 24.375 12.499 34.042 L12.292 48.752 L17.54 48.752 L17.54 53.102 L1.519 53.102 L1.519 48.752 L6.63 48.752 L6.906 4.352 Z" transform="translate(178.093, 199.819)"/>
   <path style="fill:#000000; fill-rule:nonzero;stroke:none;" d="M17.263 32.592 C24.859 32.592 28.588 26.377 28.588 18.643 C28.588 10.909 24.859 4.694 17.263 4.694 C9.666 4.694 5.939 10.909 5.939 18.643 C5.939 26.377 9.666 32.592 17.263 32.592 Z M17.263 0 C28.104 0 34.525 7.458 34.525 17.677 C34.525 29.002 28.104 37.286 17.263 37.286 C6.421 37.286 0 29.83 0 19.611 C0 8.285 6.421 0 17.263 0 Z" transform="translate(223.634, 216.462)"/>
   <path style="fill:#000000; fill-rule:nonzero;stroke:none;" d="M6.905 4.352 L0 4.352 L0 0 L12.57 0 L12.293 48.752 L17.955 48.752 L17.955 53.102 L1.521 53.102 L1.521 48.752 L6.631 48.752 L6.905 4.352 Z" transform="translate(260.456, 199.819)"/>
   <path style="fill:#000000; fill-rule:nonzero;stroke:none;" d="M0.894 32.109 L5.455 32.109 L5.729 5.178 L0 5.178 L0 0.828 L11.393 0.828 C11.393 2.209 11.323 4.143 11.185 5.109 L10.632 8.701 L10.77 8.701 C12.292 3.314 18.021 0 23.407 0 C29.898 0 33.281 3.727 34.179 8.354 L34.317 8.354 C35.008 6.835 37.219 0 46.401 0 C56.206 0 58.623 6.629 58.623 13.394 C58.623 19.471 58.348 26.584 58.348 32.109 L63.597 32.109 L63.597 36.459 L48.128 36.459 L48.128 32.109 L52.685 32.109 C52.754 26.307 52.96 20.576 52.96 14.845 C52.96 9.667 51.854 4.694 45.228 4.694 C40.601 4.694 35.076 7.732 35.008 17.399 L34.87 32.109 L39.979 32.109 L39.979 36.459 L24.444 36.459 L24.444 32.109 L28.999 32.109 C29.071 26.307 29.276 20.576 29.276 14.845 C29.276 9.667 28.172 4.694 21.542 4.694 C16.916 4.694 11.393 7.732 11.323 17.399 L11.185 32.109 L16.363 32.109 L16.363 36.459 L0.894 36.459 L0.894 32.109 Z" transform="translate(282.545, 216.462)"/>
   <path style="fill:#000000; fill-rule:nonzero;stroke:none;" d="M18.763 4.1065 C18.909 4.2666 18.838 4.3789 18.685 4.5059 C18.41 4.7305 16.87 6.9834 16.693 7.2627 C16.58 7.4502 16.561 7.1211 16.626 6.9326 C16.805 6.4024 17.322 4.2598 15.52 2.6611 C14.243 1.5274 12.27 2.1914 11.549 3.2578 C10.583 4.6875 10.555 5.9912 11.549 9.7236 C12.582 13.6211 12.153 15.0547 10.727 16.707 C9.41 18.2256 6.344 19.0537 3.652 17.1865 C0.884 15.2578 0.77 14.8145 0.339 14.6416 C0 14.5039 0.01 14.2334 0.35 13.833 C0.84 13.2559 2.481 11.0186 2.764 10.6065 C2.952 10.3242 2.992 10.6416 2.798 11.0654 C2.533 11.6348 1.579 14.3906 3.866 15.9414 C6.087 17.4404 7.513 16.459 8.263 15.5762 C9.097 14.5947 9.568 13.6445 8.401 9.1778 C7.17 4.4629 8.02 2.9209 9.802 1.5274 C11.64 0.0908 14.084 0 16.077 1.5713 C17.152 2.4102 17.688 3.0039 18.093 3.3877 C18.322 3.6084 18.44 3.8594 18.559 3.9727 C18.647 4.0547 18.694 4.0195 18.763 4.1065 Z" transform="translate(133.764, 14.3535)"/>
   <path style="fill:#000000; fill-rule:nonzero;stroke:none;" d="M1.70703 0.1582 C1.77441 0 1.95605 0.0752 2.18261 0.1582 C2.76367 0.373 4.55468 0.6601 5.14258 0.6757 C5.64062 0.6953 4.80078 1.0527 4.54004 1.0839 C3.83984 1.1709 2.4414 1.5869 1.81738 3.914 C1.3789 5.5664 2.37988 6.8818 3.64648 7.1484 C5.69726 7.5732 6.77343 6.7871 9.79103 4.372 C12.8808 1.8964 14.9697 1.5791 16.9384 2.1396 C18.7636 2.6572 20.9336 5.0644 20.2187 8.1621 C19.5996 10.8535 18.8584 11.3525 18.6406 11.917 C18.5146 12.2675 18.3613 12.3896 17.8486 12.247 C17.1953 12.0673 14.7343 11.706 14.289 11.6591 C13.4951 11.5683 13.83 11.2666 14.289 11.207 C15.5586 11.0459 18.3183 10.7021 18.8691 7.9882 C19.2754 5.9668 17.9199 5.0087 16.7265 4.7226 C15.4697 4.4121 14.1025 4.455 10.5674 7.3847 C6.7539 10.54 5.12793 10.5322 3.07812 9.5966 C0.90918 8.6093 0 6.6494 0.46679 4.0087 C0.76269 2.3281 1.50195 0.8486 1.62207 0.6757 C1.70703 0.5566 1.66113 0.2714 1.70703 0.1582 Z" transform="translate(3.02637, 71.5684)"/>
   <path style="fill:#000000; fill-rule:nonzero;stroke:none;" d="M5.203 21.095 C4.938 21.095 4.991 20.865 4.949 20.705 C4.949 20.705 4.274 18.462 4.212 18.288 C4.137 18.084 4.345 18.047 4.478 18.205 C4.83 18.598 6.283 19.95 8.334 19.437 C9.969 19.028 10.875 17.275 10.465 16.052 C9.927 14.418 8.325 13.648 4.818 12.036 C1.652 10.574 0.627 9.107 0.338 7.289 C0 5.155 1.375 2.147 4.408 1.213 C7.057 0.397 7.693 0.472 8.213 0.212 C8.612 0 8.672 0.836 8.728 0.99 C8.981 1.695 9.67 3.89 9.83 4.301 C9.969 4.686 9.686 4.82 9.493 4.404 C9.232 3.84 7.337 1.581 4.942 2.359 C2.578 3.124 2.232 4.806 2.559 5.924 C2.928 7.159 3.144 8.145 7.587 10.01 C11.912 11.83 12.759 13.697 12.776 15.79 C12.793 18.122 10.944 19.93 8.482 20.552 C7.16 20.888 6.902 20.791 6.351 20.872 C6.035 20.924 5.786 20.941 5.623 20.963 C5.505 20.982 5.419 21.095 5.203 21.095 Z" transform="translate(116.384, 161.818)"/>
   <path style="fill:#000000; fill-rule:nonzero;stroke:none;" d="M8.067 1.2324 C8.549 1.0205 9.353 0.6006 9.848 0.1845 C10.068 0 10.497 0.1845 10.767 0.4482 C10.944 0.624 14.802 4.4394 15.567 5.2607 C16.596 6.3593 20.026 9.5029 20.468 9.9267 C20.906 10.3437 21.323 10.583 20.884 10.874 C20.443 11.1592 19.493 11.706 19.208 11.8427 C18.951 11.9765 19.017 11.874 19.017 11.5517 C19.017 11.2226 18.794 10.7392 17.832 9.7431 C16.871 8.7383 15.766 7.5947 15.567 7.4345 C15.367 7.2695 15.293 7.2422 15.122 7.3955 C14.845 7.6474 11.061 11.4853 10.207 12.3652 C9.424 13.1699 4.49 18.0166 4.343 18.7744 C4.193 19.5595 4.445 19.7207 4.542 19.8701 C4.662 20.0586 4.763 20.6552 4.521 20.4121 C4.282 20.1718 2.698 18.4424 2.323 18.0918 C1.9 17.7031 0.414 16.4433 0.192 16.2392 C0 16.0703 0.123 15.9121 0.51 16.0654 C0.851 16.207 1.382 16.499 2.192 16.0937 C3.324 15.5322 7.556 11.1523 8.152 10.5517 C8.753 9.9502 12.85 5.6797 12.968 5.5586 C13.154 5.3535 13.219 5.2558 12.952 4.9297 C12.661 4.5654 10.15 2.1787 9.632 1.8369 C9.172 1.5351 8.878 1.4013 8.478 1.4013 C8.144 1.4013 7.712 1.3974 8.067 1.2324 Z" transform="translate(146.566, 22.1221)"/>
   <path style="fill:#000000; fill-rule:nonzero;stroke:none;" d="M1.9209 15.2304 C1.5635 14.8379 0.7139 14.0996 0.2198 13.6826 C0 13.499 0.1211 13.2519 0.3194 12.9297 C0.4463 12.7216 3.1553 7.749 3.7686 6.8105 C4.5928 5.541 7.0323 1.4638 7.3389 0.9336 C7.6631 0.374 7.8711 0 8.125 0.2363 C8.5088 0.5957 9.1866 1.3964 9.3633 1.6562 C9.5791 1.958 9.4551 1.8066 9.1348 1.8066 C8.8018 1.8066 8.4004 2.4492 7.6573 3.6152 C6.9141 4.789 6.3252 5.997 6.2168 6.2334 C6.0635 6.5595 6.2784 6.6562 6.4629 6.7871 C6.7803 6.9941 11.2569 9.7617 12.3164 10.3828 C13.2823 10.9472 19.1748 14.3037 20.0284 14.2656 C20.8282 14.2295 20.8213 14.0918 20.9707 13.9863 C21.2002 13.8281 21.6573 13.7539 21.4307 14.0048 C21.1651 14.2998 20.1494 15.7988 19.8272 16.4072 C19.4522 17.0859 18.5821 18.6953 18.4659 18.9472 C18.3536 19.1748 18.3428 18.7822 18.3672 18.4326 C18.3916 18.0195 18.6407 17.6484 18.0274 17.1455 C16.9453 16.2578 11.793 13.2402 11.0655 12.8047 C10.3448 12.3642 5.3086 9.5146 4.9541 9.3925 C4.6934 9.2988 4.4727 8.9882 4.2725 9.3662 C4.0264 9.8252 2.1592 12.7607 1.9991 13.7734 C1.9239 14.2324 1.8907 14.4013 1.9776 14.8173 C2.0743 15.2539 2.0889 15.415 1.9209 15.2304 Z" transform="translate(11.8652, 38.8516)"/>
   <path style="fill:#000000; fill-rule:nonzero;stroke:none;" d="M1.1348 11.4541 C0.959 10.7314 0.4434 10.0537 0.1709 9.5058 C0.0049 9.1777 0 9.1894 0.4346 8.8349 C0.625 8.6826 5.1387 5.3467 6.0303 4.6631 C7.2539 3.7256 11.3916 0.9336 11.8877 0.5732 C12.4102 0.1924 12.9346 0 13.0987 0.4551 C13.2803 0.9531 13.7744 2.124 13.8613 2.4297 C13.9824 2.8769 13.7979 2.5439 13.4795 2.2607 C13.2315 2.041 12.7822 2.0762 11.627 2.8506 C10.4922 3.6064 8.8613 4.6904 8.6387 4.8877 C8.3662 5.1308 8.4492 5.0908 8.5528 5.291 C8.8086 5.7978 11.7783 10.1699 12.6143 11.2744 C13.2998 12.1767 17.4102 17.9971 18.1944 18.3349 C18.7207 18.5713 19.043 18.4014 19.1797 18.3701 C19.4209 18.3154 19.7237 18.4014 19.3155 18.6367 C18.9678 18.833 17.6699 19.7041 17.2324 19.999 C16.7617 20.3213 15.6309 21.1885 15.2305 21.5381 C14.7471 21.9463 14.8819 21.5058 15.1016 21.2197 C15.2901 20.9814 15.4746 20.7529 15.1651 20.0303 C14.5733 18.6445 11.5879 14.3545 10.8223 13.2832 C10.3281 12.5928 6.4151 7.3525 6.1631 7.0224 C6.0244 6.8389 5.9776 6.7744 5.6319 7.0224 C5.2539 7.293 2.2422 9.5928 1.793 10.0127 C1.4444 10.3476 1.2549 10.4258 1.2227 10.873 C1.2061 11.1396 1.2168 11.791 1.1348 11.4541 Z" transform="translate(35.7158, 12.3799)"/>
   <path style="fill:#000000; fill-rule:nonzero;stroke:none;" d="M7.623 7.3252 C3.467 11.3643 3.974 15.9365 6.106 18.0918 C8.202 20.2197 12.799 20.5889 16.794 16.7461 C20.861 12.8457 20.472 7.6856 17.91 5.4336 C16.032 3.7813 11.817 3.2549 7.623 7.3252 Z M19.246 4.9395 C22.026 7.8428 24.253 14.709 18.527 19.4785 C13.66 23.541 7.439 21.8682 4.852 18.999 C2.452 16.3457 0 10.1397 5.266 4.9942 C10.38 0 16.605 2.1797 19.246 4.9395 Z" transform="translate(155.56, 36.5703)"/>
   <path style="fill:#000000; fill-rule:nonzero;stroke:none;" d="M12.852 5.379 C7.183 3.349 3.571 6.038 2.652 8.735 C1.778 11.326 2.79 15.2 8.523 17.356 C14.069 19.431 18.237 17.374 19.188 13.63 C19.542 12.232 19.623 7.805 12.852 5.379 Z M20.158 14.884 C18.869 19.015 13.344 23.482 6.715 20.523 C1.276 18.091 0 12.028 1.293 8.354 C2.483 4.974 7.403 0 13.791 2.478 C20.076 4.923 21.464 10.689 20.158 14.884 Z" transform="translate(160.248, 120.406)"/>
   <path style="fill:#000000; fill-rule:nonzero;stroke:none;" d="M5.901 19.4961 C5.412 19.5078 3.888 19.3233 3.395 19.2246 C2.824 19.1074 2.745 19.0957 2.565 18.8516 C2.413 18.6563 0 15.7744 0 11.3516 C0 6.5147 2.298 2.543 6.911 1.1817 C10.906 0 15.087 1.6826 17.495 4.7569 C19.427 7.2139 19.656 10.3731 19.719 11.374 C19.806 12.7715 19.932 13.6153 19.995 14.0596 C20.118 14.8203 20.109 15.0254 20.27 15.2256 C20.43 15.4258 20.201 15.6172 19.911 15.6524 C19.568 15.6924 18.524 15.8369 17.964 15.9707 C17.545 16.0723 16.69 16.3086 16.571 16.3369 C15.966 16.4815 15.992 16.3203 16.458 15.9707 C16.804 15.7227 18.152 15.0479 18.381 13.3282 C18.575 11.7979 18.824 8.4502 16.396 5.9815 C14.603 4.1524 11.599 2.6924 7.282 4.4629 C3.863 5.8633 1.582 8.9219 1.558 12.5244 C1.532 16.1524 3.656 18.3096 5.724 19.0489 C6.38 19.2803 6.746 19.4766 5.901 19.4961 Z" transform="translate(167.297, 58.8281)"/>
   <path style="fill:#000000; fill-rule:nonzero;stroke:none;" d="M18.571 1.0918 C18.564 1.8281 18.907 5.1465 19.046 5.7978 C19.213 6.5801 18.867 6.2187 18.819 5.9355 C18.77 5.6933 18.476 5.2178 17.893 5.1592 C16.985 5.0683 13.044 5.3516 9.797 5.7627 C11.27 7.3301 16.164 10.8496 16.825 11.3086 C17.622 11.875 18.415 12.3818 18.667 12.3701 C18.838 12.3584 18.752 12.5029 18.829 12.2832 C18.932 11.9726 19.254 10.9883 19.201 12.4912 C19.187 12.8516 19.169 13.9277 19.206 14.206 C19.243 14.4902 19.336 15.2353 19.359 15.3965 C19.473 16.209 19.336 16.0439 18.74 15.3047 C17.848 14.2168 15.933 12.8633 15.24 12.3623 C14.579 11.8857 10.362 8.6953 10.362 8.6953 C10.362 8.6953 4.315 14.4424 3.169 15.6943 C2.768 16.1338 1.237 17.7275 0.813 18.6767 C0.618 19.1182 0.459 19.3291 0.53 18.9131 C0.579 18.6465 0.765 16.9941 0.808 16.2705 C0.846 15.6396 0.915 13.6728 0.922 13.4814 C0.947 13.0879 1.1 13.3818 1.312 13.4375 C1.619 13.5215 3.333 11.9189 5.203 10.081 C6.618 8.6826 8.989 6.1162 9.163 5.8682 C8.656 5.8096 4.161 6.3721 3.286 6.5644 C2.398 6.7637 1.463 7 1.185 7.3183 C0.904 7.6357 0.81 7.8359 0.783 8.0918 C0.752 8.331 0.517 8.4521 0.476 8.1308 C0.44 7.8135 0.363 6.085 0.326 5.4775 C0.288 4.8379 0.079 3.4394 0.039 3.2305 C0 3.043 0.201 2.8662 0.32 3.1494 C0.442 3.4316 0.522 3.5654 0.881 3.71 C1.56 3.9775 2.465 3.9853 9.141 3.2041 C15.825 2.4316 16.336 2.25 17.014 2.0723 C17.721 1.8848 18.157 1.626 18.241 1.0264 C18.289 0.6767 18.587 0 18.571 1.0918 Z" transform="translate(170.352, 79.5713)"/>
   <path style="fill:#000000; fill-rule:nonzero;stroke:none;" d="M22.103 3.521 C21.974 4.125 21.431 7.418 21.431 8.082 C21.428 8.752 21.119 8.752 21.045 8.305 C20.939 7.666 20.692 7.583 20.419 7.418 C20.138 7.246 19.329 6.963 17.099 6.605 C14.786 6.237 13.282 5.973 13.282 5.973 C13.282 5.973 12.563 9.019 12.163 10.869 C11.658 13.184 11.106 16.254 11.106 16.254 C11.106 16.254 14.358 17.176 15.555 17.511 C16.749 17.842 18.579 18.596 19.166 17.609 C19.576 16.917 19.832 17.067 19.443 17.808 C19.308 18.072 18.494 21.235 18.366 21.864 C18.125 23.036 17.97 22.298 18.018 22.02 C18.065 21.769 18.294 21.263 17.257 20.854 C16.228 20.439 12.735 19.272 9.666 18.392 C6.598 17.517 3.082 16.392 1.695 16.509 C1.001 16.568 0.814 16.724 0.648 16.96 C0.414 17.29 0 17.393 0.329 16.85 C0.64 16.34 1.424 13.514 1.556 12.626 C1.757 11.257 1.975 12.211 1.944 12.471 C1.906 12.792 2.001 13.188 2.582 13.521 C4.081 14.362 9.645 15.823 9.645 15.823 C9.645 15.823 10.357 13.012 10.828 10.848 C11.387 8.294 11.767 5.765 11.767 5.765 C11.767 5.765 10.357 5.539 9.359 5.365 C8.361 5.192 4.654 4.659 4.155 4.807 C3.691 4.949 3.428 5.306 3.361 5.514 C3.285 5.747 2.826 6.189 3.084 5.354 C3.262 4.758 3.626 2.485 3.691 1.176 C3.748 0 4.056 0.513 4.07 0.847 C4.081 1.106 4.353 1.55 4.605 1.659 C5.841 2.198 8.044 2.512 12.552 3.178 C17.061 3.843 20.462 4.314 21.07 4.102 C21.72 3.881 21.676 3.638 21.802 3.359 C21.923 3.083 22.283 2.672 22.103 3.521 Z" transform="translate(166.949, 100.067)"/>
   <path style="fill:#000000; fill-rule:nonzero;stroke:none;" d="M21.41 12.844 C20.901 13.198 18.922 15.603 18.317 16.435 C17.838 17.088 17.908 16.569 18.032 16.307 C18.264 15.832 18.122 15.686 17.942 15.273 C17.642 14.598 15.326 12.715 12.341 10.213 C9.398 7.761 6.725 5.48 5.924 5.444 C5.523 5.426 5.175 5.397 4.349 6.148 C3.106 7.285 1.64 9.104 1.305 9.692 C0.828 10.534 0.924 11.332 0.928 11.603 C0.933 12.051 0.794 11.996 0.64 11.607 C0.465 11.168 0.04 9.421 0.015 9.104 C0 8.859 0.015 8.739 0.28 8.444 C0.743 7.942 4.655 3.509 5.228 2.874 C5.852 2.171 6.801 1.059 7.045 0.638 C7.416 0 7.539 0.46 7.42 0.781 C7.303 1.107 7.037 1.484 7.238 2.077 C7.631 3.239 11.32 5.967 13.448 7.674 C17.618 11.035 19.659 12.802 20.342 12.806 C20.87 12.813 21.014 12.719 21.264 12.515 C21.461 12.353 21.945 12.47 21.41 12.844 Z" transform="translate(149.296, 137.124)"/>
   <path style="fill:#000000; fill-rule:nonzero;stroke:none;" d="M18.772 1.864 C18.977 2.372 20.968 5.797 23.048 9.288 C25.201 12.891 27.529 16.644 27.85 17.205 C28.483 18.308 28.502 18.574 27.409 18.031 C25.825 17.246 19.474 14.045 18.445 13.549 C17.37 13.031 12.199 10.406 12.199 10.406 C12.199 10.406 13.322 18.876 13.405 19.353 C13.483 19.835 14.411 26.889 14.457 27.241 C14.503 27.599 14.508 28.158 13.868 27.555 C13.229 26.955 3.204 14.164 2.701 13.584 C2.221 13.031 1.731 12.788 1.233 12.723 C0.836 12.676 0.641 12.692 0.448 12.768 C0.195 12.862 0 12.629 0.366 12.485 C0.812 12.312 4.391 10.467 4.743 10.251 C4.968 10.12 5.267 10.297 4.931 10.505 C4.485 10.784 4.422 10.98 4.515 11.384 C4.735 12.358 11.991 21.365 11.991 21.365 C11.991 21.365 10.752 13.274 10.55 12.24 C10.35 11.194 9.628 6.434 9.628 6.434 C9.628 6.434 9.63 6.132 9.933 6.294 C10.253 6.462 17.335 10.08 18.083 10.448 C18.79 10.81 23.386 13.063 23.386 13.063 C23.386 13.063 19.4 6.599 17.754 4.014 C17.343 3.363 16.906 3.066 16.676 3.019 C16.116 2.905 15.935 3.144 15.614 3.279 C15.45 3.349 15.189 3.147 15.683 2.853 C16.284 2.498 16.942 1.981 17.343 1.66 C17.74 1.343 18.772 0.359 18.936 0.2 C19.132 0 19.36 0.244 19.173 0.412 C18.788 0.77 18.472 1.111 18.772 1.864 Z" transform="translate(127.963, 147.907)"/>
   <path style="fill:#000000; fill-rule:nonzero;stroke:none;" d="M13.201 4.236 C13.157 4.573 13.265 8.491 13.307 8.982 C13.324 9.212 13.128 9.143 12.992 8.646 C12.95 8.491 12.686 7.956 12.16 7.851 C10.64 7.536 7.7705 7.767 7.7705 7.767 C7.7705 7.767 7.6768 12.302 8.1573 12.823 C8.6055 13.31 8.6768 13.258 8.875 13.302 C9.0733 13.346 9.5606 13.597 9.2403 13.57 C8.6299 13.513 5.2149 13.513 4.4414 13.593 C3.8848 13.651 4.167 13.394 4.6387 13.287 C5.1172 13.182 5.3477 12.921 5.5274 12.324 C5.7422 11.638 5.6367 7.744 5.6367 7.744 C5.6367 7.744 1.4668 7.707 0.9453 7.99 C0.5186 8.211 0.4248 8.609 0.3848 8.931 C0.3438 9.253 0 9.543 0.0449 9.102 C0.127 8.318 0.1778 5.503 0.083 4.867 C0.003 4.304 0.1319 4.384 0.3184 4.719 C0.5459 5.127 0.4698 5.364 0.9561 5.559 C1.5332 5.786 5.6367 5.72 5.6367 5.72 C5.6367 5.72 5.6651 1.866 5.5567 1.278 C5.4502 0.711 5.0449 0.346 4.5674 0.298 C4.291 0.272 4.042 0.025 4.4033 0.063 C5.6182 0.193 8.0283 0.145 8.9864 0.051 C9.4815 0 9.1875 0.268 8.8194 0.361 C8.4102 0.466 8.0078 0.693 7.8487 1.296 C7.6924 1.889 7.7158 5.68 7.7158 5.68 C7.7158 5.68 11.305 5.726 11.952 5.586 C12.498 5.469 12.793 5.135 12.914 4.627 C12.987 4.304 13.237 3.907 13.201 4.236 Z" transform="translate(89.749, 170.151)"/>
   <path style="fill:#000000; fill-rule:nonzero;stroke:none;" d="M18.5518 22.764 C17.8526 22.333 14.626 21.112 13.3545 20.904 C12.7881 20.811 13.3155 20.661 13.6719 20.688 C14.1387 20.73 14.543 20.794 14.8809 20.431 C15.7715 19.466 19.2891 10.599 19.7539 8.509 C20.2325 6.339 20.3018 3.543 16.3731 2.14 C12.2823 0.675 10.6534 2.907 8.4307 7.088 C6.8106 10.142 4.2276 15.563 4.2276 16.179 C4.2276 16.65 4.376 16.82 4.6397 17.028 C5.001 17.325 5.212 17.806 4.8633 17.526 C3.959 16.803 0.9405 15.529 0.3526 15.347 C0 15.235 0.2842 15.037 0.7266 15.13 C1.0997 15.212 1.2579 15.118 1.6123 14.873 C2.4961 14.26 6.9551 5.321 7.5459 4.352 C8.6377 2.555 10.3311 0.868 12.6963 0.445 C15.2588 0 19.3086 1.317 21.3819 4.239 C23.1065 6.673 22.5118 9.255 22.1934 10.641 C21.8038 12.326 18.125 20.548 18.1104 21.653 C18.1065 22.101 18.2979 22.228 18.5391 22.428 C18.7784 22.627 18.9122 22.984 18.5518 22.764 Z" transform="translate(51.8691, 160.83)"/>
   <path style="fill:#000000; fill-rule:nonzero;stroke:none;" d="M14.6445 26.632 C14.6445 26.632 13.875 18.316 13.6426 15.437 C13.373 12.091 12.5351 5.616 12.5351 5.616 C12.5351 5.616 6 12.683 5.1543 13.541 C4.3056 14.397 3.5263 15.245 3.5283 15.826 C3.5322 16.415 3.7959 16.533 3.8994 16.74 C3.9756 16.909 4.124 17.47 3.9609 17.27 C3.6308 16.875 2.915 16.132 2.1738 15.448 C1.5342 14.867 0.8808 14.343 0.4433 14.045 C0 13.746 0.5508 13.796 0.792 13.954 C1.0312 14.119 1.2041 14.201 1.6963 14.151 C2.3183 14.071 7.0156 8.913 8.7607 7.089 C10.5097 5.266 14.4267 0.952 14.833 0.401 C15.122 0 15.1191 0.18 15.1504 0.607 C15.1884 1.141 15.874 9.691 16.0205 10.68 C16.1562 11.604 16.5957 17.416 16.6543 18.066 C16.7109 18.712 16.9082 20.897 16.9082 20.897 C16.9082 20.897 19.9101 16.58 20.9111 15.026 C21.914 13.471 24 10.694 23.9951 9.951 C23.9892 9.167 23.5742 8.932 23.3271 8.691 C23.1904 8.552 23.083 8.197 23.3926 8.47 C24.0869 9.091 26.2187 10.634 27.5342 11.234 C28.167 11.528 27.2197 11.35 27.0566 11.27 C26.9541 11.231 26.3613 11.096 25.8447 11.279 C25.1718 11.517 21.3974 17.297 20.6494 18.405 C19.872 19.542 17.6035 22.722 17.0752 23.583 C16.5488 24.441 15.3271 26.235 15.081 26.679 C14.8232 27.137 14.7099 27.096 14.6445 26.632 Z" transform="translate(30.0137, 146.004)"/>
   <path style="fill:#000000; fill-rule:nonzero;stroke:none;" d="M15.1465 0.427 C15.3682 0.851 15.9746 1.766 16.6699 2.642 C17.3584 3.498 18.0996 4.258 18.5489 4.679 C18.9024 5.018 18.4092 4.89 18.0801 4.645 C17.6934 4.354 17.375 4.286 16.3379 4.852 C15.1241 5.507 4.4024 14.534 3.9922 15.053 C3.4961 15.67 3.5332 15.975 3.7451 16.443 C3.9063 16.805 3.794 17.126 3.6553 16.894 C3.2403 16.228 1.2061 13.41 0.4746 12.873 C0 12.525 0.4991 12.612 0.8008 12.787 C1.127 12.98 1.2237 12.957 1.5821 12.804 C2.7793 12.297 14.9043 2.505 15.0918 1.817 C15.2891 1.087 15.0215 0.981 14.9951 0.765 C14.959 0.486 14.9131 0 15.1465 0.427 Z" transform="translate(21.0947, 137.38)"/>
   <path style="fill:#000000; fill-rule:nonzero;stroke:none;" d="M20.0147 7.5869 C19.5537 8.3027 18.166 11.8135 17.9365 12.8311 C17.8281 13.2988 17.6035 12.8047 17.669 12.4629 C17.7871 11.8701 17.875 11.5606 16.8897 10.9082 C15.6192 10.0645 2.95411 5.2246 1.67578 5.2246 C1.02149 5.2246 0.875 5.4902 0.63868 5.7852 C0.4336 6.0449 0 6.166 0.27246 5.7734 C0.58008 5.3389 2.25879 1.1572 2.35157 0.5684 C2.44141 0 2.66602 0.5772 2.60645 0.8945 C2.5127 1.3731 2.5459 1.7227 2.84375 1.9697 C4.05468 2.999 17.7403 8.2578 18.7549 8.0938 C19.4473 7.9805 19.377 7.7481 19.6133 7.5283 C19.8692 7.2842 20.3408 7.0879 20.0147 7.5869 Z" transform="translate(6.93652, 57.3164)"/>
   <path style="fill:#000000; fill-rule:nonzero;stroke:none;" d="M13.5157 7.465 L17.5723 2.046 C17.5723 2.046 10.46 2.43 8.94045 2.557 C7.42185 2.69 2.98925 2.874 2.49415 3.592 C2.16215 4.074 2.47555 4.606 2.50585 4.766 C2.56445 5.093 2.48735 5.606 2.34575 5.221 C2.25975 4.972 1.70605 3.53 1.26856 2.532 C0.87598 1.633 0.35352 0.543 0.2207 0.332 C0 0 0.37207 0.084 0.5918 0.319 C0.82422 0.566 0.95313 0.731 1.55275 0.888 C2.54885 1.147 9.16695 0.809 10.4473 0.766 C11.7266 0.718 21.1319 0.099 21.9131 0.173 C22.332 0.213 22.7051 0.012 22.2022 0.789 C21.918 1.227 16.3046 8.576 15.8721 9.172 C15.4356 9.779 10.2139 16.533 10.1171 17.371 C10.0372 18.087 10.1368 18.268 10.1796 18.464 C10.2364 18.751 10.2041 19.537 10.0938 19.274 C9.61325 18.115 7.57035 15.012 6.93555 14.179 C6.53805 13.661 7.06545 14.01 7.38575 14.131 C7.71095 14.242 7.90135 14.167 8.25485 13.928 C9.27055 13.248 12.9581 8.232 13.5157 7.465 Z" transform="translate(8.67285, 127.409)"/>
   <path style="fill:#000000; fill-rule:nonzero;stroke:none;" d="M18.2744 1.833 C18.54 2.599 19.3701 5.97 19.7861 7.442 C19.9345 7.965 20.8623 11.395 21.1416 11.969 C21.2763 12.248 20.663 11.811 20.538 11.514 C20.4629 11.325 20.4902 11.195 20.1806 10.967 C20.0068 10.842 19.7685 10.811 19.5527 10.784 C18.6972 10.673 13.7861 12.307 11.333 13.055 C8.81154 13.829 4.00098 15.273 3.49902 15.86 C3.00293 16.452 3.15527 16.706 3.20019 17.012 C3.2373 17.276 3.03711 18.217 2.93066 17.633 C2.82715 17.071 2.7168 16.074 2.27441 14.481 C1.87891 13.068 0.25293 7.246 0.1543 6.995 C0.02246 6.67 0 6.551 0.24512 6.457 C0.47949 6.375 2.00879 5.845 2.41602 5.602 C2.92969 5.295 2.72852 5.739 2.44629 6.033 C2.17578 6.321 2.02441 6.47 2.08105 7.379 C2.14746 8.452 3.44043 12.448 3.44043 12.448 C3.44043 12.448 5.84084 11.811 6.62504 11.533 C7.39254 11.249 10.0234 10.48 10.0234 10.48 C10.0234 10.48 8.88284 6.159 8.47954 5.637 C8.09864 5.135 7.84764 5.237 7.45704 5.272 C7.17184 5.295 6.68554 5.083 7.05074 5.009 C7.85744 4.848 10.0771 4.247 11.163 3.729 C11.624 3.51 11.1601 4.075 10.9482 4.2 C10.7304 4.333 10.3955 4.53 10.3711 5.263 C10.3505 5.877 10.7714 7.329 10.957 7.847 C11.1279 8.334 11.6201 10.014 11.6201 10.014 C11.6201 10.014 15.9677 8.761 16.6904 8.416 C17.3818 8.074 17.9785 8.063 17.8232 6.622 C17.6875 5.413 16.8994 2.596 16.2851 1.681 C15.8134 0.986 15.4287 0.734 15.2705 0.609 C15.1074 0.479 14.54 0 14.8789 0.105 C15.3906 0.268 17.5566 1.029 17.8173 1.229 C18.0459 1.409 18.1533 1.489 18.2744 1.833 Z" transform="translate(4.50586, 106.311)"/>
   <path style="fill:#000000; fill-rule:nonzero;stroke:none;" d="M21.7363 12.8985 C21.2177 13.4434 17.3984 17.5772 16.332 18.7871 C15.9736 19.1954 15.122 20.168 14.874 20.4629 C14.6787 20.6905 14.5898 20.2422 14.7509 19.961 C14.9121 19.6778 15.0771 19.5567 14.874 18.8965 C14.6074 18.0127 10.1572 14.3868 8.2207 12.7032 C6.1406 10.9043 2.7881 7.8438 2.0205 7.7383 C1.333 7.6465 1.1572 7.7696 0.8349 7.9336 C0.5947 8.0508 0 8.2989 0.4111 7.8985 C0.8183 7.4981 1.4541 6.7989 2.3691 5.8096 C3.3662 4.7383 7.4404 0.4981 7.6045 0.2793 C7.8115 0.0039 7.9267 0 8.1035 0.1817 C8.3134 0.3975 9.3359 1.4571 9.7353 1.709 C10.3447 2.0811 9.7988 2.0342 9.4765 1.9629 C9.1923 1.9004 9.0381 1.7911 8.3701 2.1787 C7.3144 2.795 4.8232 5.7784 4.8232 5.7784 L9.6972 10.2813 C9.6972 10.2813 13.0888 7.125 13.1494 6.4746 C13.2002 5.9121 13.1201 5.7705 13.081 5.6485 C12.9941 5.3897 13.0283 4.9434 13.2373 5.2481 C13.8642 6.1397 15.4912 7.5801 15.9072 7.8789 C16.332 8.1817 15.834 8.1895 15.6054 8.0821 C15.247 7.9258 15.1103 7.67 14.4463 7.9952 C13.7871 8.3262 11.0634 11.5137 11.0634 11.5137 C11.0634 11.5137 14.5351 14.4961 15.1875 14.9717 C16.0381 15.5948 16.6435 15.7442 17.4951 14.9629 C18.3935 14.1387 20.333 12.252 20.7822 11.2461 C21.1308 10.4805 20.997 9.9395 21.0156 9.7442 C21.041 9.4405 21.2177 9.0674 21.2715 9.3145 C21.3291 9.5664 22.0381 11.7852 22.083 12.1211 C22.1211 12.4121 22.0537 12.5664 21.7363 12.8985 Z" transform="translate(22.3848, 26.8359)"/>
   <path style="fill:#000000; fill-rule:nonzero;stroke:none;" d="M7.89058 9.4599 C5.2627 7.9179 2.77735 9.2744 1.93555 10.6494 C1.11133 12.0185 1.5586 14.5908 1.5586 14.5908 C1.5586 14.5908 4.94141 14.3632 5.58399 14.3232 C6.22364 14.2871 9.72848 14.0322 9.72848 14.0322 C9.72848 14.0322 10.0899 10.7568 7.89058 9.4599 Z M19.3018 14.041 C19.336 14.4492 19.4375 16.4049 19.5684 17.2719 C19.6377 17.7589 19.3418 17.1489 19.2676 16.9019 C19.1944 16.6669 19.1592 16.4069 18.753 16.1989 C18.0742 15.8429 13.3418 16.2339 10.583 16.5409 C8.06148 16.8209 2.23536 17.1139 1.54493 17.7499 C1.04102 18.2099 1.13086 18.7589 1.11719 18.9629 C1.10352 19.2289 0.64356 20.1009 0.65918 19.4419 C0.66993 19.0419 0.64551 17.2949 0.5625 16.6859 C0.46485 16.0269 0 11.8193 0.25196 10.3662 C0.53809 8.7099 2.17871 6.3974 5.00684 6.2763 C7.97268 6.1474 9.41408 8.6396 9.71878 9.2363 C9.99118 8.8828 10.1465 8.6914 10.9395 8.0937 C11.9024 7.3632 18.208 3.6464 18.6924 2.5127 C19.0069 1.7822 18.8535 1.4248 18.8418 1.2607 C18.7852 0.5224 18.9453 0 19.3008 1.2607 C19.5108 2.0127 19.6573 4.1172 18.7569 5.3808 C17.6328 6.9521 14.0645 9.0752 13.3662 9.5537 C12.5381 10.1191 10.6328 11.167 10.6397 12.3095 C10.6455 13.3193 10.791 13.9316 10.791 13.9316 C10.791 13.9316 13.5948 13.6484 14.3545 13.5654 C15.1104 13.4755 18.0742 13.2998 18.4698 12.8525 C18.8692 12.4043 18.7783 12.2509 18.8184 12.0185 C18.8506 11.8037 19.2989 10.8642 19.2676 12.0859 C19.2539 12.5332 19.2676 13.6279 19.3018 14.041 Z" transform="translate(2.12402, 84.7891)"/>
   <path style="fill:#000000; fill-rule:nonzero;stroke:none;" d="M12.8261 32.877 C9.5517 28.9922 9.0341 24.7246 9.0341 22.4873 C9.0341 19.5987 10.3466 17.7657 11.6123 15.9912 L12.5527 14.8291 C14.1201 12.9883 16.2636 10.4805 16.2636 6.09277 C16.2636 2.27344 15.8281 0.63477 15.5791 0 C15.4355 1.88672 14.3447 9.71097 6.2197 16.7569 C3.8916 18.7784 0 22.1543 0 26.3692 C0 32.5508 3.997 37.6592 5.2383 39.0996 C4.1689 36.3789 3.8281 33.7217 3.8281 31.5469 C3.8281 28.4932 4.4482 26.378 4.457 26.3389 L4.5283 26.1026 L4.6533 26.3145 C7.4795 31.0801 11.6797 32.5606 12.8261 32.877 Z" transform="translate(78.4805, 4.08203)"/>
   <path style="fill:#000000; fill-rule:nonzero;stroke:none;" d="M0 17.8672 C2.0225 17.084 9.3714 13.8721 9.3714 8.73047 C9.3714 4.70703 6.4219 1.11132 5.4189 0 C5.6973 0.89941 6.2383 2.97168 6.2383 5.46875 C6.2383 11.4707 1.4395 16.502 0 17.8672 Z" transform="translate(92.5166, 1.00391)"/>
   <path style="fill:#000000; fill-rule:nonzero;stroke:none;" d="M29.9228 6.75098 C27.9538 9.61716 20.7168 12.4698 20.3828 12.5997 L20.2628 12.4229 C24.3678 8.24606 25.4928 1.7666 25.7308 0 C19.9398 9.12986 16.3928 10.7002 12.3078 12.4981 L10.5158 13.3028 C5.6192 15.6221 0 18.9385 0 24.1358 C0 31.001 2.3428 33.878 3.1328 34.6524 C2.6221 32.8272 2.4532 31.2647 2.4532 30.044 C2.4532 28.0577 2.8662 26.9395 2.8731 26.919 L3.0235 26.5225 L3.085 26.9424 C3.627 30.7227 8.1846 34.2745 9.1836 35.0088 C9.1377 34.5967 9.0567 33.71 9.0567 32.5323 C9.0567 28.6973 9.9438 21.9073 15.8928 19.3663 C26.6228 14.7774 29.2948 8.85156 29.9228 6.75098 Z" transform="translate(90.1152, 2.26074)"/>
   <path style="fill:#000000; fill-rule:nonzero;stroke:none;" d="M10.712 10.7481 C10.712 3.6631 12.069 0.9454 12.791 0 C1.242 5.2325 0 14.7715 0 18.5547 C0 19.0108 0.019 19.3633 0.036 19.6348 C0.537 18.1739 2.282 13.8995 6.52 10.3125 L6.59 10.2559 L6.659 10.2998 C6.678 10.3125 6.699 10.3272 6.699 10.4375 C6.699 10.8145 6.435 12.3497 4.907 18.8848 C5.978 18.1983 10.712 14.8887 10.712 10.7481 Z" transform="translate(100.43, 19.5273)"/>
   <path style="fill:#000000; fill-rule:nonzero;stroke:none;" d="M12.537 16.5215 C12.537 14.4404 11.971 12.7724 11.711 12.1103 C11.523 12.8476 10.894 14.6807 8.94 16.5019 L8.938 16.5058 C8.938 16.5058 8.937 16.5098 8.933 16.5098 L8.776 16.3535 C8.791 16.334 9.979 14.9785 9.979 11.3877 C9.979 10.3506 9.881 9.1377 9.631 7.7217 C9.538 7.1836 9.492 6.6543 9.492 6.1387 C9.492 3.2969 10.758 0.9629 11.363 0 C10.127 0.8994 6.755 3.7724 5.35 9.0557 C4.298 12.9766 4.034 14.6289 3.84 15.8271 C3.705 16.6553 3.609 17.2519 3.321 18.2246 C2.647 20.5019 1.194 24.5957 0 26.5312 C0.85 26.0332 3.141 24.4473 4.881 20.9619 L5.033 20.6582 L5.09 20.9961 C5.092 21.0127 5.217 21.8486 5.217 23.0928 C5.217 24.6504 4.99 26.8564 4.086 28.873 C5.629 27.6455 12.537 21.8369 12.537 16.5215 Z" transform="translate(108.741, 13.0547)"/>
   <path style="fill:#000000; fill-rule:nonzero;stroke:none;" d="M13.253 6.7822 C9.371 3.8974 5.146 5.2363 5.102 5.2558 L4.753 5.3691 L4.98 5.0791 C6.954 2.5986 9.473 1.0791 10.284 0.623 C9.057 0.4463 4.208 0 1.806 3.4492 C0.256 5.6758 0 9.0517 0 11.0293 C0 11.5791 0.02 11.999 0.04 12.2812 C2.414 8.1601 2.684 8.168 2.768 8.1836 L2.867 8.2226 L2.88 8.3017 C2.973 8.7373 3.008 9.2871 3.008 9.8867 C3.008 11.7519 2.662 14.1035 2.474 15.2412 C6.67 7.206 11.845 6.7431 13.253 6.7822 Z" transform="translate(120.289, 11.3008)"/>
   <path style="fill:#000000; fill-rule:nonzero;stroke:none;" d="M12.9427 22.098 C11.7927 23.697 11.6427 23.747 11.2437 23.747 C10.8437 23.747 10.8437 21.998 11.0937 21.098 C11.3427 20.2 11.9927 19.249 12.8427 19.301 C13.5397 19.341 14.0907 20.498 12.9427 22.098 Z M6.4014 32.707 L6.837 13.289 C7.2139 13.851 7.5177 14.334 7.6467 14.604 C8.1187 15.593 8.4447 16.901 8.4447 16.901 C8.4447 16.901 9.0947 17.553 9.2437 18.501 C9.3937 19.449 9.8427 22.649 9.9937 23.396 C10.1437 24.147 10.1437 24.747 10.5927 24.747 C13.1917 24.747 14.6397 20.45 14.0907 19.1 C13.5417 17.751 12.0917 16.103 12.0917 16.103 C12.0917 16.103 10.6937 11.656 10.4447 11.107 C10.1947 10.558 9.1957 10.058 8.8957 9.858 C8.7447 9.758 7.8307 8.856 6.9551 7.981 L7.0772 2.539 C6.7413 2.58 6.4522 2.539 6.2188 2.539 C2.2666 2.539 0.0909 0.092 0 0 L0.9571 32.699 L6.4014 32.707 Z" transform="translate(92.5273, 128.409)"/>
   <path style="fill:#000000; fill-rule:nonzero;stroke:none;" d="M71.6559 50.5489 C75.4129 50.5489 80.8919 52.4268 80.8919 52.4268 C80.8919 52.4268 73.8999 53.3145 71.6559 53.3145 C69.4119 53.3145 65.6559 52.7413 65.6559 52.7413 C65.6559 52.7413 68.7339 50.5489 71.6559 50.5489 Z M49.4279 54.0457 C49.4279 54.0457 53.7059 55.0377 55.6369 56.3417 C59.7379 59.1137 62.2639 64.4287 62.2639 64.4287 C62.2639 64.4287 58.0889 62.1867 55.0629 59.8897 C52.0359 57.5947 49.4279 54.2017 49.4279 54.2017 L49.4279 54.0457 Z M24.6417 60.3077 C24.6417 60.3077 22.8682 57.2807 21.9815 54.0457 C21.2872 51.5147 20.2598 45.3858 20.2598 45.3858 C20.2598 45.3858 24.2999 51.2198 25.0079 53.1582 C26.2071 56.4467 24.6417 60.3077 24.6417 60.3077 Z M31.0069 68.8667 C33.3594 66.5727 40.5569 64.3257 40.5569 64.3257 C40.5569 64.3257 34.8165 69.2317 32.5215 71.2667 C30.2256 73.3007 27.3038 76.7967 27.3038 76.7967 C27.3038 76.7967 26.8331 72.9357 31.0069 68.8667 Z M37.4919 77.1767 C39.7719 76.9437 46.0579 78.3547 46.0579 78.3547 C46.0579 78.3547 39.4569 79.9267 36.0792 80.1617 C32.7002 80.3967 29.754 80.0827 29.754 80.0827 C29.754 80.0827 31.3262 77.8047 37.4919 77.1767 Z M9.2081 88.3717 C9.2081 88.3717 10.0157 82.0267 11.8018 79.8077 C14.3946 76.5867 17.1836 76.0757 17.1836 76.0757 L9.2081 88.3717 Z M10.2403 69.5967 C7.8418 68.7617 4.3448 66.4127 4.3448 66.4127 C4.3448 66.4127 10.711 65.6807 13.0596 66.8307 C17.1241 68.8177 17.7022 71.8387 17.7022 71.8387 C17.7022 71.8387 12.6407 70.4317 10.2403 69.5967 Z M42.4879 40.6885 C42.4879 40.6885 40.6099 38.1309 40.5579 33.9561 C40.5049 29.7823 42.9579 25.294 42.9579 25.294 C42.9579 25.294 42.8539 30.2002 43.0089 32.9649 C43.1659 35.7305 42.4879 40.6885 42.4879 40.6885 Z M51.5669 24.6163 C53.4449 21.6944 60.2799 18.1475 60.2799 18.1475 C60.2799 18.1475 56.4719 21.9551 53.8109 25.086 C51.1499 28.2168 49.3749 30.3565 49.3749 30.3565 L49.3229 30.461 C49.3229 30.461 49.6889 27.5391 51.5669 24.6163 Z M59.4459 29 C61.6379 28.2686 68.4199 28.0079 68.4199 28.0079 C68.4199 28.0079 62.5249 30.0948 60.1249 30.878 C57.7249 31.6602 53.4979 32.2872 53.4979 32.2872 C53.4979 32.2872 56.2029 30.0801 59.4459 29 Z M51.1499 39.1739 C53.3509 37.6739 60.0189 35.2081 60.0189 35.2081 C60.0189 35.2081 54.9059 39.7481 52.3499 41.5743 C49.7929 43.4014 46.7139 44.8623 46.7139 44.8623 C46.7139 44.8623 47.7049 41.5225 51.1499 39.1739 Z M64.2459 41.6788 C66.6989 37.6612 71.4999 35.2627 71.4999 35.2627 C71.4999 35.2627 68.5259 40.2715 66.8549 42.5665 C65.1859 44.8623 62.7849 47.6807 62.7849 47.6807 C62.7849 47.6807 61.7949 45.6963 64.2459 41.6788 Z M78.2319 28.8956 C80.7359 24.668 86.6319 22.3204 86.6319 22.3204 C86.6319 22.3204 82.3529 28.0079 80.9959 29.834 C79.6399 31.6602 76.1449 36.8272 76.1449 36.8272 C76.1449 36.8272 75.7279 33.1211 78.2319 28.8956 Z M85.7449 36.043 C89.5019 35.1563 96.3889 35.4698 95.5549 35.6778 C94.7189 35.8877 89.7619 38.0254 86.2659 38.9649 C82.7699 39.9053 78.7009 40.1651 78.7009 40.1651 L78.6479 40.0606 C78.6479 40.0606 81.9859 36.9307 85.7449 36.043 Z M78.4609 41.2325 C79.3109 41.4834 83.0569 42.5313 84.9549 42.4307 C89.8999 42.1709 93.5979 38.3858 94.6979 37.4844 C95.7969 36.587 98.8949 34.9873 98.8949 34.9873 C98.8949 34.9873 96.1959 34.9366 92.7999 34.6377 C89.4019 34.3379 86.0039 34.8868 83.4569 35.7373 C80.9079 36.587 79.4109 38.2344 78.9109 38.6348 C78.4119 39.0332 78.0119 39.6338 77.0129 39.8838 C76.0139 40.1329 75.1629 40.3331 75.1629 40.3331 C75.6639 38.9844 76.1129 38.334 76.5139 38.0342 C76.9119 37.7354 79.1109 36.2872 81.3599 33.8887 C83.6079 31.4903 87.0029 25.6456 87.2539 24.6954 C87.5029 23.7471 89.5509 19.1504 89.5509 19.1504 C89.5509 19.1504 87.0539 20.9493 84.3069 22.3985 C81.5589 23.8467 78.5109 26.4932 77.1619 28.8418 C75.8149 31.1895 75.3149 34.0391 75.2639 36.3379 C75.2129 38.6348 74.3149 40.5831 72.3659 42.9307 C70.8709 44.7325 67.7699 47.2774 67.1699 47.7774 C67.0079 47.9131 65.6339 48.9288 64.1229 49.3262 C63.1739 49.5762 62.0249 49.4258 62.0249 49.4258 C62.0249 49.4258 63.0739 48.0762 63.7229 47.876 C64.3719 47.6768 65.9219 47.1778 68.4199 44.9288 C70.9179 42.6817 72.4169 36.9854 72.6149 36.0372 C72.8169 35.0879 73.7159 32.1895 73.7159 32.1895 C73.7159 32.1895 71.7669 34.0879 69.4699 35.5372 C67.1709 36.9854 64.4739 39.6338 62.8239 42.3809 C61.1759 45.1299 61.9749 47.3272 61.9749 47.7256 C61.9749 48.127 61.8259 48.377 61.1769 49.0254 C60.5269 49.6748 59.5269 49.8243 58.9779 49.9756 C58.4279 50.125 56.1299 51.0245 53.7809 51.0245 C51.4339 51.0245 48.3359 49.9248 47.6369 49.876 C46.9369 49.8252 45.8379 50.4737 45.3889 50.5235 C44.9389 50.5743 44.5899 50.375 44.1399 50.375 C43.6899 50.375 42.2919 50.4248 42.2919 50.4248 C42.6409 49.7247 42.6929 48.4766 42.7399 48.127 C42.7909 47.7774 42.8919 47.2774 43.3899 47.1778 C43.8909 47.0772 45.3389 46.128 45.8379 45.878 C46.3379 45.629 46.7379 45.5782 47.2869 45.5782 C47.6869 45.5782 50.4849 45.4786 52.7829 44.0811 C56.8749 41.5899 59.1279 37.7354 59.7769 36.7852 C60.4269 35.836 63.6739 33.4385 63.6739 33.4385 C63.6739 33.4385 61.1269 34.1387 58.2279 34.9873 C55.3309 35.836 51.0839 37.836 49.5859 39.1846 C48.0869 40.5342 47.2869 41.8331 46.7379 42.7325 C46.1879 43.6319 45.6899 44.878 45.2379 45.2295 C44.7889 45.5782 43.3409 46.3282 43.3409 46.128 C43.3409 45.9288 43.8909 44.878 44.2389 44.2793 C44.5899 43.6807 45.6899 41.9327 46.3879 40.8838 C47.0879 39.8331 47.4879 38.7354 47.6869 38.1846 C47.8859 37.6348 48.3859 36.2862 48.9859 35.587 C51.1719 33.0381 52.6819 33.0391 53.8819 32.9405 C55.0809 32.8379 56.2799 33.0899 60.0759 32.6397 C63.8739 32.1905 66.7719 30.0909 67.5699 29.6416 C68.3689 29.1915 71.9159 26.5938 71.9159 26.5938 C71.9159 26.5938 68.4709 27.1934 67.3719 27.3428 C66.2729 27.4942 62.0269 27.543 59.5779 28.1426 C57.1299 28.7422 54.9819 30.2413 52.9329 31.5899 C50.8849 32.9405 48.6869 34.8379 48.6869 34.8379 C48.6869 34.8379 48.6869 33.5372 48.8359 32.9405 C48.9859 32.3399 49.1849 31.4903 50.1859 30.9415 C51.1849 30.3916 54.0319 28.6934 55.8799 26.8448 C57.7289 24.9961 60.0759 21.0997 60.3769 20.2002 C60.6769 19.3008 62.4749 15.7032 62.4749 15.7032 C62.4749 15.7032 61.6249 16.6026 58.4789 18.2012 C55.3309 19.7998 52.4829 21.9991 50.7839 24.1973 C49.0859 26.3946 48.8359 28.3438 48.7869 29.1915 C48.7359 30.0411 48.5859 31.1407 48.3859 31.5899 C48.1869 32.0381 47.9549 32.2969 47.7869 34.1387 C47.6369 35.7881 47.4379 36.1377 47.1379 36.9854 C46.8369 37.836 46.8369 38.1846 46.4879 38.7852 C46.1389 39.3838 46.1879 39.085 45.8379 39.9336 C45.4889 40.7832 43.4899 43.2803 43.4899 43.2803 C43.4899 43.2803 42.8419 42.4815 43.8399 40.3331 C45.2919 37.2139 45.8379 34.6875 45.8889 33.0391 C45.9399 31.3907 45.1899 28.1426 44.7389 26.9434 C44.2899 25.7452 42.7909 21.4991 42.7909 21.4991 C42.7909 21.4991 42.6409 23.4463 41.9419 25.4473 C41.2409 27.4434 39.6439 31.4903 39.6439 34.2881 C39.6439 37.086 41.0919 40.3331 41.7929 41.2325 C42.4919 42.1319 42.6409 42.8809 42.5419 43.9805 C42.4429 45.0791 42.0529 45.4854 41.4929 46.378 C41.1459 46.9327 41.1519 47.1875 40.7929 48.7266 C40.0949 51.7247 38.5959 52.6241 37.2959 53.6709 C37.1419 53.7959 36.9469 53.9356 36.7309 54.0807 L37.4349 26.6709 C37.7459 22.5274 38.1519 14.1827 41.9459 8.6915 C42.4219 8.001 42.6799 7.6631 42.6799 7.6631 C45.1499 4.2237 48.8729 2.5909 52.0769 2.2706 L52.0769 0.0274 C52.0769 0.0274 34.8575 0 31.5079 0 L31.4493 0 C28.1182 0 12.6055 0.0274 12.6055 0.0274 L12.6055 2.2706 C15.8096 2.5909 19.5342 4.2237 22.004 7.6631 C24.9473 11.7588 26.7637 14.17 27.2901 27.1504 L28.2452 58.4807 C26.0274 59.7207 25.6563 62.4147 25.6563 62.4147 C25.2559 61.7157 25.1055 60.8667 25.4063 60.3657 C25.7061 59.8667 26.7549 57.0697 26.2549 54.3717 C25.7559 51.6748 22.7579 47.1778 21.8096 46.0772 C20.8594 44.9786 19.1114 42.2823 19.1114 42.2823 C19.1114 42.2823 19.1612 44.7803 19.0108 46.7784 C18.8614 48.7764 18.1622 51.5733 19.3614 55.0697 C20.5596 58.5677 23.1075 60.2667 23.5567 60.6157 C24.0069 60.9657 24.5059 61.5657 24.7061 62.6147 C24.9083 63.6637 24.7559 63.9127 24.6055 64.6627 C24.4571 65.4117 24.6563 65.8127 24.3555 66.8607 C24.1475 67.5927 23.5567 68.0087 23.4571 68.6597 C23.2286 70.1437 22.8575 71.1577 22.7081 71.7077 C22.5586 72.2557 22.2081 72.3567 21.7579 73.1067 C21.3086 73.8547 21.4083 74.3547 21.4083 74.3547 C21.4083 74.3547 19.1114 72.4067 18.8116 71.7077 C16.9151 67.2867 13.8653 66.3117 11.9161 65.8607 C9.9688 65.4117 6.9209 65.5637 5.4219 65.7127 C3.9708 65.8567 0.2354 65.1137 0 65.0667 C0.2071 65.1107 1.8711 65.5217 3.9727 67.8107 C6.2217 70.2577 8.8692 72.0077 10.918 72.8067 C12.9659 73.6047 15.4141 72.9557 16.1641 72.7547 C16.9122 72.5577 17.462 72.2547 18.1114 72.5057 C18.7618 72.7547 19.5108 73.7547 19.5108 73.7547 C19.5108 73.7547 18.3614 74.4047 17.5118 74.8037 C14.4854 76.2277 12.1543 77.3817 10.3682 80.3487 C9.6036 81.6207 8.5694 86.0937 8.42 87.1437 C8.2686 88.1947 7.3702 90.9907 7.3702 90.9907 C7.3702 90.9907 9.0684 89.5417 10.4678 88.5927 C11.8672 87.6437 13.9151 86.4927 16.1641 83.6477 C18.4112 80.7987 18.711 76.4037 18.8106 75.5047 C18.9102 74.6057 19.5606 74.3547 19.8106 74.3547 C20.0596 74.3547 20.9092 74.9537 20.8594 75.7027 C20.8086 76.4537 21.209 77.2537 21.5079 77.7027 C21.8077 78.1517 22.5088 78.7507 23.1075 79.5997 C23.7081 80.4497 24.1563 82.3467 24.5557 83.1477 C24.9561 83.9457 25.1553 83.8467 25.7559 84.9457 C26.3545 86.0437 26.2549 86.6447 26.7549 87.4927 C27.253 88.3417 27.504 88.2437 27.504 88.2437 L27.2042 82.9477 C27.2042 82.9477 27.004 82.8467 26.8038 82.5977 C26.6036 82.3467 26.3047 81.6987 26.3047 81.6987 C26.3047 81.6987 27.2042 81.0997 27.8038 80.7987 C28.4024 80.4987 28.753 80.6507 29.1514 80.8997 C29.5518 81.1497 32.3995 83.4487 35.4971 83.4487 C38.5939 83.4487 44.9389 80.0497 46.0879 79.4517 C47.2369 78.8517 50.2349 78.0017 50.2349 78.0017 C50.2349 78.0017 47.2369 77.7027 45.6379 77.3527 C44.0399 77.0027 39.3949 76.1047 38.2949 76.1047 C37.1949 76.1047 36.2471 76.3537 36.2471 76.3537 L36.379 74.7477 C36.379 74.7477 35.0547 75.8657 34.6055 76.2157 C34.1563 76.5647 33.0167 77.1927 31.3008 77.8527 C30.0694 78.3247 28.9024 78.5517 28.9024 78.5517 C28.9024 78.5517 28.7032 78.3517 28.5528 79.1027 C28.4024 79.8507 28.3028 79.7507 27.4532 79.9497 C26.6036 80.1497 25.8545 80.4987 25.8545 80.4987 C25.8545 80.4987 26.5547 78.7017 26.6534 78.4017 C26.7549 78.1017 26.9043 77.8027 27.9532 77.6017 C29.002 77.4027 32.0489 76.7037 35.0977 73.9547 C38.1449 71.2067 39.7099 67.6957 40.2429 66.5107 C41.1099 64.5857 43.7899 62.1157 43.7899 62.1157 C43.7899 62.1157 41.4919 63.0147 37.1459 64.5117 C36.9389 64.5827 36.7399 64.6577 36.5399 64.7317 L36.6949 58.9927 L36.6859 58.9957 L36.6939 58.5807 C36.5759 58.6337 36.4749 58.6807 36.3965 58.7177 C35.7471 59.0167 33.8487 59.5657 33.0997 59.9157 C32.3497 60.2657 31.75 61.0647 31.1504 61.3637 C30.793 61.5427 29.4864 61.9497 28.3262 63.1087 L28.377 64.0467 L28.375 64.0497 L28.5674 70.1557 C26.9043 72.3307 26.8028 74.0637 26.6036 75.2057 C26.4043 76.3537 26.2549 76.9037 26.1055 77.5027 C25.9551 78.1017 25.3555 79.5017 25.3555 79.5017 C25.3555 79.5017 24.5059 77.8527 23.6573 76.9527 C22.8067 76.0537 23.1065 75.3037 23.2071 74.6057 C23.3067 73.9057 23.7071 73.1557 24.1563 72.0077 C24.6055 70.8587 25.2051 68.6597 25.5557 67.9597 C25.9053 67.2607 25.7549 68.6097 26.504 64.5117 C27.253 60.4167 30.5508 59.4677 31.1504 59.1687 C31.75 58.8677 32.3497 58.0687 33.0997 57.7177 C33.8487 57.3677 35.7471 56.8197 36.3965 56.5207 C37.0459 56.2197 39.1649 55.3327 40.1439 54.0207 C41.1209 52.712 41.6919 52.3223 42.3419 51.9727 C42.9899 51.6231 44.0389 51.5733 45.6879 51.4747 C47.3369 51.3741 47.6869 52.6719 48.0369 53.1221 C48.3859 53.5723 48.3859 54.0207 48.4359 54.6207 C48.4859 55.2207 48.0369 58.3187 51.3839 61.2167 C54.7309 64.1127 58.8279 64.3637 60.3269 64.7627 C61.8249 65.1627 65.5719 66.7117 65.5719 66.7117 C65.5719 66.7117 64.9229 66.4617 62.3749 62.5147 C59.8259 58.5677 57.3789 56.2197 55.8399 55.3327 C54.3029 54.4447 51.4839 53.8213 50.8339 53.6709 C50.1859 53.5225 49.5859 53.3223 49.1849 52.9737 C48.7849 52.6241 47.9369 51.3741 47.9369 51.3741 C47.9369 51.3741 48.2859 51.3243 48.5859 51.3741 C48.8859 51.4248 50.2349 52.3233 53.5819 52.3233 C56.9299 52.3233 58.7269 51.1739 59.3769 50.9239 C60.0279 50.6739 60.6759 50.7247 61.3249 51.1241 C61.9749 51.5225 62.7749 52.0713 64.3719 53.0733 C65.9709 54.0737 68.8679 55.6197 71.8169 55.6197 C74.7649 55.6197 79.8609 54.2217 81.2089 53.5723 C82.5589 52.9219 85.1059 52.3741 85.1059 52.3741 C85.1059 52.3741 82.6089 51.9229 81.2089 51.6231 C79.8109 51.3243 75.2639 49.626 72.0659 49.626 C68.8679 49.626 66.5709 51.1241 66.2719 51.3243 C65.9709 51.5225 65.5719 52.1241 64.2239 51.7237 C62.8729 51.3243 62.6739 50.375 62.6739 50.375 C66.4709 49.8252 66.8199 49.2256 68.3189 48.2764 C69.8189 47.3272 71.0679 45.5293 72.0169 44.6299 C72.6579 44.0206 73.1879 43.251 74.5649 41.9815 C76.4629 40.2334 78.4609 41.2325 78.4609 41.2325 Z" transform="translate(63.5771, 46.0273)"/>
   <path style="fill:#000000; fill-rule:nonzero;stroke:none;" d="M1.362 0.3447 C1.362 0.3447 0 0.9082 0 2.9483 C0 4.9834 1.815 4.416 1.815 4.416 C1.815 4.416 3.398 4.0762 3.398 2.044 C3.398 0 1.362 0.3447 1.362 0.3447 Z" transform="translate(123.081, 68.4912)"/>
   <path style="fill:#000000; fill-rule:nonzero;stroke:none;" d="M1.359 0.3418 C1.359 0.3418 0 0.9033 0 2.9394 C0 4.9746 1.809 4.4101 1.809 4.4101 C1.809 4.4101 3.396 4.0713 3.396 2.0361 C3.396 0 1.359 0.3418 1.359 0.3418 Z" transform="translate(147.824, 75.9844)"/>
   <path style="fill:#000000; fill-rule:nonzero;stroke:none;" d="M1.356 0.335 C1.356 0.335 0 0.903 0 2.944 C0 4.974 1.807 4.406 1.807 4.406 C1.807 4.406 3.393 4.07 3.393 2.036 C3.393 0 1.356 0.335 1.356 0.335 Z" transform="translate(105.938, 99.5)"/>
   <path style="fill:#000000; fill-rule:nonzero;stroke:none;" d="M0.623 2.0606 C0 3.9971 1.9 4.0127 1.9 4.0127 C1.9 4.0127 3.508 4.1738 4.13 2.2373 C4.756 0.2949 2.71 0 2.71 0 C2.71 0 1.248 0.1211 0.623 2.0606 Z" transform="translate(135.953, 89.9121)"/>
   <path style="fill:#000000; fill-rule:nonzero;stroke:none;" d="M1.357 0.3398 C1.357 0.3398 0 0.9064 0 2.9474 C0 4.9844 1.808 4.4144 1.808 4.4144 C1.808 4.4144 3.394 4.0754 3.394 2.0394 C3.394 0 1.357 0.3398 1.357 0.3398 Z" transform="translate(122.628, 99.4756)"/>
   <path style="fill:#000000; fill-rule:nonzero;stroke:none;" d="M1.357 0.343 C1.357 0.343 0 0.903 0 2.938 C0 4.979 1.81 4.415 1.81 4.415 C1.81 4.415 3.393 4.071 3.393 2.036 C3.393 0 1.357 0.343 1.357 0.343 Z" transform="translate(102.719, 116.557)"/>
   <path style="fill:#000000; fill-rule:nonzero;stroke:none;" d="M1.8096 4.415 C1.8096 4.415 3.3926 4.072 3.3926 2.035 C3.3926 0 1.3555 0.339 1.3555 0.339 C1.3555 0.339 0 0.904 0 2.943 C0 4.98 1.8096 4.415 1.8096 4.415 Z" transform="translate(71.1924, 119.726)"/>
   <path style="fill:#000000; fill-rule:nonzero;stroke:none;" d="M0 0 C0.6016 0.821285 2.7793 4.09765 2.7793 8.06054 C2.7793 9.15821 2.6524 10.9141 2.6524 10.9141 C2.6524 10.9141 2.5518 12.627 1.7061 15.958 C2.9043 14.1533 4.6133 11.3018 5.209 8.91602 L5.2754 8.64062 L5.4102 8.88672 C5.4522 8.96191 6.3184 10.5869 6.457 12.2949 C6.793 11.5215 7.4981 9.66015 7.4981 7.61523 C7.4981 4.24023 4.0625 0.157227 0 0 Z" transform="translate(82.3994, 0.265625)"/>
   <path style="fill:#000000; fill-rule:nonzero;stroke:none;" d="M12.668 3.75682 L12.6621 3.76072 C12.6045 2.69332 12.4766 1.43362 12.2217 0 C11.8711 1.08792 10.4678 3.75192 4.9023 9.00392 C1.7207 11.9951 0 14.2597 0 17.6435 C0 24.2178 5.874 29.4355 7.3066 30.6133 C6.8262 29.3535 5.3359 25.0273 5.3359 19.9404 C5.3359 17.6875 6.6504 16.376 7.9248 15.1045 L8.2324 14.7939 C9.1123 13.9199 10.4687 12.5742 11.3486 11.2597 L11.3506 11.2646 C11.3506 11.2646 12.0205 10.3555 12.4355 8.86912 C12.4941 8.62502 12.5683 8.22562 12.6269 7.64842 L12.6299 7.65722 C12.7051 7.03222 12.7676 5.30662 12.668 3.75682 Z" transform="translate(70.6338, 8.92578)"/>
   <path style="fill:#000000; fill-rule:nonzero;stroke:none;" d="M19.6396 0.96 C18.6797 0.96 17.9599 1.7392 17.9599 2.6592 C17.9599 3.0596 18.1396 3.46 18.4394 3.7598 C18.2392 3.6992 18.04 3.6592 17.8398 3.6592 C16.6592 3.6592 15.7197 4.6201 15.7197 5.7793 C15.7197 6.96 16.6592 7.8994 17.8398 7.8994 C18.04 7.8994 18.2197 7.8594 18.3994 7.8193 C17.9394 9.3799 16.4795 10.3799 14.8799 10.3799 C11.7597 10.3799 10.5195 7.0195 10.3994 6.2197 C10.6396 7.0801 11.4394 7.7392 12.3994 7.7392 C13.5595 7.7392 14.5 6.7998 14.5 5.6396 C14.5 4.4795 13.5595 3.54 12.3994 3.54 C12.1797 3.54 11.9795 3.5996 11.7793 3.6592 C12.2197 3.2598 12.5 2.7197 12.5 2.0801 C12.5 0.9199 11.5595 0 10.3994 0 C9.2392 0 8.2998 0.9199 8.2998 2.0801 C8.2998 2.7197 8.5996 3.2793 9.04 3.6797 C8.8193 3.5996 8.5996 3.54 8.3594 3.54 C7.1992 3.54 6.2597 4.4795 6.2597 5.6396 C6.2597 6.7998 7.1992 7.7392 8.3594 7.7392 C9.3193 7.7392 10.1201 7.0801 10.3594 6.2197 C10.2392 7.1797 8.4795 10.3799 5.8594 10.3799 C4.1201 10.3799 2.7197 9.3193 2.3193 7.8193 C2.5 7.8594 2.6797 7.8994 2.8799 7.8994 C4.04 7.8994 5 6.96 5 5.7793 C5 4.6201 4.04 3.6592 2.8799 3.6592 C2.6592 3.6592 2.4599 3.6992 2.2793 3.7598 C2.5791 3.46 2.7597 3.0596 2.7597 2.6592 C2.7597 1.7392 2.04 0.96 1.0595 0.96 C0.2392 0.96 0 1.1592 0 1.1592 C0.4394 2.8994 0.9599 6.3799 1.04 6.8594 L2.5 16.3799 L18.2197 16.3799 C18.2197 16.3799 18.2392 16.2197 18.2597 16.0996 L19.6797 6.8594 C20 4.6992 20.3769 2.4248 20.6992 1.1592 C20.6992 1.1592 20.4599 0.96 19.6396 0.96 Z" transform="translate(32.8594, 70.8838)"/>
   <path style="fill:#000000; fill-rule:nonzero;stroke:none;" d="M19.6396 0.96 C18.6797 0.96 17.96 1.7392 17.96 2.6592 C17.96 3.0596 18.1396 3.46 18.4394 3.7598 C18.2393 3.6992 18.0391 3.6592 17.8398 3.6592 C16.6592 3.6592 15.7197 4.6201 15.7197 5.7793 C15.7197 6.96 16.6592 7.8994 17.8398 7.8994 C18.0391 7.8994 18.2197 7.8594 18.3994 7.8193 C17.9394 9.3799 16.4795 10.3799 14.8799 10.3799 C11.7598 10.3799 10.5195 7.0195 10.3994 6.2197 C10.6396 7.0801 11.4394 7.7392 12.3994 7.7392 C13.5596 7.7392 14.5 6.7998 14.5 5.6396 C14.5 4.4795 13.5596 3.54 12.3994 3.54 C12.1797 3.54 11.9795 3.5996 11.7793 3.6592 C12.2197 3.2598 12.5 2.7197 12.5 2.0801 C12.5 0.9199 11.5596 0 10.3994 0 C9.2393 0 8.2998 0.9199 8.2998 2.0801 C8.2998 2.7197 8.5996 3.2793 9.0391 3.6797 C8.8193 3.5996 8.5996 3.54 8.3594 3.54 C7.1992 3.54 6.2598 4.4795 6.2598 5.6396 C6.2598 6.7998 7.1992 7.7392 8.3594 7.7392 C9.3193 7.7392 10.1191 7.0801 10.3594 6.2197 C10.2393 7.1797 8.4795 10.3799 5.8594 10.3799 C4.1191 10.3799 2.7197 9.3193 2.3193 7.8193 C2.5 7.8594 2.6797 7.8994 2.8799 7.8994 C4.0391 7.8994 5 6.96 5 5.7793 C5 4.6201 4.0391 3.6592 2.8799 3.6592 C2.6592 3.6592 2.46 3.6992 2.2793 3.7598 C2.5801 3.46 2.7598 3.0596 2.7598 2.6592 C2.7598 1.7392 2.0391 0.96 1.0596 0.96 C0.2393 0.96 0 1.1592 0 1.1592 C0.4394 2.8994 0.96 6.3799 1.0391 6.8594 L2.5 16.3799 L18.2197 16.3799 C18.2197 16.3799 18.2393 16.2197 18.2598 16.0996 L19.6797 6.8594 C20 4.6992 20.4209 2.293 20.6992 1.1592 C20.6992 1.1592 20.46 0.96 19.6396 0.96 Z" transform="translate(62.5752, 70.8838)"/>
   <path style="fill:#000000; fill-rule:nonzero;stroke:none;" d="M21.6592 1.0586 C20.6006 1.0586 19.8067 1.919 19.8067 2.9336 C19.8067 3.374 20.0049 3.8154 20.3359 4.1465 C20.1152 4.0801 19.8945 4.0361 19.6738 4.0361 C18.3731 4.0361 17.3359 5.0947 17.3359 6.374 C17.3359 7.6748 18.3731 8.7119 19.6738 8.7119 C19.8945 8.7119 20.0928 8.668 20.292 8.624 C19.7842 10.3442 18.1738 11.4472 16.4102 11.4472 C12.9688 11.4472 11.6016 7.7412 11.4688 6.8594 C11.7334 7.8076 12.6162 8.5352 13.6748 8.5352 C14.9541 8.5352 15.9902 7.499 15.9902 6.2197 C15.9902 4.9404 14.9541 3.9033 13.6748 3.9033 C13.4326 3.9033 13.2119 3.9697 12.9912 4.0361 C13.4766 3.5947 13.7852 3 13.7852 2.294 C13.7852 1.0147 12.7481 0 11.4688 0 C10.1895 0 9.1533 1.0147 9.1533 2.294 C9.1533 3 9.4844 3.6172 9.9697 4.0586 C9.7266 3.9697 9.4844 3.9033 9.2197 3.9033 C7.9404 3.9033 6.9033 4.9404 6.9033 6.2197 C6.9033 7.499 7.9404 8.5352 9.2197 8.5352 C10.2783 8.5352 11.1602 7.8076 11.4248 6.8594 C11.293 7.918 9.3516 11.4472 6.4629 11.4472 C4.544 11.4472 3 10.2782 2.5586 8.624 C2.7568 8.668 2.9561 8.7119 3.1758 8.7119 C4.4551 8.7119 5.5137 7.6748 5.5137 6.374 C5.5137 5.0947 4.4551 4.0361 3.1758 4.0361 C2.9336 4.0361 2.7129 4.0801 2.5147 4.1465 C2.8457 3.8154 3.044 3.374 3.044 2.9336 C3.044 1.919 2.25 1.0586 1.169 1.0586 C0.2647 1.0586 0 1.2793 0 1.2793 C0.4854 3.1982 1.0586 7.0361 1.1465 7.5654 L2.7568 18.0642 L20.0928 18.0642 C20.0928 18.0642 20.1152 17.8872 20.1367 17.7552 L21.7031 7.5654 C22.0557 5.1826 22.5049 2.5147 22.8281 1.2793 C22.8281 1.2793 22.5635 1.0586 21.6592 1.0586 Z" transform="translate(46.8662, 89.7998)"/>
  </g>
 </g>
</svg>