<?xml version="1.0" encoding="UTF-8"?>
<svg xmlns="http://www.w3.org/2000/svg" xmlns:xlink="http://www.w3.org/1999/xlink" width="775pt" version="1.1" height="185pt" viewBox="0 0 775 185">
 <defs>
  <clipPath id="Clip0">
   <path d="M0 0 L0 184.711 L774.388 184.711 L774.388 0 L0 0 Z" transform="translate(0, 0.289063)"/>
  </clipPath>
  <clipPath id="Clip1">
   <path d="M0 184.711 L774.388 184.711 L774.388 0 L0 0 L0 184.711 Z" transform="translate(0, 0.289063)"/>
  </clipPath>
 </defs>
 <g id="Background">
  <g id="Group1" clip-path="url(#Clip0)">
   <g id="Group2" clip-path="url(#Clip1)">
    <path style="fill:#000000; fill-rule:nonzero;stroke:none;" d="M13.8 48.2031 C13.8 53.7051 14.184 54.6367 19.473 55.0234 L19.473 56.5732 C15.563 56.2637 12.344 56.0303 9.814 56.0303 C7.284 56.0303 4.064 56.2637 0 56.5732 L0 55.0234 C5.367 54.79 5.673 53.4736 5.673 47.2744 C5.673 46.3438 5.673 45.3359 5.673 44.1738 L5.673 12.4795 C5.673 11.2383 5.673 10.1533 5.673 9.1455 C5.673 3.4111 5.367 2.0166 0.69 1.6289 L0.69 0 C4.984 0.3115 7.975 0.543 9.814 0.543 C11.731 0.543 14.722 0.3115 18.784 0 L18.784 1.6289 C14.184 2.0166 13.8 3.4111 13.8 8.8359 C13.8 9.9199 13.8 11.083 13.8 12.4795 L13.8 27.2031 L29.287 9.0684 C30.973 7.0547 31.817 5.5811 31.817 4.419 C31.817 2.4815 30.207 1.9385 26.681 1.6289 L26.681 0 C30.668 0.3115 33.427 0.543 35.19 0.543 C37.031 0.543 39.789 0.3115 43.623 0 L43.623 1.6289 C38.41 2.4043 35.65 4.6514 32.507 8.294 L19.014 23.7139 L36.724 46.0342 C40.94 51.3809 43.852 54.6367 47.61 55.0234 L47.61 56.5732 C43.47 56.2637 40.02 56.0303 37.26 56.0303 C34.499 56.0303 31.051 56.2637 26.834 56.5732 L26.834 55.0234 C29.516 54.79 30.743 54.0928 30.743 52.6201 C30.743 51.7686 29.977 50.1406 28.367 48.0488 L13.8 29.2158 L13.8 44.1738 C13.8 44.8711 13.8 46.1875 13.8 48.2031 " transform="translate(211.195, 27.5039)"/>
    <path style="fill:#000000; fill-rule:nonzero;stroke:none;" d="M24.303 7.1289 C24.303 3.4864 23.996 2.6348 20.623 2.6348 L20.623 1.2393 C23.843 1.0069 26.985 0.6202 29.976 0 L29.976 25.418 C29.976 30.5342 30.283 32.084 34.806 32.3155 L34.806 33.711 C31.433 33.711 28.212 33.9434 24.84 34.3301 L24.227 26.6592 C21.466 32.2373 17.71 34.9502 12.803 34.9502 C5.75 34.9502 3.68 30.5342 3.68 21.7754 L3.68 7.1289 C3.68 3.4864 3.373 2.6348 0 2.6348 L0 1.2393 C3.22 1.0069 6.364 0.6202 9.354 0 L9.354 25.2637 C9.354 30.7657 10.12 33.5547 14.029 33.5547 C18.399 33.5547 24.303 27.9756 24.303 20.6133 L24.303 7.1289 " transform="translate(258.574, 50.0566)"/>
    <path style="fill:#000000; fill-rule:nonzero;stroke:none;" d="M9.584 25.7286 C9.584 26.503 9.584 27.1241 9.584 27.7422 C9.584 31.6954 9.814 32.3155 13.494 32.626 L13.494 34.0205 C10.657 33.8643 8.434 33.711 6.747 33.711 C4.829 33.711 2.607 33.8643 0 34.0205 L0 32.626 C3.758 32.2373 3.91 31.6954 3.91 27.3555 C3.91 26.8135 3.91 26.2705 3.91 25.7286 L3.91 7.1289 C3.91 3.4864 3.603 2.6348 0.229 2.6348 L0.229 1.2393 C3.374 1.0069 6.516 0.6202 9.659 0 L9.659 8.2911 C12.421 2.712 16.176 0 21.083 0 C28.135 0 30.207 4.3399 30.207 13.1729 L30.207 25.7286 C30.207 26.503 30.207 27.1241 30.207 27.7422 C30.207 31.6954 30.437 32.3155 34.117 32.626 L34.117 34.0205 C31.278 33.8643 29.056 33.711 27.371 33.711 C25.452 33.711 23.23 33.8643 20.623 34.0205 L20.623 32.626 C24.38 32.2373 24.532 31.6954 24.532 27.3555 C24.532 26.8135 24.532 26.2705 24.532 25.7286 L24.532 9.6875 C24.532 4.1856 23.767 1.3946 19.856 1.3946 C15.487 1.3946 9.584 6.8965 9.584 14.3379 L9.584 25.7286 " transform="translate(296.138, 50.0566)"/>
    <path style="fill:#000000; fill-rule:nonzero;stroke:none;" d="M1.533 12.3975 C1.533 5.4239 6.67 0.3086 13.032 0.3086 C16.023 0.3086 18.399 1.2383 20.854 3.3301 C23.229 1.2383 25.147 0 27.521 0 C30.513 0 32.123 1.4698 32.123 4.0293 C32.123 5.4239 31.203 6.3536 29.746 6.3536 C26.449 6.3536 27.982 1.8575 25.605 1.8575 C24.455 1.8575 23.076 2.6348 21.618 4.1836 C23.612 6.1211 24.763 9.2217 24.763 12.1651 C24.763 19.6055 20.087 23.8663 10.963 23.8663 C9.044 23.8663 7.205 25.5723 7.205 27.8184 C7.205 31.3858 10.119 31.3077 17.019 31.7715 C25.836 32.3135 30.971 33.4756 30.971 42.1563 C30.971 51.068 24.763 56.648 14.796 56.648 C5.826 56.648 0 51.533 0 45.4893 C0 40.5284 2.835 37.5069 7.053 37.5069 C8.432 37.5069 9.736 37.8165 11.193 38.5127 L11.193 38.9786 C10.963 38.9786 10.732 38.9786 10.502 38.9786 C6.363 38.9786 3.91 41.6915 3.91 46.1856 C3.91 51.765 7.82 55.176 14.796 55.176 C22.31 55.176 27.215 50.991 27.215 45.2559 C27.215 38.8243 23.076 38.2032 14.796 37.5069 C8.279 36.9639 4.677 35.7247 4.677 30.2217 C4.677 27.2774 5.98 25.2618 8.661 23.2471 C4.293 21.543 1.533 17.3575 1.533 12.3975 Z M19.318 11.9327 C19.318 4.959 17.479 1.5479 13.109 1.5479 C8.739 1.5479 6.977 4.959 6.977 11.9327 C6.977 18.9073 8.816 22.3174 13.109 22.3174 C17.402 22.3174 19.318 18.9073 19.318 11.9327 Z" transform="translate(331.25, 49.748)"/>
    <path style="fill:#000000; fill-rule:nonzero;stroke:none;" d="M10.35 51.1485 C10.35 55.876 10.504 56.2617 15.026 56.6504 L15.026 58.0449 C12.19 57.8887 9.814 57.7354 7.975 57.7354 C5.673 57.7354 2.992 57.8887 0 58.0449 L0 56.6504 C4.524 56.2617 4.677 55.876 4.677 51.1485 C4.677 50.7608 4.677 50.2949 4.677 49.753 L4.677 7.1309 C4.677 3.333 4.37 2.5586 0.614 2.5586 C0.461 2.5586 0.229 2.5586 0 2.5586 L0 1.2412 C3.528 1.085 7.13 0.6973 10.809 0 C10.504 6.8975 10.35 11.3145 10.35 13.4073 L10.35 49.753 C10.35 50.2949 10.35 50.7608 10.35 51.1485 " transform="translate(364.904, 26.0322)"/>
    <path style="fill:#000000; fill-rule:nonzero;stroke:none;" d="M4.448 0 C6.901 0 8.896 2.0147 8.896 4.4961 C8.896 7.0518 6.747 8.9903 4.448 8.9903 C2.149 8.9903 0 6.8965 0 4.4961 C0 2.0918 1.996 0 4.448 0 " transform="translate(385.985, 76.0947)"/>
    <path style="fill:#000000; fill-rule:nonzero;stroke:none;" d="M37.105 13.639 C38.332 10.461 39.252 7.75 39.252 5.27 C39.252 2.868 37.719 1.937 34.345 1.628 L34.345 0 C36.646 0.31 38.945 0.542 41.245 0.542 C43.468 0.542 45.538 0.31 47.685 0 L47.685 1.628 C42.779 2.248 41.782 6.199 39.099 13.251 L22.693 56.959 L22.309 56.959 L6.057 8.524 C4.599 4.108 3.527 1.86 0 1.628 L0 0 C3.987 0.31 6.824 0.542 8.663 0.542 C10.35 0.542 13.186 0.31 17.173 0 L17.173 1.628 C14.337 2.093 13.493 2.402 13.493 4.261 C13.493 5.192 13.646 6.199 13.954 7.13 L25.988 43.474 L37.105 13.639 " transform="translate(206.903, 104.689)"/>
    <path style="fill:#000000; fill-rule:nonzero;stroke:none;" d="M9.582 27.743 C9.582 31.695 9.813 32.316 13.492 32.625 L13.492 34.021 C10.656 33.866 8.433 33.711 6.746 33.711 C4.829 33.711 2.606 33.866 0 34.021 L0 32.625 C3.756 32.238 3.909 31.695 3.909 27.355 C3.909 26.814 3.909 26.271 3.909 25.729 L3.909 7.13 C3.909 3.487 3.602 2.635 0.23 2.635 L0.23 1.239 C3.449 1.007 6.593 0.621 9.582 0 L9.582 25.729 C9.582 26.503 9.582 27.123 9.582 27.743 " transform="translate(252.901, 127.24)"/>
    <path style="fill:#000000; fill-rule:nonzero;stroke:none;" d="M8.203 32.317 C8.203 38.05 8.509 41.149 11.882 41.149 C13.877 41.149 15.179 39.755 15.869 36.966 L16.866 37.197 C16.099 41.306 13.34 43.553 9.659 43.553 C4.522 43.553 2.3 40.685 2.3 34.563 C2.3 34.331 2.3 34.176 2.3 33.944 L2.835 11.315 L0 11.315 L0 10.693 C3.067 9.299 5.442 5.734 7.052 0 L8.203 0 L8.203 9.841 L14.565 9.841 L14.565 11.315 L8.203 11.315 L8.203 32.317 " transform="translate(271.377, 118.638)"/>
    <path style="fill:#000000; fill-rule:nonzero;stroke:none;" d="M8.203 32.317 C8.203 38.05 8.51 41.149 11.884 41.149 C13.876 41.149 15.179 39.755 15.869 36.966 L16.867 37.197 C16.098 41.306 13.34 43.553 9.66 43.553 C4.523 43.553 2.3 40.685 2.3 34.563 C2.3 34.331 2.3 34.176 2.3 33.944 L2.837 11.315 L0 11.315 L0 10.693 C3.067 9.299 5.443 5.734 7.054 0 L8.203 0 L8.203 9.841 L14.565 9.841 L14.565 11.315 L8.203 11.315 L8.203 32.317 " transform="translate(291.232, 118.638)"/>
    <path style="fill:#000000; fill-rule:nonzero;stroke:none;" d="M6.056 16.816 C6.056 26.193 10.272 32.083 16.558 32.083 C21.083 32.083 23.918 29.525 25.146 25.186 L26.448 25.496 C24.993 31.541 20.546 34.951 14.106 34.951 C5.825 34.951 0 28.595 0 18.754 C0 7.594 6.975 0 14.642 0 C21.311 0 25.836 5.89 25.836 11.083 C25.836 12.631 24.993 12.631 23.076 12.631 L6.362 12.631 C6.21 14.182 6.056 15.499 6.056 16.816 Z M14.948 10.849 C20.008 10.849 21.236 10.772 21.236 7.517 C21.236 3.72 18.782 1.318 14.488 1.318 C10.119 1.318 7.435 4.494 6.593 10.849 L14.948 10.849 Z" transform="translate(310.628, 127.24)"/>
    <path style="fill:#000000; fill-rule:nonzero;stroke:none;" d="M18.321 0 C20.852 0 22.462 1.628 22.462 3.643 C22.462 5.657 21.389 6.741 19.548 6.741 C18.092 6.741 17.172 5.89 17.019 4.649 C16.788 3.1 16.866 2.325 15.638 2.325 C13.874 2.325 9.658 7.517 9.658 15.653 L9.658 25.729 C9.658 26.04 9.658 26.348 9.658 26.658 C9.658 31.849 9.813 32.161 14.872 32.625 L14.872 34.021 C11.805 33.866 9.123 33.711 6.746 33.711 C5.442 33.711 3.142 33.866 0 34.021 L0 32.625 C3.755 32.238 3.909 31.695 3.909 27.355 C3.909 26.814 3.909 26.271 3.909 25.729 L3.909 7.13 C3.909 3.487 3.603 2.635 0.229 2.635 L0.229 1.239 C3.219 1.085 6.209 0.697 9.275 0 L9.275 8.99 C11.651 2.944 14.489 0 18.321 0 " transform="translate(340.144, 127.24)"/>
    <path style="fill:#000000; fill-rule:nonzero;stroke:none;" d="M10.427 49.753 C10.427 50.527 10.427 51.147 10.427 51.767 C10.427 55.719 10.655 56.34 14.336 56.649 L14.336 58.045 C11.5 57.89 9.2 57.735 7.513 57.735 C5.595 57.735 3.45 57.89 0.842 58.045 L0.842 56.649 C4.598 56.262 4.752 55.719 4.752 51.379 C4.752 50.838 4.752 50.295 4.752 49.753 L4.752 7.129 C4.752 3.333 4.371 2.558 0.613 2.558 C0.461 2.558 0.23 2.558 0 2.558 L0 1.24 C3.679 1.085 7.284 0.698 10.886 0 C10.58 6.898 10.427 11.314 10.427 13.407 L10.427 32.316 C13.186 26.737 16.942 24.024 21.847 24.024 C28.901 24.024 30.972 28.364 30.972 37.198 L30.972 49.753 C30.972 50.527 30.972 51.147 30.972 51.767 C30.972 55.719 31.201 56.34 34.882 56.649 L34.882 58.045 C32.044 57.89 29.822 57.735 28.135 57.735 C26.219 57.735 23.996 57.89 21.388 58.045 L21.388 56.649 C25.145 56.262 25.298 55.719 25.298 51.379 C25.298 50.838 25.298 50.295 25.298 49.753 L25.298 33.711 C25.298 28.208 24.532 25.418 20.621 25.418 C16.25 25.418 10.427 30.921 10.427 38.361 L10.427 49.753 " transform="translate(363.525, 103.216)"/>
    <path style="fill:#000000; fill-rule:nonzero;stroke:none;" d="M6.056 16.816 C6.056 26.193 10.271 32.083 16.559 32.083 C21.082 32.083 23.917 29.525 25.145 25.186 L26.447 25.496 C24.991 31.541 20.545 34.951 14.104 34.951 C5.823 34.951 0 28.595 0 18.754 C0 7.594 6.975 0 14.641 0 C21.311 0 25.835 5.89 25.835 11.083 C25.835 12.631 24.991 12.631 23.077 12.631 L6.361 12.631 C6.209 14.182 6.056 15.499 6.056 16.816 Z M14.949 10.849 C20.007 10.849 21.235 10.772 21.235 7.517 C21.235 3.72 18.78 1.318 14.489 1.318 C10.119 1.318 7.435 4.494 6.592 10.849 L14.949 10.849 Z" transform="translate(400.707, 127.24)"/>
    <path style="fill:#000000; fill-rule:nonzero;stroke:none;" d="M8.205 32.317 C8.205 38.05 8.51 41.149 11.883 41.149 C13.876 41.149 15.181 39.755 15.872 36.966 L16.869 37.197 C16.102 41.306 13.342 43.553 9.661 43.553 C4.524 43.553 2.301 40.685 2.301 34.563 C2.301 34.331 2.301 34.176 2.301 33.944 L2.838 11.315 L0 11.315 L0 10.693 C3.067 9.299 5.444 5.734 7.055 0 L8.205 0 L8.205 9.841 L14.568 9.841 L14.568 11.315 L8.205 11.315 L8.205 32.317 " transform="translate(431.753, 118.638)"/>
    <path style="fill:#000000; fill-rule:nonzero;stroke:none;" d="M2.147 22.629 C2.147 22.705 2.147 22.783 2.147 22.86 C2.147 29.759 5.596 33.711 10.503 33.711 C14.412 33.711 16.868 31.076 16.868 26.658 C16.868 21.39 13.339 20.537 8.201 18.754 C3.219 17.048 0.845 14.027 0.845 9.61 C0.845 3.798 4.753 0 9.89 0 C13.799 0 15.946 1.705 16.791 1.705 C17.479 1.705 18.016 1.085 18.095 0 L19.167 0 C18.935 2.247 18.782 4.184 18.782 5.735 C18.782 6.82 18.861 8.369 19.014 10.539 L17.941 10.539 C17.558 4.34 15.104 1.318 10.351 1.318 C6.901 1.318 4.753 3.72 4.753 7.052 C4.753 11.546 8.281 12.245 13.339 13.872 C18.861 15.653 21.239 18.6 21.239 23.946 C21.239 30.921 17.096 34.951 10.658 34.951 C5.904 34.951 3.834 32.316 2.685 32.316 C1.993 32.316 1.457 32.935 1.228 34.177 L0 34.177 C0.613 30.224 0.998 26.426 0.998 22.629 L2.147 22.629 " transform="translate(451.916, 127.24)"/>
    <path style="fill:#000000; fill-rule:nonzero;stroke:none;" d="M7.053 34.951 C3.142 34.951 0 31.774 0 27.355 C0 21 5.98 15.73 16.634 14.415 L16.634 8.757 C16.634 3.72 16.175 1.239 10.731 1.239 C6.975 1.239 5.904 2.168 5.749 4.805 C5.595 7.13 5.289 8.603 2.912 8.603 C1.302 8.603 0.229 7.517 0.229 6.045 C0.229 2.944 4.065 0 10.501 0 C19.628 0 22.309 3.643 22.309 11.392 L22.309 28.829 C22.309 31.386 22.999 32.625 24.455 32.625 C25.299 32.625 26.218 31.928 27.443 30.843 L28.289 31.849 C26.909 33.866 24.61 34.951 22.385 34.951 C19.396 34.951 17.172 32.858 16.634 29.371 C12.802 32.935 10.043 34.951 7.053 34.951 Z M16.634 15.653 C9.122 16.507 5.443 19.608 5.443 25.108 C5.443 28.907 7.512 31.076 10.273 31.076 C12.726 31.076 14.334 29.759 16.634 27.589 L16.634 15.653 Z" transform="translate(477.676, 127.24)"/>
    <path style="fill:#000000; fill-rule:nonzero;stroke:none;" d="M10.426 13.407 L10.426 41.461 L17.863 32.781 C19.397 30.999 20.239 29.681 20.239 28.751 C20.239 27.434 19.012 26.659 16.713 26.659 L16.713 25.263 C19.474 25.418 21.619 25.574 23.307 25.574 C25.069 25.574 27.292 25.418 29.975 25.263 L29.975 26.659 C24.915 26.737 23.153 29.062 20.164 32.471 L14.947 38.361 L24.991 50.139 C28.672 54.402 31.202 56.649 32.813 56.649 L32.813 58.045 C29.823 57.89 27.292 57.735 25.527 57.735 C23.613 57.735 21.313 57.89 18.4 58.045 L18.4 56.649 C20.315 56.493 21.236 56.029 21.236 55.1 C21.236 54.635 20.776 53.627 19.933 52.619 L11.345 42.468 L10.426 43.474 L10.426 49.753 C10.426 50.527 10.426 51.147 10.426 51.767 C10.426 55.719 10.657 56.34 14.336 56.649 L14.336 58.045 C11.5 57.89 9.199 57.735 7.513 57.735 C5.594 57.735 3.449 57.89 0.845 58.045 L0.845 56.649 C4.601 56.262 4.752 55.719 4.752 51.379 C4.752 50.838 4.752 50.295 4.752 49.753 L4.752 7.129 C4.752 3.333 4.37 2.558 0.613 2.558 C0.457 2.558 0.231 2.558 0 2.558 L0 1.24 C3.603 1.085 7.285 0.698 10.888 0 C10.58 6.898 10.426 11.314 10.426 13.407 " transform="translate(506.194, 103.216)"/>
    <path style="fill:#000000; fill-rule:nonzero;stroke:none;" d="M7.055 34.951 C3.143 34.951 0 31.774 0 27.355 C0 21 5.982 15.73 16.635 14.415 L16.635 8.757 C16.635 3.72 16.176 1.239 10.733 1.239 C6.977 1.239 5.904 2.168 5.749 4.805 C5.596 7.13 5.289 8.603 2.916 8.603 C1.303 8.603 0.232 7.517 0.232 6.045 C0.232 2.944 4.064 0 10.503 0 C19.625 0 22.311 3.643 22.311 11.392 L22.311 28.829 C22.311 31.386 22.999 32.625 24.457 32.625 C25.3 32.625 26.219 31.928 27.449 30.843 L28.291 31.849 C26.911 33.866 24.61 34.951 22.386 34.951 C19.398 34.951 17.173 32.858 16.635 29.371 C12.803 32.935 10.043 34.951 7.055 34.951 Z M16.635 15.653 C9.125 16.507 5.442 19.608 5.442 25.108 C5.442 28.907 7.514 31.076 10.273 31.076 C12.728 31.076 14.337 29.759 16.635 27.589 L16.635 15.653 Z" transform="translate(540.614, 127.24)"/>
    <path style="fill:#000000; fill-rule:nonzero;stroke:none;" d="M21.161 2.558 C21.004 2.558 20.776 2.558 20.545 2.558 L20.545 1.24 C24.225 1.085 27.829 0.698 31.51 0 C31.202 6.898 31.051 11.314 31.051 13.407 L31.051 49.442 C31.051 54.556 31.432 56.107 35.955 56.34 L35.955 57.735 C32.583 57.735 29.287 57.966 25.913 58.356 L25.222 52.388 C22.615 56.803 19.167 58.742 14.642 58.742 C6.593 58.742 0 52.309 0 42.158 C0 31.386 6.747 24.024 15.026 24.024 C19.09 24.024 22.541 26.192 25.222 30.688 L25.222 7.129 C25.222 3.333 24.916 2.558 21.161 2.558 Z M25.222 38.361 C25.222 29.681 20.625 25.263 15.333 25.263 C8.971 25.263 6.44 30.611 6.44 41.538 C6.44 52.464 8.971 57.735 15.333 57.735 C20.545 57.735 25.222 52.698 25.222 46.653 L25.222 38.361 Z" transform="translate(568.98, 103.216)"/>
    <path style="fill:#000000; fill-rule:nonzero;stroke:none;" d="M6.056 16.816 C6.056 26.193 10.273 32.083 16.559 32.083 C21.084 32.083 23.921 29.525 25.145 25.186 L26.447 25.496 C24.994 31.541 20.544 34.951 14.108 34.951 C5.828 34.951 0 28.595 0 18.754 C0 7.594 6.975 0 14.643 0 C21.311 0 25.836 5.89 25.836 11.083 C25.836 12.631 24.994 12.631 23.075 12.631 L6.364 12.631 C6.209 14.182 6.056 15.499 6.056 16.816 Z M14.949 10.849 C20.009 10.849 21.236 10.772 21.236 7.517 C21.236 3.72 18.784 1.318 14.49 1.318 C10.119 1.318 7.437 4.494 6.595 10.849 L14.949 10.849 Z" transform="translate(606.468, 127.24)"/>
    <path style="fill:#000000; fill-rule:nonzero;stroke:none;" d="M9.583 25.729 C9.583 26.503 9.583 27.123 9.583 27.743 C9.583 31.695 9.813 32.316 13.493 32.625 L13.493 34.021 C10.657 33.866 8.434 33.711 6.746 33.711 C4.83 33.711 2.608 33.866 0 34.021 L0 32.625 C3.756 32.238 3.91 31.695 3.91 27.355 C3.91 26.814 3.91 26.271 3.91 25.729 L3.91 7.13 C3.91 3.487 3.605 2.635 0.231 2.635 L0.231 1.239 C3.374 1.007 6.516 0.621 9.659 0 L9.659 8.292 C12.343 2.789 16.329 0 20.622 0 C25.454 0 28.903 3.176 29.364 8.603 C32.199 2.868 36.108 0 40.556 0 C47.3 0 49.372 4.417 49.372 13.174 L49.372 25.729 C49.372 26.503 49.372 27.123 49.372 27.743 C49.372 31.695 49.601 32.316 53.281 32.625 L53.281 34.021 C50.444 33.866 48.224 33.711 46.534 33.711 C44.619 33.711 42.395 33.866 39.789 34.021 L39.789 32.625 C43.546 32.238 43.699 31.695 43.699 27.355 C43.699 26.814 43.699 26.271 43.699 25.729 L43.699 9.687 C43.699 4.262 43.161 1.55 39.328 1.55 C35.187 1.55 29.517 7.052 29.517 14.337 L29.517 25.729 C29.517 26.503 29.517 27.123 29.517 27.743 C29.517 31.695 29.745 32.316 33.427 32.625 L33.427 34.021 C30.589 33.866 28.29 33.711 26.601 33.711 C24.685 33.711 22.54 33.866 19.934 34.021 L19.934 32.625 C23.69 32.238 23.842 31.695 23.842 27.355 C23.842 26.814 23.842 26.271 23.842 25.729 L23.842 9.687 C23.842 4.262 23.307 1.55 19.472 1.55 C15.332 1.55 9.583 7.052 9.583 14.337 L9.583 25.729 " transform="translate(635.907, 127.24)"/>
    <path style="fill:#000000; fill-rule:nonzero;stroke:none;" d="M9.581 27.743 C9.581 31.695 9.814 32.316 13.492 32.625 L13.492 34.021 C10.654 33.866 8.432 33.711 6.745 33.711 C4.828 33.711 2.606 33.866 0 34.021 L0 32.625 C3.756 32.238 3.909 31.695 3.909 27.355 C3.909 26.814 3.909 26.271 3.909 25.729 L3.909 7.13 C3.909 3.487 3.602 2.635 0.228 2.635 L0.228 1.239 C3.45 1.007 6.589 0.621 9.581 0 L9.581 25.729 C9.581 26.503 9.581 27.123 9.581 27.743 " transform="translate(692.332, 127.24)"/>
    <path style="fill:#000000; fill-rule:nonzero;stroke:none;" d="M6.055 16.816 C6.055 26.193 10.271 32.083 16.558 32.083 C21.083 32.083 23.92 29.525 25.145 25.186 L26.449 25.496 C24.994 31.541 20.545 34.951 14.106 34.951 C5.827 34.951 0 28.595 0 18.754 C0 7.594 6.977 0 14.641 0 C21.312 0 25.834 5.89 25.834 11.083 C25.834 12.631 24.994 12.631 23.077 12.631 L6.362 12.631 C6.207 14.182 6.055 15.499 6.055 16.816 Z M14.949 10.849 C20.011 10.849 21.235 10.772 21.235 7.517 C21.235 3.72 18.782 1.318 14.488 1.318 C10.12 1.318 7.435 4.494 6.592 10.849 L14.949 10.849 Z" transform="translate(710.194, 127.24)"/>
    <path style="fill:#000000; fill-rule:nonzero;stroke:none;" d="M9.585 25.729 C9.585 26.503 9.585 27.123 9.585 27.743 C9.585 31.695 9.813 32.316 13.492 32.625 L13.492 34.021 C10.658 33.866 8.436 33.711 6.747 33.711 C4.831 33.711 2.606 33.866 0 34.021 L0 32.625 C3.756 32.238 3.91 31.695 3.91 27.355 C3.91 26.814 3.91 26.271 3.91 25.729 L3.91 7.13 C3.91 3.487 3.604 2.635 0.232 2.635 L0.232 1.239 C3.374 1.007 6.515 0.621 9.66 0 L9.66 8.292 C12.418 2.713 16.174 0 21.082 0 C28.137 0 30.207 4.34 30.207 13.174 L30.207 25.729 C30.207 26.503 30.207 27.123 30.207 27.743 C30.207 31.695 30.435 32.316 34.117 32.625 L34.117 34.021 C31.28 33.866 29.056 33.711 27.37 33.711 C25.453 33.711 23.23 33.866 20.623 34.021 L20.623 32.625 C24.378 32.238 24.534 31.695 24.534 27.355 C24.534 26.814 24.534 26.271 24.534 25.729 L24.534 9.687 C24.534 4.184 23.766 1.394 19.857 1.394 C15.489 1.394 9.585 6.897 9.585 14.337 L9.585 25.729 " transform="translate(739.632, 127.24)"/>
    <path style="fill:#000000; fill-rule:nonzero;stroke:none;" d="M5.422 5.0831 L9.606 11.835 C9.872 12.293 10.037 12.3975 10.43 12.46 L10.43 12.71 L7.091 12.71 L7.091 12.46 C7.36 12.4395 7.421 12.376 7.421 12.2725 C7.421 12.169 7.38 12.001 7.275 11.8555 L3.999 6.6045 L2.618 8.042 L2.618 11.876 C2.618 12.209 2.825 12.46 3.132 12.46 L3.132 12.71 L0 12.71 L0 12.46 C0.308 12.46 0.516 12.209 0.516 11.876 L0.516 0.834 C0.516 0.5 0.308 0.251 0 0.251 L0 0 L3.132 0 L3.132 0.251 C2.825 0.251 2.618 0.5 2.618 0.834 L2.618 5.5 L6.925 0.8116 C7.009 0.7071 7.091 0.625 7.091 0.4786 C7.091 0.3741 7.029 0.2696 6.842 0.251 L6.842 0 L10.037 0 L10.037 0.251 C9.624 0.3536 9.441 0.584 9.151 0.8956 L5.422 5.0831 " transform="translate(413.916, 47.9482)"/>
    <path style="fill:#000000; fill-rule:nonzero;stroke:none;" d="M3.175 0 L3.175 0.251 C2.866 0.251 2.658 0.5 2.658 0.834 L2.658 8.292 C2.658 10.376 3.319 11.126 5.278 11.126 C7.236 11.126 7.896 10.376 7.896 8.292 L7.896 0.834 C7.896 0.5 7.688 0.251 7.382 0.251 L7.382 0 L10.554 0 L10.554 0.251 C10.244 0.251 10 0.5 10 0.834 L10 8.626 C10 12.126 7.854 12.917 5.278 12.917 C2.7 12.917 0.556 12.126 0.556 8.626 L0.556 0.834 C0.556 0.5 0.311 0.251 0 0.251 L0 0 L3.175 0 " transform="translate(429.787, 47.9482)"/>
    <path style="fill:#000000; fill-rule:nonzero;stroke:none;" d="M9.977 11.876 C9.977 12.209 10.225 12.46 10.532 12.46 L10.532 12.71 L7.238 12.71 L7.238 12.46 C7.608 12.46 7.689 12.334 7.689 12.1895 C7.689 11.9385 7.379 11.4395 7.238 11.1885 L2.371 3.125 L2.329 3.125 L2.329 11.876 C2.329 12.209 2.539 12.46 2.844 12.46 L2.844 12.71 L0 12.71 L0 12.46 C0.312 12.46 0.516 12.209 0.516 11.876 L0.516 0.834 C0.516 0.5 0.312 0.251 0 0.251 L0 0 L3.505 0 L3.505 0.251 C3.299 0.2696 3.155 0.3536 3.155 0.5616 C3.155 0.8536 3.34 1.0821 3.546 1.4151 L8.124 8.834 L8.164 8.834 L8.164 0.834 C8.164 0.5 7.959 0.251 7.648 0.251 L7.648 0 L10.532 0 L10.532 0.251 C10.225 0.251 9.977 0.5 9.977 0.834 L9.977 11.876 " transform="translate(446.112, 47.9482)"/>
    <path style="fill:#000000; fill-rule:nonzero;stroke:none;" d="M10.864 6.417 L10.864 6.667 C10.7 6.6866 10.614 6.7715 10.614 7.0205 L10.614 10.458 C10.614 10.667 10.7 10.835 10.822 10.835 L10.822 11.083 C9.461 12.293 8.408 13.125 5.876 13.125 C2.266 13.125 0 10.458 0 6.792 C0 3.375 2.02 0 5.835 0 C7.05 0 7.979 0.3116 8.699 0.6455 C9.399 0.958 9.893 1.2901 10.162 1.2901 C10.266 1.2901 10.389 1.2491 10.492 1.208 L10.657 1.3116 L9.233 3.6045 L9.051 3.5205 C9.051 3.4375 9.069 3.3536 9.069 3.2696 C9.069 2.4795 7.814 1.7901 6.143 1.7901 C3.565 1.7901 2.104 4.084 2.104 6.75 C2.104 9.292 3.382 11.334 6.061 11.334 C6.926 11.334 8.039 11.083 8.679 10.4375 L8.679 8.209 L6.37 8.209 C6.039 8.209 5.792 8.417 5.792 8.6465 L5.546 8.6465 L5.546 6.0635 L5.792 6.0635 C5.792 6.2911 6.039 6.417 6.37 6.417 L10.864 6.417 " transform="translate(462.253, 47.7402)"/>
    <path style="fill:#000000; fill-rule:nonzero;stroke:none;" d="M8.163 10.918 C8.657 10.918 8.802 10.7725 8.822 10.501 L9.071 10.501 L9.071 13.127 L8.822 13.127 C8.802 12.8565 8.657 12.71 8.163 12.71 L0 12.71 L0 12.46 C0.309 12.46 0.513 12.209 0.513 11.876 L0.513 0.834 C0.513 0.5 0.309 0.251 0 0.251 L0 0 L3.134 0 L3.134 0.251 C2.823 0.251 2.618 0.5 2.618 0.834 L2.618 10.918 L8.163 10.918 " transform="translate(478.785, 47.9482)"/>
    <path style="fill:#000000; fill-rule:nonzero;stroke:none;" d="M1.382 0 C2.143 0 2.763 0.625 2.763 1.3965 C2.763 2.167 2.143 2.791 1.382 2.791 C0.619 2.791 0 2.167 0 1.3965 C0 0.625 0.619 0 1.382 0 " transform="translate(492.183, 58.0742)"/>
    <path style="fill:#000000; fill-rule:nonzero;stroke:none;" d="M3.174 0 L3.174 0.251 C2.742 0.2696 2.658 0.418 2.681 0.625 C2.7 0.792 2.823 1.1866 2.886 1.3536 L5.566 10.042 L5.605 10.042 L8.451 1.0821 C8.491 0.9385 8.535 0.8116 8.535 0.6866 C8.535 0.4375 8.43 0.3116 8.101 0.251 L8.101 0 L10.965 0 L10.965 0.251 C10.515 0.2911 10.45 0.625 10.326 1 L6.986 11.46 C6.885 11.7735 6.822 11.9815 6.822 12.126 C6.822 12.3145 6.926 12.4395 7.091 12.46 L7.091 12.71 L3.998 12.71 L3.998 12.46 C4.205 12.4395 4.247 12.293 4.247 12.1895 C4.247 12.085 4.183 11.8555 4.143 11.7305 L0.535 0.8956 C0.434 0.5401 0.184 0.3116 0 0.251 L0 0 L3.174 0 " transform="translate(501.81, 47.9482)"/>
    <path style="fill:#000000; fill-rule:nonzero;stroke:none;" d="M0 12.71 L0 12.46 C0.311 12.46 0.517 12.209 0.517 11.876 L0.517 0.834 C0.517 0.5 0.311 0.251 0 0.251 L0 0 L3.135 0 L3.135 0.251 C2.825 0.251 2.621 0.5 2.621 0.834 L2.621 11.876 C2.621 12.209 2.825 12.46 3.135 12.46 L3.135 12.71 L0 12.71 " transform="translate(518.339, 47.9482)"/>
    <path style="fill:#000000; fill-rule:nonzero;stroke:none;" d="M3.217 13.126 L3.217 12.876 C3.527 12.876 3.734 12.625 3.734 12.292 L3.734 2.208 L0.908 2.208 C0.413 2.208 0.27 2.3526 0.248 2.6241 L0 2.6241 L0 0 L0.248 0 C0.27 0.2705 0.413 0.416 0.908 0.416 L8.658 0.416 C9.153 0.416 9.299 0.2705 9.317 0 L9.567 0 L9.567 2.6241 L9.317 2.6241 C9.299 2.3526 9.153 2.208 8.658 2.208 L5.835 2.208 L5.835 12.292 C5.835 12.625 6.04 12.876 6.349 12.876 L6.349 13.126 L3.217 13.126 " transform="translate(527.162, 47.5322)"/>
    <path style="fill:#000000; fill-rule:nonzero;stroke:none;" d="M3.215 13.126 L3.215 12.876 C3.528 12.876 3.732 12.625 3.732 12.292 L3.732 2.208 L0.907 2.208 C0.413 2.208 0.267 2.3526 0.246 2.6241 L0 2.6241 L0 0 L0.246 0 C0.267 0.2705 0.413 0.416 0.907 0.416 L8.657 0.416 C9.153 0.416 9.298 0.2705 9.317 0 L9.566 0 L9.566 2.6241 L9.317 2.6241 C9.298 2.3526 9.153 2.208 8.657 2.208 L5.834 2.208 L5.834 12.292 C5.834 12.625 6.039 12.876 6.35 12.876 L6.35 13.126 L3.215 13.126 " transform="translate(541.901, 47.5322)"/>
    <path style="fill:#000000; fill-rule:nonzero;stroke:none;" d="M7.131 7.8741 L6.884 7.8741 C6.865 7.6045 6.719 7.458 6.225 7.458 L2.618 7.458 L2.618 11.334 L8.658 11.334 C9.152 11.334 9.297 11.1885 9.318 10.917 L9.562 10.917 L9.562 13.543 L9.318 13.543 C9.297 13.2725 9.152 13.126 8.658 13.126 L0 13.126 L0 12.876 C0.309 12.876 0.515 12.625 0.515 12.292 L0.515 1.25 C0.515 0.916 0.309 0.667 0 0.667 L0 0.416 L8.616 0.416 C9.112 0.416 9.255 0.2705 9.275 0 L9.525 0 L9.525 2.6241 L9.275 2.6241 C9.255 2.3526 9.112 2.208 8.616 2.208 L2.618 2.208 L2.618 5.666 L6.225 5.666 C6.719 5.666 6.865 5.5215 6.884 5.2481 L7.131 5.2481 L7.131 7.8741 " transform="translate(556.888, 47.5322)"/>
    <path style="fill:#000000; fill-rule:nonzero;stroke:none;" d="M6.514 12.71 L6.514 12.46 C6.867 12.46 7.031 12.376 7.031 12.1895 C7.031 12.0645 6.971 11.876 6.905 11.7735 L4.701 7.25 L2.62 7.25 L2.62 11.876 C2.62 12.209 2.826 12.46 3.133 12.46 L3.133 12.71 L0 12.71 L0 12.46 C0.31 12.46 0.515 12.209 0.515 11.876 L0.515 0.834 C0.515 0.5 0.31 0.251 0 0.251 L0 0 L4.947 0 C8.082 0 9.525 1.0635 9.525 3.7081 C9.525 5.6045 8.576 6.7911 6.886 7.125 L9.215 11.959 C9.381 12.334 9.565 12.417 9.936 12.46 L9.936 12.71 L6.514 12.71 Z M2.62 5.459 L5.298 5.459 C6.742 5.459 7.423 5.042 7.423 3.6456 C7.423 2.2491 6.742 1.792 5.465 1.792 L2.62 1.792 L2.62 5.459 Z" transform="translate(572.223, 47.9482)"/>
    <path style="fill:#000000; fill-rule:nonzero;stroke:none;" d="M10.019 11.876 C10.019 12.209 10.223 12.46 10.532 12.46 L10.532 12.71 L7.399 12.71 L7.399 12.46 C7.709 12.46 7.916 12.209 7.916 11.876 L7.916 7.085 L2.617 7.085 L2.617 11.876 C2.617 12.209 2.825 12.46 3.132 12.46 L3.132 12.71 L0 12.71 L0 12.46 C0.31 12.46 0.516 12.209 0.516 11.876 L0.516 0.834 C0.516 0.5 0.31 0.251 0 0.251 L0 0 L3.132 0 L3.132 0.251 C2.825 0.251 2.617 0.5 2.617 0.834 L2.617 5.292 L7.916 5.292 L7.916 0.834 C7.916 0.5 7.709 0.251 7.399 0.251 L7.399 0 L10.532 0 L10.532 0.251 C10.223 0.251 10.019 0.5 10.019 0.834 L10.019 11.876 " transform="translate(587.169, 47.9482)"/>
    <path style="fill:#000000; fill-rule:nonzero;stroke:none;" d="M7.134 7.8741 L6.886 7.8741 C6.865 7.6045 6.72 7.458 6.225 7.458 L2.618 7.458 L2.618 11.334 L8.657 11.334 C9.153 11.334 9.298 11.1885 9.316 10.917 L9.566 10.917 L9.566 13.543 L9.316 13.543 C9.298 13.2725 9.153 13.126 8.657 13.126 L0 13.126 L0 12.876 C0.309 12.876 0.515 12.625 0.515 12.292 L0.515 1.25 C0.515 0.916 0.309 0.667 0 0.667 L0 0.416 L8.617 0.416 C9.111 0.416 9.256 0.2705 9.275 0 L9.525 0 L9.525 2.6241 L9.275 2.6241 C9.256 2.3526 9.111 2.208 8.617 2.208 L2.618 2.208 L2.618 5.666 L6.225 5.666 C6.72 5.666 6.865 5.5215 6.886 5.2481 L7.134 5.2481 L7.134 7.8741 " transform="translate(603.679, 47.5322)"/>
    <path style="fill:#000000; fill-rule:nonzero;stroke:none;" d="M3.215 13.126 L3.215 12.876 C3.524 12.876 3.728 12.625 3.728 12.292 L3.728 2.208 L0.905 2.208 C0.412 2.208 0.268 2.3526 0.245 2.6241 L0 2.6241 L0 0 L0.245 0 C0.268 0.2705 0.412 0.416 0.905 0.416 L8.657 0.416 C9.149 0.416 9.296 0.2705 9.316 0 L9.565 0 L9.565 2.6241 L9.316 2.6241 C9.296 2.3526 9.149 2.208 8.657 2.208 L5.832 2.208 L5.832 12.292 C5.832 12.625 6.039 12.876 6.348 12.876 L6.348 13.126 L3.215 13.126 " transform="translate(618.914, 47.5322)"/>
    <path style="fill:#000000; fill-rule:nonzero;stroke:none;" d="M1.278 9.1055 L1.485 9.2295 L1.485 9.5215 C1.485 10.4795 3.463 11.334 5.257 11.334 C6.659 11.334 7.689 10.667 7.689 9.251 C7.689 6.25 0.268 8.793 0.268 3.876 C0.268 1.667 1.878 0 4.681 0 C6.164 0 7.194 0.3116 7.916 0.6036 C8.616 0.8946 8.985 1.208 9.151 1.208 C9.234 1.208 9.317 1.1661 9.378 1.1036 L9.586 1.1866 L8.327 3.6651 L8.122 3.5625 C8.122 2.583 6.948 1.7901 4.929 1.7901 C3.195 1.7901 2.207 2.4571 2.207 3.4991 C2.207 6.667 9.709 4.042 9.709 9.1465 C9.709 11.668 7.771 13.125 5.05 13.125 C3.544 13.125 2.495 12.793 1.774 12.46 C1.031 12.1045 0.515 11.7725 0.33 11.7725 C0.268 11.7725 0.229 11.8145 0.185 11.835 L0 11.709 L1.278 9.1055 " transform="translate(633.259, 47.7402)"/>
    <path style="fill:#000000; fill-rule:nonzero;stroke:none;" d="M10.017 11.876 C10.017 12.209 10.224 12.46 10.534 12.46 L10.534 12.71 L7.398 12.71 L7.398 12.46 C7.709 12.46 7.914 12.209 7.914 11.876 L7.914 7.085 L2.619 7.085 L2.619 11.876 C2.619 12.209 2.826 12.46 3.134 12.46 L3.134 12.71 L0 12.71 L0 12.46 C0.308 12.46 0.516 12.209 0.516 11.876 L0.516 0.834 C0.516 0.5 0.308 0.251 0 0.251 L0 0 L3.134 0 L3.134 0.251 C2.826 0.251 2.619 0.5 2.619 0.834 L2.619 5.292 L7.914 5.292 L7.914 0.834 C7.914 0.5 7.709 0.251 7.398 0.251 L7.398 0 L10.534 0 L10.534 0.251 C10.224 0.251 10.017 0.5 10.017 0.834 L10.017 11.876 " transform="translate(658.037, 47.9482)"/>
    <path style="fill:#000000; fill-rule:nonzero;stroke:none;" d="M0 12.71 L0 12.46 C0.307 12.46 0.515 12.209 0.515 11.876 L0.515 0.834 C0.515 0.5 0.307 0.251 0 0.251 L0 0 L3.133 0 L3.133 0.251 C2.825 0.251 2.618 0.5 2.618 0.834 L2.618 11.876 C2.618 12.209 2.825 12.46 3.133 12.46 L3.133 12.71 L0 12.71 " transform="translate(675.331, 47.9482)"/>
    <path style="fill:#000000; fill-rule:nonzero;stroke:none;" d="M1.278 9.1055 L1.485 9.2295 L1.485 9.5215 C1.485 10.4795 3.462 11.334 5.257 11.334 C6.658 11.334 7.688 10.667 7.688 9.251 C7.688 6.25 0.267 8.793 0.267 3.876 C0.267 1.667 1.876 0 4.677 0 C6.163 0 7.193 0.3116 7.915 0.6036 C8.617 0.8946 8.986 1.208 9.151 1.208 C9.233 1.208 9.318 1.1661 9.378 1.1036 L9.585 1.1866 L8.326 3.6651 L8.121 3.5625 C8.121 2.583 6.947 1.7901 4.928 1.7901 C3.195 1.7901 2.206 2.4571 2.206 3.4991 C2.206 6.667 9.706 4.042 9.706 9.1465 C9.706 11.668 7.771 13.125 5.05 13.125 C3.545 13.125 2.493 12.793 1.773 12.46 C1.032 12.1045 0.515 11.7725 0.329 11.7725 C0.267 11.7725 0.228 11.8145 0.184 11.835 L0 11.709 L1.278 9.1055 " transform="translate(684.751, 47.7402)"/>
    <path style="fill:#000000; fill-rule:nonzero;stroke:none;" d="M3.216 13.126 L3.216 12.876 C3.525 12.876 3.731 12.625 3.731 12.292 L3.731 2.208 L0.907 2.208 C0.414 2.208 0.268 2.3526 0.247 2.6241 L0 2.6241 L0 0 L0.247 0 C0.268 0.2705 0.414 0.416 0.907 0.416 L8.66 0.416 C9.153 0.416 9.296 0.2705 9.319 0 L9.565 0 L9.565 2.6241 L9.319 2.6241 C9.296 2.3526 9.153 2.208 8.66 2.208 L5.835 2.208 L5.835 12.292 C5.835 12.625 6.039 12.876 6.35 12.876 L6.35 13.126 L3.216 13.126 " transform="translate(700.046, 47.5322)"/>
    <path style="fill:#000000; fill-rule:nonzero;stroke:none;" d="M5.628 13.125 C2.102 13.125 0 10.501 0 6.5635 C0 2.625 2.102 0 5.628 0 C9.15 0 11.253 2.625 11.253 6.5635 C11.253 10.501 9.15 13.125 5.628 13.125 Z M5.628 1.7901 C3.338 1.7901 2.102 3.4991 2.102 6.5635 C2.102 9.625 3.338 11.334 5.628 11.334 C7.915 11.334 9.15 9.625 9.15 6.5635 C9.15 3.4991 7.915 1.7901 5.628 1.7901 Z" transform="translate(714.476, 47.7402)"/>
    <path style="fill:#000000; fill-rule:nonzero;stroke:none;" d="M6.516 12.71 L6.516 12.46 C6.863 12.46 7.03 12.376 7.03 12.1895 C7.03 12.0645 6.967 11.876 6.907 11.7735 L4.702 7.25 L2.62 7.25 L2.62 11.876 C2.62 12.209 2.825 12.46 3.135 12.46 L3.135 12.71 L0 12.71 L0 12.46 C0.311 12.46 0.516 12.209 0.516 11.876 L0.516 0.834 C0.516 0.5 0.311 0.251 0 0.251 L0 0 L4.948 0 C8.08 0 9.523 1.0635 9.523 3.7081 C9.523 5.6045 8.577 6.7911 6.886 7.125 L9.216 11.959 C9.38 12.334 9.566 12.417 9.936 12.46 L9.936 12.71 L6.516 12.71 Z M2.62 5.459 L5.298 5.459 C6.741 5.459 7.419 5.042 7.419 3.6456 C7.419 2.2491 6.741 1.792 5.463 1.792 L2.62 1.792 L2.62 5.459 Z" transform="translate(731.274, 47.9482)"/>
    <path style="fill:#000000; fill-rule:nonzero;stroke:none;" d="M0 12.71 L0 12.46 C0.309 12.46 0.517 12.209 0.517 11.876 L0.517 0.834 C0.517 0.5 0.309 0.251 0 0.251 L0 0 L3.134 0 L3.134 0.251 C2.824 0.251 2.618 0.5 2.618 0.834 L2.618 11.876 C2.618 12.209 2.824 12.46 3.134 12.46 L3.134 12.71 L0 12.71 " transform="translate(747.394, 47.9482)"/>
    <path style="fill:#000000; fill-rule:nonzero;stroke:none;" d="M7.131 7.8741 L6.883 7.8741 C6.863 7.6045 6.72 7.458 6.223 7.458 L2.618 7.458 L2.618 11.334 L8.655 11.334 C9.153 11.334 9.294 11.1885 9.315 10.917 L9.562 10.917 L9.562 13.543 L9.315 13.543 C9.294 13.2725 9.153 13.126 8.655 13.126 L0 13.126 L0 12.876 C0.309 12.876 0.513 12.625 0.513 12.292 L0.513 1.25 C0.513 0.916 0.309 0.667 0 0.667 L0 0.416 L8.614 0.416 C9.109 0.416 9.253 0.2705 9.275 0 L9.523 0 L9.523 2.6241 L9.275 2.6241 C9.253 2.3526 9.109 2.208 8.614 2.208 L2.618 2.208 L2.618 5.666 L6.223 5.666 C6.72 5.666 6.863 5.5215 6.883 5.2481 L7.131 5.2481 L7.131 7.8741 " transform="translate(756.486, 47.5322)"/>
    <path style="fill:#000000; fill-rule:nonzero;stroke:none;" d="M5.626 13.1269 C2.101 13.1269 0 10.501 0 6.5635 C0 2.626 2.101 0 5.626 0 C9.151 0 11.253 2.626 11.253 6.5635 C11.253 10.501 9.151 13.1269 5.626 13.1269 Z M5.626 1.791 C3.336 1.791 2.101 3.498 2.101 6.5635 C2.101 9.625 3.336 11.334 5.626 11.334 C7.915 11.334 9.151 9.625 9.151 6.5635 C9.151 3.498 7.915 1.791 5.626 1.791 Z" transform="translate(413.546, 71.1924)"/>
    <path style="fill:#000000; fill-rule:nonzero;stroke:none;" d="M9.935 1.2715 L8.7 3.6045 L8.451 3.5635 C8.451 2.1865 6.718 1.75 5.852 1.791 C3.626 1.8965 2.103 3.498 2.103 6.5635 C2.103 9.625 3.339 11.334 5.852 11.334 C6.966 11.334 8.615 10.668 8.615 9.2724 L8.864 9.208 L10.387 11.3135 L10.161 11.4385 C10.12 11.3974 10.019 11.3135 9.935 11.3135 C9.398 11.3135 8.286 13.1269 5.626 13.1269 C2.103 13.1269 0 10.501 0 6.5635 C0 2.626 2.432 0 5.442 0 C6.676 0 7.585 0.3115 8.224 0.625 C8.864 0.958 9.257 1.291 9.481 1.291 C9.605 1.291 9.688 1.291 9.771 1.1875 L9.935 1.2715 " transform="translate(430.53, 71.1924)"/>
    <path style="fill:#000000; fill-rule:nonzero;stroke:none;" d="M10.017 11.8759 C10.017 12.2099 10.224 12.459 10.533 12.459 L10.533 12.709 L7.4 12.709 L7.4 12.459 C7.709 12.459 7.915 12.2099 7.915 11.8759 L7.915 7.083 L2.617 7.083 L2.617 11.8759 C2.617 12.2099 2.822 12.459 3.133 12.459 L3.133 12.709 L0 12.709 L0 12.459 C0.309 12.459 0.517 12.2099 0.517 11.8759 L0.517 0.834 C0.517 0.5 0.309 0.248 0 0.248 L0 0 L3.133 0 L3.133 0.248 C2.822 0.248 2.617 0.5 2.617 0.834 L2.617 5.291 L7.915 5.291 L7.915 0.834 C7.915 0.5 7.709 0.248 7.4 0.248 L7.4 0 L10.533 0 L10.533 0.248 C10.224 0.248 10.017 0.5 10.017 0.834 L10.017 11.8759 " transform="translate(446.237, 71.4014)"/>
    <path style="fill:#000000; fill-rule:nonzero;stroke:none;" d="M0 12.709 L0 12.459 C0.434 12.3965 0.516 12.0009 0.702 11.4804 L4.143 0.8955 C4.186 0.79 4.186 0.623 4.186 0.5195 C4.186 0.374 4.102 0.2695 3.938 0.248 L3.938 0 L7.279 0 L7.279 0.248 C7.114 0.291 7.03 0.3945 7.03 0.582 C7.03 0.749 7.053 0.958 7.174 1.331 L10.494 11.792 C10.66 12.292 10.72 12.4179 11.05 12.459 L11.05 12.709 L8.247 12.709 L8.247 12.459 C8.431 12.459 8.495 12.3965 8.495 12.2304 C8.495 12.1045 8.431 11.8759 8.369 11.7304 L7.526 9.291 L3.3 9.291 L2.454 11.6679 C2.391 11.8545 2.353 11.9795 2.353 12.125 C2.353 12.3554 2.432 12.4179 2.7 12.459 L2.7 12.709 L0 12.709 Z M3.856 7.5 L7.01 7.5 L5.465 2.417 L5.421 2.417 L3.856 7.5 Z" transform="translate(471.095, 71.4014)"/>
    <path style="fill:#000000; fill-rule:nonzero;stroke:none;" d="M9.977 11.8759 C9.977 12.2099 10.224 12.459 10.532 12.459 L10.532 12.709 L7.234 12.709 L7.234 12.459 C7.607 12.459 7.689 12.334 7.689 12.1884 C7.689 11.9375 7.381 11.4394 7.234 11.1884 L2.371 3.124 L2.329 3.124 L2.329 11.8759 C2.329 12.2099 2.534 12.459 2.844 12.459 L2.844 12.709 L0 12.709 L0 12.459 C0.308 12.459 0.515 12.2099 0.515 11.8759 L0.515 0.834 C0.515 0.5 0.308 0.248 0 0.248 L0 0 L3.504 0 L3.504 0.248 C3.298 0.2695 3.155 0.3525 3.155 0.5615 C3.155 0.8535 3.34 1.082 3.546 1.416 L8.121 8.834 L8.162 8.834 L8.162 0.834 C8.162 0.5 7.955 0.248 7.647 0.248 L7.647 0 L10.532 0 L10.532 0.248 C10.224 0.248 9.977 0.5 9.977 0.834 L9.977 11.8759 " transform="translate(487.401, 71.4014)"/>
    <path style="fill:#000000; fill-rule:nonzero;stroke:none;" d="M3.214 13.127 L3.214 12.877 C3.524 12.877 3.728 12.6279 3.728 12.2939 L3.728 2.209 L0.905 2.209 C0.411 2.209 0.266 2.3545 0.246 2.627 L0 2.627 L0 0 L0.246 0 C0.266 0.2705 0.411 0.418 0.905 0.418 L8.656 0.418 C9.152 0.418 9.296 0.2705 9.316 0 L9.564 0 L9.564 2.627 L9.316 2.627 C9.296 2.3545 9.152 2.209 8.656 2.209 L5.832 2.209 L5.832 12.2939 C5.832 12.6279 6.039 12.877 6.349 12.877 L6.349 13.127 L3.214 13.127 " transform="translate(503.254, 70.9834)"/>
    <path style="fill:#000000; fill-rule:nonzero;stroke:none;" d="M0 12.709 L0 12.459 C0.311 12.459 0.516 12.2099 0.516 11.8759 L0.516 0.834 C0.516 0.5 0.311 0.248 0 0.248 L0 0 L3.135 0 L3.135 0.248 C2.824 0.248 2.619 0.5 2.619 0.834 L2.619 11.8759 C2.619 12.2099 2.824 12.459 3.135 12.459 L3.135 12.709 L0 12.709 " transform="translate(518.32, 71.4014)"/>
    <path style="fill:#000000; fill-rule:nonzero;stroke:none;" d="M5.422 5.082 L9.604 11.833 C9.873 12.292 10.037 12.3965 10.429 12.459 L10.429 12.709 L7.09 12.709 L7.09 12.459 C7.357 12.4384 7.422 12.3759 7.422 12.2715 C7.422 12.167 7.38 12.0009 7.275 11.8545 L3.998 6.6045 L2.616 8.041 L2.616 11.8759 C2.616 12.2099 2.823 12.459 3.134 12.459 L3.134 12.709 L0 12.709 L0 12.459 C0.31 12.459 0.514 12.2099 0.514 11.8759 L0.514 0.834 C0.514 0.5 0.31 0.248 0 0.248 L0 0 L3.134 0 L3.134 0.248 C2.823 0.248 2.616 0.5 2.616 0.834 L2.616 5.499 L6.926 0.8125 C7.01 0.707 7.09 0.623 7.09 0.4785 C7.09 0.374 7.029 0.2695 6.845 0.248 L6.845 0 L10.037 0 L10.037 0.248 C9.626 0.3525 9.44 0.582 9.153 0.8955 L5.422 5.082 " transform="translate(527.391, 71.4014)"/>
    <path style="fill:#000000; fill-rule:nonzero;stroke:none;" d="M3.176 0 L3.176 0.248 C2.743 0.2695 2.66 0.416 2.682 0.623 C2.7 0.79 2.825 1.1865 2.886 1.3535 L5.566 10.042 L5.609 10.042 L8.452 1.082 C8.495 0.9365 8.533 0.8125 8.533 0.6865 C8.533 0.4355 8.434 0.3115 8.103 0.248 L8.103 0 L10.967 0 L10.967 0.248 C10.512 0.291 10.453 0.623 10.328 0.999 L6.986 11.459 C6.886 11.7705 6.823 11.9795 6.823 12.125 C6.823 12.3144 6.926 12.4384 7.091 12.459 L7.091 12.709 L3.999 12.709 L3.999 12.459 C4.208 12.4384 4.247 12.292 4.247 12.1884 C4.247 12.0849 4.185 11.8545 4.143 11.7304 L0.535 0.8955 C0.433 0.54 0.188 0.3115 0 0.248 L0 0 L3.176 0 " transform="translate(542.355, 71.4014)"/>
    <path style="fill:#000000; fill-rule:nonzero;stroke:none;" d="M0 12.709 L0 12.459 C0.309 12.459 0.516 12.2099 0.516 11.8759 L0.516 0.834 C0.516 0.5 0.309 0.248 0 0.248 L0 0 L3.134 0 L3.134 0.248 C2.824 0.248 2.617 0.5 2.617 0.834 L2.617 11.8759 C2.617 12.2099 2.824 12.459 3.134 12.459 L3.134 12.709 L0 12.709 " transform="translate(558.351, 71.4014)"/>
    <path style="fill:#000000; fill-rule:nonzero;stroke:none;" d="M3.215 13.127 L3.215 12.877 C3.527 12.877 3.731 12.6279 3.731 12.2939 L3.731 2.209 L0.909 2.209 C0.413 2.209 0.269 2.3545 0.248 2.627 L0 2.627 L0 0 L0.248 0 C0.269 0.2705 0.413 0.418 0.909 0.418 L8.658 0.418 C9.151 0.418 9.296 0.2705 9.317 0 L9.567 0 L9.567 2.627 L9.317 2.627 C9.296 2.3545 9.151 2.209 8.658 2.209 L5.834 2.209 L5.834 12.2939 C5.834 12.6279 6.04 12.877 6.351 12.877 L6.351 13.127 L3.215 13.127 " transform="translate(566.637, 70.9834)"/>
    <path style="fill:#000000; fill-rule:nonzero;stroke:none;" d="M7.132 7.876 L6.887 7.876 C6.864 7.6064 6.72 7.459 6.226 7.459 L2.617 7.459 L2.617 11.335 L8.659 11.335 C9.154 11.335 9.295 11.1895 9.317 10.9189 L9.565 10.9189 L9.565 13.5439 L9.317 13.5439 C9.295 13.2725 9.154 13.127 8.659 13.127 L0 13.127 L0 12.877 C0.31 12.877 0.516 12.6279 0.516 12.2939 L0.516 1.252 C0.516 0.918 0.31 0.666 0 0.666 L0 0.418 L8.618 0.418 C9.111 0.418 9.254 0.2705 9.277 0 L9.523 0 L9.523 2.627 L9.277 2.627 C9.254 2.3545 9.111 2.209 8.618 2.209 L2.617 2.209 L2.617 5.667 L6.226 5.667 C6.72 5.667 6.864 5.5215 6.887 5.25 L7.132 5.25 L7.132 7.876 " transform="translate(581.438, 70.9834)"/>
    <path style="fill:#000000; fill-rule:nonzero;stroke:none;" d="M6.349 13.127 L6.349 12.877 C6.038 12.877 5.834 12.6279 5.834 12.2939 L5.834 2.209 L8.659 2.209 C9.151 2.209 9.296 2.3545 9.318 2.627 L9.564 2.627 L9.564 0 L9.318 0 C9.296 0.2705 9.151 0.418 8.659 0.418 L0.907 0.418 C0.414 0.418 0.267 0.2705 0.247 0 L0 0 L0 2.627 L0.247 2.627 C0.267 2.3545 0.414 2.209 0.907 2.209 L3.731 2.209 L3.731 12.2939 C3.731 12.6279 3.525 12.877 3.215 12.877 L3.215 13.127 L6.349 13.127 " transform="translate(596.672, 70.9834)"/>
    <path style="fill:#000000; fill-rule:nonzero;stroke:none;" d="M1.276 9.1045 L1.482 9.2314 L1.482 9.5224 C1.482 10.4805 3.463 11.334 5.257 11.334 C6.659 11.334 7.691 10.668 7.691 9.251 C7.691 6.25 0.27 8.792 0.27 3.875 C0.27 1.666 1.876 0 4.677 0 C6.163 0 7.193 0.3115 7.915 0.6035 C8.616 0.8955 8.987 1.208 9.151 1.208 C9.234 1.208 9.317 1.167 9.379 1.1045 L9.585 1.1875 L8.328 3.666 L8.119 3.5635 C8.119 2.584 6.945 1.791 4.927 1.791 C3.194 1.791 2.203 2.458 2.203 3.498 C2.203 6.667 9.708 4.042 9.708 9.1465 C9.708 11.668 7.77 13.1269 5.049 13.1269 C3.545 13.1269 2.494 12.793 1.772 12.4599 C1.03 12.1055 0.515 11.7715 0.33 11.7715 C0.27 11.7715 0.228 11.8144 0.184 11.834 L0 11.709 L1.276 9.1045 " transform="translate(610.751, 71.1924)"/>
    <path style="fill:#000000; fill-rule:nonzero;stroke:none;" d="M0 12.709 L0 12.459 C0.434 12.3965 0.516 12.0009 0.701 11.4804 L4.144 0.8955 C4.184 0.79 4.184 0.623 4.184 0.5195 C4.184 0.374 4.101 0.2695 3.935 0.248 L3.935 0 L7.277 0 L7.277 0.248 C7.111 0.291 7.031 0.3945 7.031 0.582 C7.031 0.749 7.05 0.958 7.172 1.331 L10.493 11.792 C10.657 12.292 10.719 12.4179 11.05 12.459 L11.05 12.709 L8.245 12.709 L8.245 12.459 C8.433 12.459 8.492 12.3965 8.492 12.2304 C8.492 12.1045 8.433 11.8759 8.365 11.7304 L7.524 9.291 L3.298 9.291 L2.452 11.6679 C2.391 11.8545 2.349 11.9795 2.349 12.125 C2.349 12.3554 2.43 12.4179 2.701 12.459 L2.701 12.709 L0 12.709 Z M3.855 7.5 L7.009 7.5 L5.462 2.417 L5.42 2.417 L3.855 7.5 Z" transform="translate(634.703, 71.4014)"/>
    <path style="fill:#000000; fill-rule:nonzero;stroke:none;" d="M5.421 5.082 L9.603 11.833 C9.872 12.292 10.039 12.3965 10.429 12.459 L10.429 12.709 L7.09 12.709 L7.09 12.459 C7.359 12.4384 7.42 12.3759 7.42 12.2715 C7.42 12.167 7.379 12.0009 7.274 11.8545 L3.997 6.6045 L2.617 8.041 L2.617 11.8759 C2.617 12.2099 2.826 12.459 3.133 12.459 L3.133 12.709 L0 12.709 L0 12.459 C0.307 12.459 0.515 12.2099 0.515 11.8759 L0.515 0.834 C0.515 0.5 0.307 0.248 0 0.248 L0 0 L3.133 0 L3.133 0.248 C2.826 0.248 2.617 0.5 2.617 0.834 L2.617 5.499 L6.925 0.8125 C7.008 0.707 7.09 0.623 7.09 0.4785 C7.09 0.374 7.029 0.2695 6.843 0.248 L6.843 0 L10.039 0 L10.039 0.248 C9.626 0.3525 9.44 0.582 9.152 0.8955 L5.421 5.082 " transform="translate(650.617, 71.4014)"/>
    <path style="fill:#000000; fill-rule:nonzero;stroke:none;" d="M0 12.709 L0 12.459 C0.432 12.3965 0.515 12.0009 0.7 11.4804 L4.143 0.8955 C4.182 0.79 4.182 0.623 4.182 0.5195 C4.182 0.374 4.103 0.2695 3.936 0.248 L3.936 0 L7.275 0 L7.275 0.248 C7.11 0.291 7.027 0.3945 7.027 0.582 C7.027 0.749 7.05 0.958 7.172 1.331 L10.491 11.792 C10.656 12.292 10.717 12.4179 11.047 12.459 L11.047 12.709 L8.244 12.709 L8.244 12.459 C8.431 12.459 8.492 12.3965 8.492 12.2304 C8.492 12.1045 8.431 11.8759 8.37 11.7304 L7.522 9.291 L3.296 9.291 L2.453 11.6679 C2.391 11.8545 2.351 11.9795 2.351 12.125 C2.351 12.3554 2.431 12.4179 2.697 12.459 L2.697 12.709 L0 12.709 Z M3.852 7.5 L7.007 7.5 L5.461 2.417 L5.419 2.417 L3.852 7.5 Z" transform="translate(665.17, 71.4014)"/>
    <path style="fill:#000000; fill-rule:nonzero;stroke:none;" d="M0.515 0.834 C0.515 0.5 0.31 0.248 0 0.248 L0 0 L4.7 0 C8.638 0 10.74 2.1035 10.74 6.208 C10.74 10.6259 8.842 12.709 4.556 12.709 L0 12.709 L0 12.459 C0.31 12.459 0.515 12.2099 0.515 11.8759 L0.515 0.834 Z M2.62 10.917 L4.514 10.917 C7.463 10.917 8.638 9.875 8.638 6.292 C8.638 2.957 7.256 1.791 4.371 1.791 L2.62 1.791 L2.62 10.917 Z" transform="translate(681.288, 71.4014)"/>
    <path style="fill:#000000; fill-rule:nonzero;stroke:none;" d="M7.132 7.876 L6.885 7.876 C6.864 7.6064 6.721 7.459 6.227 7.459 L2.618 7.459 L2.618 11.335 L8.658 11.335 C9.151 11.335 9.297 11.1895 9.316 10.9189 L9.564 10.9189 L9.564 13.5439 L9.316 13.5439 C9.297 13.2725 9.151 13.127 8.658 13.127 L0 13.127 L0 12.877 C0.31 12.877 0.515 12.6279 0.515 12.2939 L0.515 1.252 C0.515 0.918 0.31 0.666 0 0.666 L0 0.418 L8.618 0.418 C9.112 0.418 9.254 0.2705 9.277 0 L9.524 0 L9.524 2.627 L9.277 2.627 C9.254 2.3545 9.112 2.209 8.618 2.209 L2.618 2.209 L2.618 5.667 L6.227 5.667 C6.721 5.667 6.864 5.5215 6.885 5.25 L7.132 5.25 L7.132 7.876 " transform="translate(697.428, 70.9834)"/>
    <path style="fill:#000000; fill-rule:nonzero;stroke:none;" d="M0 12.709 L0 12.459 C0.391 12.459 0.473 12.2099 0.473 11.8759 L0.473 0.834 C0.473 0.5 0.391 0.248 0 0.248 L0 0 L3.627 0 L3.627 0.248 C3.421 0.2695 3.258 0.3945 3.258 0.6035 C3.258 0.8125 3.443 1.207 3.523 1.498 L5.918 7.666 L8.308 1.4785 C8.473 1.082 8.553 0.7285 8.553 0.623 C8.553 0.3945 8.409 0.2695 8.16 0.248 L8.16 0 L11.687 0 L11.687 0.248 C11.46 0.248 11.255 0.5 11.255 0.834 L11.255 11.8759 C11.255 12.2099 11.46 12.459 11.687 12.459 L11.687 12.709 L9.006 12.709 L9.006 12.459 C9.315 12.459 9.358 12.2099 9.358 11.8759 L9.358 3.207 L9.315 3.207 L5.79 12.709 L2.411 3.207 L2.371 3.207 L2.371 11.8759 C2.371 12.2099 2.411 12.459 2.72 12.459 L2.72 12.709 L0 12.709 " transform="translate(712.683, 71.4014)"/>
    <path style="fill:#000000; fill-rule:nonzero;stroke:none;" d="M0 12.709 L0 12.459 C0.309 12.459 0.513 12.2099 0.513 11.8759 L0.513 0.834 C0.513 0.5 0.309 0.248 0 0.248 L0 0 L3.133 0 L3.133 0.248 C2.823 0.248 2.616 0.5 2.616 0.834 L2.616 11.8759 C2.616 12.2099 2.823 12.459 3.133 12.459 L3.133 12.709 L0 12.709 " transform="translate(730.534, 71.4014)"/>
    <path style="fill:#000000; fill-rule:nonzero;stroke:none;" d="M7.131 7.876 L6.882 7.876 C6.862 7.6064 6.719 7.459 6.222 7.459 L2.616 7.459 L2.616 11.335 L8.656 11.335 C9.152 11.335 9.297 11.1895 9.315 10.9189 L9.565 10.9189 L9.565 13.5439 L9.315 13.5439 C9.297 13.2725 9.152 13.127 8.656 13.127 L0 13.127 L0 12.877 C0.308 12.877 0.513 12.6279 0.513 12.2939 L0.513 1.252 C0.513 0.918 0.308 0.666 0 0.666 L0 0.418 L8.614 0.418 C9.109 0.418 9.254 0.2705 9.274 0 L9.521 0 L9.521 2.627 L9.274 2.627 C9.254 2.3545 9.109 2.209 8.614 2.209 L2.616 2.209 L2.616 5.667 L6.222 5.667 C6.719 5.667 6.862 5.5215 6.882 5.25 L7.131 5.25 L7.131 7.876 " transform="translate(739.831, 70.9834)"/>
    <path style="fill:#000000; fill-rule:nonzero;stroke:none;" d="M9.976 11.8759 C9.976 12.2099 10.224 12.459 10.533 12.459 L10.533 12.709 L7.235 12.709 L7.235 12.459 C7.608 12.459 7.69 12.334 7.69 12.1884 C7.69 11.9375 7.378 11.4394 7.235 11.1884 L2.37 3.124 L2.33 3.124 L2.33 11.8759 C2.33 12.2099 2.535 12.459 2.847 12.459 L2.847 12.709 L0 12.709 L0 12.459 C0.31 12.459 0.517 12.2099 0.517 11.8759 L0.517 0.834 C0.517 0.5 0.31 0.248 0 0.248 L0 0 L3.506 0 L3.506 0.248 C3.298 0.2695 3.154 0.3525 3.154 0.5615 C3.154 0.8535 3.342 1.082 3.547 1.416 L8.124 8.834 L8.163 8.834 L8.163 0.834 C8.163 0.5 7.957 0.248 7.647 0.248 L7.647 0 L10.533 0 L10.533 0.248 C10.224 0.248 9.976 0.5 9.976 0.834 L9.976 11.8759 " transform="translate(755.124, 71.4014)"/>
    <path style="fill:#000000; fill-rule:nonzero;stroke:none;" d="M3.449 0 C5.943 0 6.942 1.786 6.942 3.923 C6.942 6.191 6.351 8.027 3.449 8.027 C0.773 8.027 0 6.191 0 3.923 C0 1.835 0.909 0 3.449 0 " transform="translate(256.11, 113.279)"/>
    <path style="fill:#000000; fill-rule:nonzero;stroke:none;" d="M3.448 0 C5.942 0 6.939 1.791 6.939 3.922 C6.939 6.191 6.351 8.026 3.448 8.026 C0.772 8.026 0 6.191 0 3.922 C0 1.834 0.906 0 3.448 0 " transform="translate(695.47, 113.28)"/>
    <path style="fill:#000000; fill-rule:nonzero;stroke:none;" d="M84.7325 0 C38.0118 0 0 38.4228 0 85.6494 C0 132.879 38.0118 171.301 84.7325 171.301 C131.454 171.301 169.464 132.879 169.464 85.6494 C169.464 38.4228 131.454 0 84.7325 0 Z M84.7325 2.43945 C130.124 2.43945 167.052 39.7666 167.052 85.6494 C167.052 104.188 161.017 121.323 150.839 135.168 L116.609 135.109 C114.403 134.983 112.259 135.172 109.928 134.726 C108.421 131.795 104.639 133.388 101.804 132.88 L101.679 101.416 C102.495 100.781 103 99.7677 102.812 98.7447 C103.756 98.1737 105.02 97.4097 105.586 96.3277 C108.421 95.8157 111.568 96.7677 113.018 93.6497 C113.899 90.1484 111.381 86.8974 109.869 83.8408 L105.081 73.9091 C104.321 73.082 103.124 73.3349 102.121 73.2734 L86.8731 73.1474 C86.3047 70.7851 87.7559 67.2216 84.667 66.457 C83.5957 66.2685 82.5245 66.457 81.7706 67.1572 C80.2559 68.6884 81.3282 71.3632 81.0157 73.1474 C76.542 73.8457 70.3038 72.7002 64.8858 73.6572 C64.0664 74.1621 62.9317 74.4199 62.4913 75.3066 L54.6807 90.4052 C54.3653 92.124 54.4883 94.1587 55.4991 95.4327 C57.2618 96.8317 59.9707 96.2637 62.1172 96.8317 C62.7452 97.7887 63.5616 98.4267 64.5704 98.8087 C64.6368 99.8297 64.6368 100.975 65.0762 101.864 L65.3272 132.495 C62.9952 132.88 59.8487 131.482 58.3965 133.703 L39.1192 133.768 L17.3301 133.336 C7.93846 119.824 2.41309 103.382 2.41309 85.6494 C2.41309 39.7666 39.3418 2.43945 84.7325 2.43945 Z M128.105 156.334 C127.045 154.662 126.071 152.939 126.121 150.903 C129.582 150.574 132.424 150.884 135.737 150.903 C133.3 152.852 130.754 154.667 128.105 156.334 Z M31.5577 149.088 C35.2696 149.067 38.5831 149.451 41.8272 149.184 C42.709 150.582 41.4522 152.177 41.2598 153.706 L40.3526 155.683 C37.2715 153.683 34.3389 151.474 31.5577 149.088 Z M21.9424 139.377 C21.9209 138.68 22.5645 137.972 22.8028 137.339 C23.4327 136.446 23.8057 135.299 24.8174 134.661 C28.0928 134.92 31.7471 134.341 34.836 135.109 C34.3311 136.954 33.8252 139.185 31.9375 140.137 L30.8038 140.393 L22.4883 140.024 C22.3047 139.81 22.1241 139.595 21.9424 139.377 Z M18.2842 134.691 L23.1153 134.726 C22.7481 136.654 22.1993 137.157 20.9913 138.215 C20.0596 137.063 19.1543 135.892 18.2842 134.691 Z M45.4834 140.01 L44.7276 140.458 C41.1973 140.204 37.795 140.519 33.7012 140.01 C34.459 138.291 35.1504 136.383 36.2217 134.851 C36.9776 134.411 38.1104 135.109 38.9297 134.661 L39.5577 134.851 C39.9395 134.535 40.5674 134.6 40.9483 134.787 C43.0274 134.411 44.9795 134.851 46.9932 135.044 L45.4834 140.01 Z M48.7637 134.851 C51.2793 135.36 55.5606 134.92 58.085 135.234 L56.7579 140.393 C53.3565 140.393 50.0176 140.519 46.6817 140.331 L46.4883 140.137 C47.2481 138.36 47.1211 136.06 48.7637 134.851 Z M33.8887 141.093 C36.7237 141.156 41.3252 141.289 44.9141 141.478 C44.4756 143.706 43.7198 145.741 43.086 147.843 L42.6495 148.163 C38.6143 148.099 34.2686 148.295 30.6143 148.038 C30.2373 147.654 30.5508 146.89 30.5508 146.447 C31.7471 144.722 31.9375 141.987 33.8887 141.093 Z M41.5059 156.406 L43.5918 149.439 C47.3106 148.612 50.336 149.881 54.3653 149.439 L52.3516 157.145 C49.1875 157.2 46.2471 157.037 43.0127 157.339 C42.503 157.037 42.0069 156.719 41.5059 156.406 Z M43.9707 148.163 C44.8555 146.062 45.2315 143.706 46.0518 141.604 C47.0547 140.708 47.8135 141.093 49.0079 141.289 C49.5137 141.029 49.5137 141.221 49.9532 141.478 L56.3799 141.541 L54.6172 148.163 L43.9707 148.163 Z M55.25 155.489 L60.2862 134.787 L60.8565 134.278 C62.3653 134.278 63.8799 134.151 65.3272 134.341 L65.3272 140.393 C64.4473 140.519 63.4366 140.582 63.0567 141.541 C63.251 142.685 62.6797 143.644 61.6114 144.021 C61.3555 144.98 61.2305 146 61.294 147.143 C59.9112 147.717 59.9707 149.439 59.6543 150.778 C59.5928 151.538 60.0352 152.238 60.3536 152.811 L61.4844 153.322 L106.589 153.131 C107.411 152.751 107.724 151.854 107.852 150.967 C107.724 149.568 107.792 147.779 106.34 147.016 C106.276 145.679 106.969 143.644 105.458 142.937 C103.506 143.449 105.332 140.839 103.884 140.582 C103.193 140.267 101.869 140.708 101.869 139.569 L101.869 134.851 C103.884 134.851 106.402 134.278 108.103 135.424 L113.65 154.917 C113.65 155.489 113.269 156.062 112.702 156.125 L111.129 156.062 L55.6856 156.062 C55.4991 155.936 55.1192 155.805 55.25 155.489 Z M82.5245 87.5947 C77.9903 87.8554 73.8311 87.5947 69.3575 87.792 C69.2325 87.7295 69.2325 87.4765 69.3575 87.3457 C73.4502 86.583 77.4844 85.1767 81.5196 83.9687 C82.0245 83.8408 82.337 84.3535 82.3985 84.8007 C82.6514 85.625 82.462 86.6445 82.5245 87.5947 Z M79.502 83.2705 L79.0596 83.6533 L66.5254 87.1562 L66.3975 86.9658 L67.7237 83.206 C71.628 83.332 75.5948 83.1435 79.502 83.2705 Z M68.2266 81.6757 L69.4844 78.7451 C72.5108 79.3222 75.9747 80.789 79.0596 81.7382 L79.0596 81.9336 C75.5948 82.0586 71.9424 81.8701 68.3487 81.8701 L68.2266 81.6757 Z M80.9483 81.04 C78.5547 79.8945 75.7842 80.0205 73.5186 78.5576 L73.7061 78.1757 L81.0782 78.3056 L81.2657 80.9785 L80.9483 81.04 Z M81.0782 77.3496 L68.3487 77.2236 L67.6563 78.1757 C66.3975 81.6757 65.3272 85.247 63.5616 88.4921 C63.5616 88.749 63.6885 89.0644 64.0039 89.0009 L82.7178 88.9375 C82.6514 89.4511 82.9659 89.8964 83.2803 90.2099 L84.1006 90.6582 L57.3272 90.7197 C57.9532 87.4072 60.1602 84.7363 61.7354 81.8076 L65.0762 76.0117 L65.9551 75.7558 C71.0577 75.6914 75.9131 75.5664 81.0782 75.6308 L81.0782 77.3496 Z M89.584 82.123 C89.2657 81.4228 90.2754 81.7382 90.5899 81.4228 C93.8028 80.663 96.5748 79.4521 99.7898 78.6836 C101.615 78.5576 101.363 80.8525 102.121 81.9961 C97.9618 82.1855 93.7408 82.0586 89.584 82.123 Z M102.688 83.332 L103.942 86.6445 C103.942 86.8359 103.691 87.0918 103.38 87.0293 L89.2041 83.5908 C88.9512 83.3955 89.2041 83.332 89.2657 83.206 C93.6778 83.3955 98.2758 83.206 102.688 83.332 Z M96.4488 78.7451 L86.8106 81.2988 C86.6836 80.4023 86.6836 79.2578 86.9981 78.4306 C90.1485 78.4931 93.3623 78.3056 96.4488 78.5576 L96.4488 78.7451 Z M100.672 87.5947 L100.672 87.7295 C95.8168 87.8554 90.6524 87.667 85.8633 87.667 C85.6143 86.3252 85.6143 84.9892 86.3682 83.9062 C91.0948 85.1142 96.0078 86.2617 100.672 87.5947 Z M85.7383 89.5127 L85.8008 88.9375 L105.586 88.8125 C106.022 88.749 106.15 88.2392 106.215 87.8554 C106.022 87.0293 105.392 86.2617 105.392 85.3086 C104.072 83.3955 103.942 80.8525 102.308 79.0693 C102.371 78.4306 102.121 77.8593 101.679 77.538 C99.5348 77.0273 96.1978 77.2851 93.8688 77.2851 C91.5977 77.4121 89.2041 77.4755 86.7481 77.2236 L86.7481 75.1806 C91.4092 75.2451 97.6468 75.2451 103.38 75.2451 C105.963 80.1513 108.988 84.8632 110.94 90.0214 C110.877 90.8457 109.804 90.2744 109.238 90.4638 L84.6055 90.6582 C85.1104 90.4052 85.4864 90.0214 85.7383 89.5127 Z M84.2237 82.4443 C83.5957 82.5078 83.1543 82.4443 82.9034 81.9336 C82.8418 77.6621 82.9034 73.2089 82.8418 69.0664 C82.9034 68.624 83.2803 68.3671 83.6582 68.3027 C84.2911 68.1757 84.795 68.624 84.9161 69.1347 L85.045 81.7382 C84.9161 82.123 84.6055 82.3818 84.2237 82.4443 Z M57.4541 92.3134 L104.576 92.0556 L110.624 92.0556 C111.063 92.2509 111.381 92.5664 111.381 93.0777 C111.381 93.6497 110.815 93.9017 110.373 94.0337 L85.8633 94.2227 L58.2706 94.1587 C57.5762 94.2227 57.3272 93.5227 56.9502 93.0127 C56.7579 92.6298 57.2618 92.5029 57.4541 92.3134 Z M99.5348 99.4447 C99.4728 99.8907 99.3458 100.465 98.8438 100.527 L68.1602 100.718 C67.5938 100.718 67.4688 100.145 67.3448 99.7677 C67.3448 99.3187 67.5342 98.9357 67.9717 98.9357 C68.1602 98.9357 68.3487 98.9357 68.4151 98.7447 C68.2266 98.0417 67.1504 98.5497 66.5879 98.1737 C66.2715 98.0417 65.8956 97.7887 65.8311 97.4097 C65.7686 97.0257 65.8956 96.5797 66.2715 96.4527 L101.679 96.3277 C101.804 96.3277 101.869 96.3897 102.056 96.3897 C102.183 97.1517 101.493 97.6627 100.92 97.9197 C100.103 98.2997 99.0988 98.1087 98.2758 98.4937 C98.3388 99.2557 99.4728 98.6207 99.5348 99.4447 Z M67.6563 116.702 C68.1602 112.819 67.2198 109.315 67.7832 105.052 C67.6563 104.413 67.7237 103.331 67.6563 102.437 L67.9717 102.185 L96.5748 102.122 L99.2238 102.185 L99.4728 113.712 L99.4108 139.822 L98.8438 140.073 C93.9948 140.519 88.8887 140.267 83.9141 140.331 L83.2803 140.137 L68.7305 140.073 L67.7832 139.948 C67.6563 131.607 67.9717 123.707 67.6563 116.702 Z M77.7373 142.241 L102.433 142.496 C102.62 142.623 102.875 142.812 102.812 143.073 C102.751 143.384 101.493 143.323 102.242 143.897 C103.064 144.086 104.825 143.261 104.639 144.722 C104.639 145.365 104.825 146.314 104.009 146.377 C99.2858 146.573 93.9948 146.127 87.7559 146.314 C82.1475 146.7 76.7276 146 71.3145 146.377 L63.4366 146.447 C63.375 145.804 63.251 144.916 63.5616 144.273 C64.1954 144.086 65.2012 144.47 65.3907 143.771 C65.3272 143.449 65.0137 143.644 64.8243 143.576 C64.6954 143.073 64.8243 142.301 65.4493 142.301 C70.1797 142.43 73.3321 142.365 77.7373 142.241 Z M104.767 147.911 C105.458 148.612 105.649 149.755 105.268 150.714 L104.767 151.029 L62.4913 151.155 C61.8614 150.714 62.0479 149.694 62.0479 148.995 C62.3038 148.612 62.3038 148.099 62.7452 147.843 L104.767 147.911 Z M120.83 141.289 L111.759 141.289 L110.185 136.13 L118.684 136.13 L119.13 136.383 C119.762 137.913 120.513 139.626 120.83 141.289 Z M120.392 137.147 L120.392 136.383 C123.788 136.194 126.183 136.194 129.652 136.383 C130.785 137.85 131.352 139.569 131.729 141.289 L122.086 141.289 L120.392 137.147 Z M112.073 142.43 L120.83 142.43 L121.65 143.135 C122.531 145.233 123.35 147.402 124.106 149.568 L114.153 149.631 L112.073 142.43 Z M119.257 150.714 C119.635 150.714 120.075 150.457 120.392 150.521 C121.083 150.582 121.967 151.155 122.591 150.521 C123.284 150.582 124.292 150.582 124.798 151.218 L126.813 156.761 C123.668 157.145 119.382 157.145 116.231 156.949 L114.403 150.645 C115.913 150.33 117.744 150.521 119.257 150.714 Z M125.489 149.568 L125.052 148.995 C124.421 146.826 122.659 144.916 123.223 142.496 C124.292 141.793 125.744 143.384 126.878 142.43 C128.64 142.937 130.973 142.43 132.865 142.876 C133.931 144.47 134.942 146.187 135.446 148.038 C136.139 148.295 135.764 149.184 135.952 149.631 L125.489 149.568 Z M131.16 136.572 C135.764 136.255 138.157 136.255 142.881 136.507 C144.072 137.971 145.076 139.615 145.897 141.272 C145.892 141.278 145.887 141.283 145.881 141.289 L133.558 141.289 L131.16 136.572 Z M146.569 140.502 C145.738 139.386 145.288 138.131 144.578 136.954 C146.028 135.807 147.542 136.759 149.117 136.507 L149.755 136.612 C148.732 137.941 147.667 139.237 146.569 140.502 Z M23.4414 141.105 L31.6836 141.156 C31.4698 143.318 30.3985 145.202 29.3057 147.086 C27.253 145.194 25.2959 143.197 23.4414 141.105 Z M84.7325 168.862 C75.5498 168.862 66.7227 167.311 58.4698 164.495 L111.609 164.284 C103.179 167.237 94.1418 168.862 84.7325 168.862 Z M90.0196 162.303 L53.6836 162.697 C50.8018 161.506 48.001 160.151 45.2911 158.65 L124.107 158.697 C121.679 160.039 119.183 161.271 116.617 162.363 L90.0196 162.303 Z M137.653 149.323 L134.375 142.876 C135.824 142.496 138.092 142.685 139.602 142.812 L139.983 142.43 L144.409 142.889 C142.278 145.158 140.024 147.307 137.653 149.323 Z" transform="translate(6.32324, 7.36426)"/>
    <path style="fill:#000000; fill-rule:nonzero;stroke:none;" d="M0.5664 42.0889 C1.1992 42.4102 1.3272 41.71 1.4483 41.3271 L1.1992 0.5078 C0.9444 0 0.5664 0.377 0.1905 0.377 C0 3.9482 0.0625 7.6406 0.1231 11.2061 L0 40.9492 L0.5664 42.0889 " transform="translate(90.4238, 28.5459)"/>
    <path style="fill:#000000; fill-rule:nonzero;stroke:none;" d="M5.7314 0 C4.7265 0.1904 5.29 1.336 4.9756 1.9785 L1.0068 39.7403 C1.0713 41.586 0 43.4951 1.4512 44.8985 C1.5762 44.7041 1.8887 44.6397 1.8887 44.3877 C2.6484 39.6143 3.0263 34.7705 3.4638 29.9961 L5.7949 7.5156 C5.6054 4.8379 7.0547 2.3574 5.7314 0 " transform="translate(80.5967, 29.3076)"/>
    <path style="fill:#000000; fill-rule:nonzero;stroke:none;" d="M7.5548 45.2138 C7.7468 45.3388 7.9328 45.5966 8.1248 45.4091 L0.6914 0.1259 L0.5039 0 C0.2491 0.1259 0.1231 0.2587 0 0.5097 L4.6578 29.4228 C5.6668 34.3886 5.9848 39.9921 7.5548 45.2138 " transform="translate(95.9072, 29.8809)"/>
    <path style="fill:#000000; fill-rule:nonzero;stroke:none;" d="M8.3125 0.3213 L0.248 35.6661 C0.125 36.4268 0 37.2569 0.4355 37.8936 C0.6299 38.083 0.8193 37.958 0.9414 37.7608 C2.583 31.9043 4.4697 26.0459 5.415 19.9981 L9.4473 0.5108 C9.1982 0 8.6933 0.1953 8.3125 0.3213 " transform="translate(73.0381, 29.9443)"/>
    <path style="fill:#000000; fill-rule:nonzero;stroke:none;" d="M0.698 0 C0.506 0.123 0 0.123 0.193 0.5732 L11.279 39.7392 C11.403 40.3769 11.783 40.9472 12.163 41.331 C12.35 41.457 12.54 41.2002 12.54 41.1367 L0.884 0.0635 L0.698 0 " transform="translate(100.942, 30.4551)"/>
    <path style="fill:#000000; fill-rule:nonzero;stroke:none;" d="M14.4258 0 C13.8604 0.1894 13.4785 0.7627 13.1651 1.1416 L4.2813 25.6601 C3.7774 26.2978 3.7774 27.123 3.3975 27.8281 C1.8887 30.8193 1.5742 34.2588 0 37.1885 L0.125 38.4619 C0.4375 38.4619 0.8799 38.7197 1.1289 38.4619 L14.3614 2.8603 C14.4883 1.9707 15.5606 0.6299 14.4258 0 " transform="translate(57.9824, 30.7754)"/>
    <path style="fill:#000000; fill-rule:nonzero;stroke:none;" d="M16.7588 1.7842 C16.0644 2.8603 15.751 4.0127 15.3115 5.1523 C13.1699 14.1973 9.2637 22.4736 6.9336 31.457 C5.9863 34.1328 4.7265 36.6152 4.2851 39.4805 C2.8379 43.6201 1.5732 47.8848 0.2519 52.0225 C0 52.5332 0 53.3633 0.4414 53.6797 L0.8828 53.5527 C1.2617 52.7285 1.7656 51.8955 2.2041 51.1338 L12.2226 19.9932 L18.1426 0.8262 L17.7656 0.1269 C16.9463 0 17.0742 1.209 16.7588 1.7842 " transform="translate(59.2383, 30.7754)"/>
    <path style="fill:#000000; fill-rule:nonzero;stroke:none;" d="M1.386 1.3974 C1.323 0.7637 0 0 0.187 1.1465 C0.944 2.4179 1.386 3.8222 1.828 5.2217 C5.795 15.0918 8.882 25.2822 12.725 35.1553 L13.543 36.1094 L13.923 35.664 C12.034 30.7568 10.142 25.791 8.565 20.6963 L1.386 1.3974 " transform="translate(105.482, 30.4551)"/>
    <path style="fill:#000000; fill-rule:nonzero;stroke:none;" d="M16.1924 2.1026 C15.9394 3.8233 14.8086 5.0342 14.2383 6.6895 C13.3603 8.4083 12.3496 10.254 11.8467 12.0997 C7.874 21.0196 3.8447 29.9336 0.2549 38.9766 L0 40.4395 C0.3174 41.0743 0.7588 40.8848 1.2002 40.5713 L16.8252 5.2227 L18.7744 0.8946 C18.9023 0.5118 18.5264 0.3858 18.3984 0.252 C18.208 0.3858 18.084 0.1944 17.956 0.0645 C16.6973 0 16.8252 1.4043 16.1924 2.1026 " transform="translate(48.1504, 32.873)"/>
    <path style="fill:#000000; fill-rule:nonzero;stroke:none;" d="M1.078 1.083 C1.078 0.6377 0.193 0 0 0.7002 L1.642 5.0322 C9.39 19.8662 15.314 35.5322 23.373 50.1768 C23.878 50.0498 23.502 49.6084 23.502 49.2881 L1.078 1.083 " transform="translate(112.345, 32.6211)"/>
    <path style="fill:#000000; fill-rule:nonzero;stroke:none;" d="M0 0.6367 L21.23 35.2813 C21.607 35.5967 21.734 36.5528 22.427 36.2315 C22.364 35.8477 22.617 35.3428 22.176 35.1475 L0.814 0.378 C0.566 0 0.124 0.378 0 0.6367 " transform="translate(118.901, 35.4238)"/>
    <path style="fill:#000000; fill-rule:nonzero;stroke:none;" d="M27.3418 0.831 C26.8389 0 26.208 0.8945 25.5752 0.957 C21.167 8.1514 17.0703 15.8594 12.5381 23.1152 C10.6484 27.3857 7.876 31.1416 5.5449 35.2148 C5.5449 35.9853 4.6611 36.2998 4.5977 37.0625 C3.084 39.7393 1.7617 42.3535 0.0615 45.0234 L0 45.7295 C0.3145 46.0439 1.1338 46.1074 1.5762 45.9199 L27.1484 1.5937 L27.3418 0.831 " transform="translate(33.1582, 35.2295)"/>
    <path style="fill:#000000; fill-rule:nonzero;stroke:none;" d="M1.6445 8.458 L0.7607 9.5195 L4.707 9.1074 C2.8242 8.5791 3.9014 6.5967 3.3965 5.4151 L4.0195 5.2666 C4.8711 6.4414 5.79 7.6846 6.5723 8.9356 L9.4834 8.7471 C7.9443 7.8623 7.0137 6.126 6.0908 4.8086 C6.6455 4.6582 7.1172 4.0928 7.457 3.667 C7.8594 2.8867 7.7119 2.0498 7.0771 1.4317 C4.7666 0 2.4932 0.9453 0 0.9903 L1.1221 1.8779 L1.6445 8.458 Z M5.3574 2.5772 C5.5801 3.2793 5.1777 3.916 4.626 4.2754 L3.3848 4.5049 L3.1992 1.6319 C3.958 1.4834 4.998 1.6045 5.3574 2.5772 Z" transform="translate(79.8877, 12.8701)"/>
    <path style="fill:#000000; fill-rule:nonzero;stroke:none;" d="M3.6054 5.7178 C4.9974 5.6484 7.0454 6.3174 8.4984 5.0586 C9.0034 4.5918 9.1854 3.8379 9.0714 3.2695 C7.6994 0.249 4.1334 0.832 1.6034 0 L2.4454 1.2344 L1.1444 7.6943 L0 8.3369 L4.0534 9.1738 C2.3694 8.1758 3.6804 6.9815 3.6054 5.7178 Z M4.5384 1.3877 C5.5024 1.5283 6.5254 1.8076 6.8774 2.7471 C7.0984 3.6065 6.5604 4.3408 5.9134 4.6455 C5.2074 4.8057 4.5924 4.6953 3.9064 4.5059 L4.5384 1.3877 Z" transform="translate(99.9336, 13.5664)"/>
    <path style="fill:#000000; fill-rule:nonzero;stroke:none;" d="M2.3096 7.8809 C2.5273 8.6504 3.2314 9.2685 3.9297 9.5371 C5.0459 9.8691 6.4267 9.6338 7.3896 9.1309 C10.8906 7.251 7.7226 3.8008 7.8125 1.1357 L8.6269 0 C7.5898 0.2998 6.3496 0.5332 5.5215 0.751 L6.6387 1.4394 L7.8408 7.1592 C7.7129 7.7959 7.3076 8.2871 6.6846 8.5137 C5.9287 8.873 5.0937 8.5351 4.5303 7.915 L3.123 2.2646 L3.9346 1.1289 L0 2.041 L1.1846 2.7178 L2.3096 7.8809 " transform="translate(67.9131, 14.4795)"/>
    <path style="fill:#000000; fill-rule:nonzero;stroke:none;" d="M4.135 5.4316 C4.417 5.3828 4.54 5.6005 4.743 5.6845 L5.554 10.0244 L8.136 10.9052 C7.057 9.4287 7.256 7.6162 6.739 5.9648 C7.286 6.0703 7.924 5.9091 8.436 5.5205 C9.151 5.2197 9.21 4.3086 9.251 3.7539 C8.106 1.2148 5.063 1.0039 2.843 0 L3.461 1.1015 L1.286 7.4804 L0 8.0185 L3.798 9.3369 C2.279 8.1787 3.98 6.6826 4.135 5.4316 Z M5.454 2.041 C6.206 2.1777 6.932 2.665 7.067 3.5195 C7.081 4.1543 6.608 4.8134 6.043 4.9072 C5.403 5.0595 4.737 4.7236 4.47 4.5556 L5.454 2.041 Z" transform="translate(110.007, 16.1768)"/>
    <path style="fill:#000000; fill-rule:nonzero;stroke:none;" d="M2.6191 2.5957 L5.29 8.7021 L4.8017 10.0527 C5.9599 9.5801 7.3886 9.0107 8.4003 8.4648 C7.9101 8.3515 7.416 8.2353 7.1211 7.9033 L4.6611 1.7881 C5.5234 0.9697 6.5947 1.5469 7.5078 1.8515 C7.2011 1.2324 7.0224 0.4707 6.6503 0 L0 2.9414 L0.7138 4.7285 C1.1572 3.8633 1.5224 2.793 2.6191 2.5957 " transform="translate(57.8018, 17.959)"/>
    <path style="fill:#000000; fill-rule:nonzero;stroke:none;" d="M2.67 8.8847 C4.479 9.6816 6.307 9.4179 7.678 8.0576 C8.973 6.7705 9.487 4.8427 8.8 3.0937 C8.267 1.996 7.446 1.0781 6.367 0.6376 C4.752 0 2.983 0.3369 1.709 1.4228 C0.415 2.7119 0 4.2949 0.339 6.0126 C0.723 7.2382 1.53 8.3701 2.67 8.8847 Z M2.2 5.4736 C2.818 3.9091 3.543 1.9316 5.392 1.4619 C6.157 1.457 6.889 1.874 7.174 2.6035 C7.343 4.6582 6.196 6.6669 4.63 7.9394 C4.117 8.2431 3.343 8.3105 2.823 7.915 C1.959 7.4169 1.91 6.3632 2.2 5.4736 Z" transform="translate(121.356, 21.6729)"/>
    <path style="fill:#000000; fill-rule:nonzero;stroke:none;" d="M4.4599 8.3057 L4.0283 9.4463 L7.6162 7.5205 L6.2822 7.2354 L3.0195 1.3643 L3.5771 0 L0 2 L1.2588 2.2881 L4.4599 8.3057 " transform="translate(50.9805, 22.5498)"/>
    <path style="fill:#000000; fill-rule:nonzero;stroke:none;" d="M2.6718 3.3887 L6.4638 8.8848 L6.1835 10.2334 L9.4023 7.9014 L8.0751 7.6885 L4.3437 2.1865 C5.0644 1.2412 6.3242 1.459 7.166 1.6289 L5.9746 0 L0 4.2207 L1.0488 5.8516 C1.3525 4.9248 1.5019 3.7275 2.6718 3.3887 " transform="translate(42.0938, 27.0879)"/>
    <path style="fill:#000000; fill-rule:nonzero;stroke:none;" d="M4.752 9.7969 C5.988 9.3711 6.508 6.6162 8.255 7.167 L5.252 4.7754 L5.462 5.9942 C4.618 6.6797 4.303 8.1924 3.068 8.0479 C2.474 7.7666 1.844 7.1309 1.719 6.4151 C1.285 4.6729 2.714 3.1426 3.95 2.087 C4.778 1.5479 5.778 1.3116 6.771 1.7774 C8.172 2.3623 7.789 3.9375 8.208 5.1192 C8.694 4.5401 9.182 3.962 9.379 3.417 C8.699 2.001 7.394 1.2139 6.215 0.584 C4.184 0 2.013 0.1045 0.767 1.8633 C0.08 2.9815 0 4.3106 0.281 5.544 C0.87 7.7286 2.733 9.1368 4.752 9.7969 " transform="translate(131.063, 28.6484)"/>
    <path style="fill:#000000; fill-rule:nonzero;stroke:none;" d="M6.2901 9.5088 L6.2881 10.8574 L10.8301 5.7432 L9.3721 4.4873 C9.8916 6.0342 8.4932 6.9639 7.6748 8.0137 L5.3701 5.8252 C5.8623 4.8975 7.0293 4.2861 7.7471 4.3867 L5.8526 2.5615 C6.0215 3.669 5.5342 4.5967 4.6504 5.2285 L2.6865 3.4121 L4.3711 1.5859 L6.0244 1.3965 L4.5459 0 L0 5.1094 L1.3809 4.9668 L6.2901 9.5088 " transform="translate(33.8701, 33.7246)"/>
    <path style="fill:#000000; fill-rule:nonzero;stroke:none;" d="M1.31 5.9394 L0 5.7841 L2.735 8.7832 L2.677 7.4365 L4.854 5.4287 C4.984 5.5136 5.161 5.8203 5.291 5.9052 L4.038 10.1992 L5.909 12.1836 L5.887 11.122 C6.158 9.9511 6.488 8.2949 6.964 7.1543 C7.821 7.6074 8.716 7.7109 9.544 7.165 C11.411 4.2138 7.672 2.0869 6.097 0 L6.224 1.3593 L1.31 5.9394 Z M7.512 2.917 C8.093 3.3369 8.521 3.8759 8.438 4.5752 C8.362 5.2685 7.741 5.83 7.044 5.8242 C6.414 5.8203 5.991 5.2812 5.554 4.8047 L7.512 2.917 Z" transform="translate(137.76, 34.8555)"/>
    <path style="fill:#000000; fill-rule:nonzero;stroke:none;" d="M2.8877 8.3154 L3.0108 8.166 C4.7705 8.3789 6.3789 8.5351 8.1328 8.7519 C7.5948 7.1748 6.961 5.2549 6.4922 3.6787 L10.791 7.1338 L10.9629 8.5283 L13.4346 5.3808 L12.0557 5.5644 L6.8731 1.3974 L6.8379 0 L4.9336 2.3965 L6.3008 6.6416 L1.961 6.207 L0 8.7519 L1.2256 8.4482 L6.4864 12.7412 L6.585 13.9961 C7.2198 13.1767 8.1114 12.1211 8.4834 11.5302 L7.2481 11.7656 L2.8877 8.3154 " transform="translate(24.8281, 42.0762)"/>
    <path style="fill:#000000; fill-rule:nonzero;stroke:none;" d="M0 4.9912 L4.048 10.5332 L5.637 9.4462 C4.162 9.4912 3.345 8.125 2.498 6.9668 L5.081 5.081 C5.873 6.0918 6.294 6.706 5.954 7.8623 L8.086 6.2753 L6.792 5.9834 L5.772 4.5273 L7.967 3.0195 C8.676 4.1601 9.941 5.289 9.226 6.6875 L10.819 5.5361 L6.841 0 L6.691 1.3222 L1.293 5.2832 L0 4.9912 " transform="translate(144.954, 43.1143)"/>
    <path style="fill:#000000; fill-rule:nonzero;stroke:none;" d="M4.167 2.9521 C3.929 4.4033 4.809 5.915 3.326 6.6601 C2.824 6.8164 2.155 6.5224 1.801 5.9892 C1.123 5.2109 1.937 4.1719 1.95 3.3994 C1.332 3.3301 0.429 3.2949 0 3.3857 C0.618 4.7236 0.873 6.168 1.996 7.3525 C2.56 7.9101 3.339 8.4248 4.196 8.2431 C4.984 8.0527 5.88 7.5185 6.045 6.6953 C6.437 5.0439 5.404 3.0947 6.742 1.7646 C7.168 1.6728 7.65 1.7305 7.959 2.1211 C8.773 2.916 8.115 3.8271 7.95 4.6533 L9.824 4.7344 C9.214 3.3242 8.994 1.6055 7.64 0.6006 C6.783 0.1504 6.104 0 5.218 0.4658 C4.39 1.0019 4.2 2.04 4.167 2.9521 " transform="translate(150.843, 52.1924)"/>
    <path style="fill:#000000; fill-rule:nonzero;stroke:none;" d="M7.7734 2.2285 C5.1455 0.5722 4.0146 4.2861 1.7295 4.4863 C1.2099 4.2861 0.8564 3.7705 0.9912 3.2548 C1.1787 2.1669 2.3408 1.9863 2.9873 1.6093 L1.9101 0 C1.248 1.2324 0.3642 2.3603 0.1416 3.6669 C0 4.6074 0.1699 5.29 0.7636 5.9834 C3.2744 7.7949 4.7402 4.4589 6.748 3.7998 C7.4619 3.9091 8.0517 4.5957 7.955 5.3173 C7.9326 6.5976 6.3437 6.7675 5.7177 7.2861 L6.8545 8.8164 C7.6328 7.4209 8.8183 5.9668 8.7881 4.3447 C8.7509 3.6376 8.6103 2.6709 7.7734 2.2285 " transform="translate(18.4014, 59.502)"/>
    <path style="fill:#000000; fill-rule:nonzero;stroke:none;" d="M3.918 5.4834 L3.292 6.1152 C2.711 6.332 2.036 6.1084 1.678 5.5762 C0.868 4.7031 1.838 3.5459 1.861 2.7041 L0 2.4912 C0.465 3.9531 0.653 5.3867 1.481 6.6816 C2.076 7.6006 3.156 7.9307 4.219 7.7695 C4.871 7.5654 5.563 7.0088 5.775 6.332 C6.226 4.8301 5.344 2.7559 6.93 1.6729 C7.445 1.4492 7.803 1.9814 8.114 2.3037 C8.711 3.2129 7.935 3.9004 7.842 4.7373 C8.606 4.75 8.857 4.9961 9.691 5.0176 C9.215 3.6953 9.155 2.3486 8.251 1.1162 C7.763 0.498 7.122 0 6.209 0.0322 C3.576 0.5039 4.27 3.6143 3.918 5.4834 " transform="translate(155.236, 60.6875)"/>
    <path style="fill:#000000; fill-rule:nonzero;stroke:none;" d="M1.6943 1.2618 L1.1602 0 L0 3.9961 L1.1494 3.2559 L7.4551 5.1368 L8.0625 6.3907 L9.2422 2.5293 L8.0771 3.1993 L1.6943 1.2618 " transform="translate(14.8711, 68.4736)"/>
    <path style="fill:#000000; fill-rule:nonzero;stroke:none;" d="M0 2.6651 L1.229 6.6153 C1.424 6.1446 1.609 5.7442 1.793 5.3428 L8.03 3.2393 L9.282 3.8809 L8.045 0 L7.491 1.2041 L1.18 3.3653 L0 2.6651 " transform="translate(157.703, 69.2197)"/>
    <path style="fill:#000000; fill-rule:nonzero;stroke:none;" d="M6.7188 1.0547 C7.1719 2.2656 8.5577 3.543 7.5635 4.8965 C6.2237 6.2305 4.0938 5.5605 2.3321 5.0449 C1.5274 4.8144 0.7959 4.1514 0.8047 3.2226 C0.7139 1.6797 2.2002 1.3125 3.0489 0.4072 L1.0274 0 C0.337 1.0322 0.0274 2.2773 0 3.4912 C0.0508 5.25 1.0713 6.9365 2.792 7.668 C3.8448 8.1514 5.2901 7.9971 6.2696 7.4971 C8.2442 6.6328 8.9141 4.5459 8.8907 2.498 C9.46 1.1357 7.4737 1.4394 6.7188 1.0547 " transform="translate(12.9316, 76.4756)"/>
    <path style="fill:#000000; fill-rule:nonzero;stroke:none;" d="M0 1.8681 C0.645 4.1982 0.414 6.8525 2.3 8.6894 C2.682 9.0176 3.438 9.1025 3.953 8.8857 C4.839 8.4209 5.305 7.4179 5.421 6.374 L6.028 7.1474 C6.562 7.4179 7.135 7.9101 7.73 7.5537 C10.513 5.7627 8.37 2.4824 8.232 0 L7.543 1.1855 L1.177 2.5693 L0 1.8681 Z M5.87 3.6758 C6.771 3.709 8.645 2.5117 8.072 4.4951 C8.002 5.1181 7.398 5.5439 6.84 5.5498 C6.131 5.6797 5.479 5.25 5.343 4.6045 C5.259 4.0996 5.237 3.6709 5.87 3.6758 Z M4.288 4.0527 L4.529 5.6357 C4.322 6.249 3.768 6.8154 3.131 6.8867 C2.421 7.0127 1.864 6.3877 1.719 5.8056 L1.504 4.6484 C2.427 4.4775 3.301 4.1494 4.288 4.0527 Z" transform="translate(159.863, 76.8594)"/>
    <path style="fill:#000000; fill-rule:nonzero;stroke:none;" d="M6.9453 0.8897 L0.9815 1.0498 L0 0 L0.1865 3.2754 C0.4336 2.8516 0.7383 2.6309 1.002 2.2696 C2.9678 2.124 4.8682 2 6.917 2.1953 C7.5772 2.5313 7.9483 3.1612 7.9375 3.958 C7.9375 4.5332 7.4893 5.2989 6.9024 5.5254 L1.1006 5.791 L0.2236 4.8604 L0.3447 9.0196 L1.209 7.9278 C3.3115 7.753 5.5166 7.9785 7.5654 7.3067 C8.334 6.6699 8.8164 5.7559 8.8467 4.7334 C8.8057 3.1543 8.5332 1.4873 6.9453 0.8897 " transform="translate(12.3037, 87.4199)"/>
    <path style="fill:#000000; fill-rule:nonzero;stroke:none;" d="M1.476 1.3867 C0.315 2.3847 0 3.748 0.146 5.2685 C0.399 6.2441 0.819 7.456 1.799 7.8525 L7.906 7.9677 L8.85 8.9951 L8.801 5.7109 L7.908 6.7617 C5.591 6.33 2.127 7.9824 1.034 5.4316 C0.908 4.5556 1.218 3.6142 2.054 3.2685 L7.856 3.1201 L8.731 4.1328 C8.748 2.8535 8.744 1.292 8.696 0 L7.884 0.9873 C5.716 1.3037 3.623 0.7812 1.476 1.3867 " transform="translate(160.424, 87.8223)"/>
    <path style="fill:#000000; fill-rule:nonzero;stroke:none;" d="M6.2715 0.0801 C7.6485 0.8662 7.5889 2.3667 7.5127 3.7217 L0.8975 4.0127 L0 3.1577 C0.0489 4.4247 0.1934 5.8917 0.2412 7.1597 L1.0684 6.1107 L7.6612 5.6787 L8.5909 6.7467 L8.2217 0 L6.2715 0.0801 " transform="translate(12.6318, 98.6533)"/>
    <path style="fill:#000000; fill-rule:nonzero;stroke:none;" d="M7.927 1.6162 C4.905 0 4.373 4.0986 2.753 5.4636 C2.025 5.7316 1.236 5.2866 1.044 4.5556 C0.547 3.3766 1.889 2.6136 2.526 1.9092 L0.839 0.7949 C0.641 2.5406 0 3.8756 0.502 5.6216 C0.749 6.4986 1.508 7.2226 2.325 7.3816 C5.123 7.9216 5.104 4.3896 6.848 3.1866 C7.375 2.8206 8.001 3.4566 8.228 3.9106 C8.585 5.0796 7.541 5.6626 6.921 6.2246 L8.466 7.3876 C8.722 5.7266 9.299 4.3166 8.722 2.6256 L7.927 1.6162 " transform="translate(160.485, 97.9004)"/>
   </g>
  </g>
 </g>
</svg>