<?xml version="1.0" encoding="UTF-8"?>
<svg xmlns="http://www.w3.org/2000/svg" xmlns:xlink="http://www.w3.org/1999/xlink" width="200pt" version="1.1" height="50pt" viewBox="0 0 200 50">
 <defs/>
 <g id="Background">
  <path style="fill:#000000; fill-rule:nonzero;stroke:none;" d="M138.897 0.667 L0 0.667 L0 0 L138.897 0 L138.897 0.667 Z" transform="translate(60.2021, 32.9072)"/>
  <path style="fill:#000000; fill-rule:nonzero;stroke:none;" d="M3.1338 5.1426 L3.1338 0.4277 C4.6866 0.4131 6.209 1.1084 6.209 2.8379 C6.209 4.4775 4.5537 5.1289 3.1338 5.1426 Z M15.1973 0.3691 L15.1973 0.1465 L10.2305 0.1465 L10.2305 0.3691 C12.0039 0.6054 12.0196 1.0498 12.0635 2.5713 L12.0635 7.7734 C12.0264 9.04 12.0069 9.5605 10.9795 9.8349 C10.5137 9.9248 10.0537 9.7959 9.8702 9.7012 C8.083 8.7851 6.9287 6.7295 5.9727 5.0547 L5.8994 4.9502 C6.9629 4.4775 7.7325 3.7676 7.7325 2.5263 C7.7325 1.8174 7.4366 0 3.711 0.1172 L0.1036 0.2353 L0.1036 0.4424 C1.7588 0.5918 1.833 0.9306 1.833 3.1924 L1.833 7.7734 C1.7881 9.2959 1.7744 9.7402 0 9.9765 L0 10.1982 L5.1895 10.1982 L5.1895 9.9765 C3.1631 9.6963 3.1338 9.4004 3.1338 7.7734 L3.1338 5.3935 C4.169 5.5713 4.7012 5.2168 5.292 6.4433 C5.6026 7.0791 6.3711 8.3808 7.3477 9.4004 C7.7911 9.8594 8.3145 10.0683 8.9327 10.1748 C9.4219 10.2637 10.9493 10.1982 10.9493 10.1982 L15.1973 10.1982 L15.1973 9.9765 C13.4239 9.7402 13.4082 9.2959 13.3643 7.7734 L13.3643 2.5713 C13.4082 1.0498 13.4239 0.6054 15.1973 0.3691 " transform="translate(61.1767, 3.3242)"/>
  <path style="fill:#000000; fill-rule:nonzero;stroke:none;" d="M9.8165 0 L9.8165 0.2226 C8.1299 0.3994 7.0069 1.833 5.9131 2.9716 L4.5235 4.4502 L7.5245 7.7597 C8.4258 8.75 9.4913 9.6377 10.8067 10.0078 L10.7325 10.2295 C8.1602 10.0214 7.7461 9.9492 6.3565 8.4248 L3.3409 5.1435 L5.7208 2.5576 C7.2735 0.8134 6.9776 0.3261 5.9874 0.2226 L5.9874 0 L9.8165 0 Z M3.1338 7.6269 C3.1778 9.1494 3.1924 9.5937 5.0997 9.83 L5.0997 10.0517 L0 10.0517 L0 9.83 C1.7735 9.5937 1.7881 9.1494 1.8331 7.6269 L1.8331 2.4248 C1.7881 0.9033 1.7735 0.4589 0 0.2226 L0 0 L4.7002 0 L4.7002 0.2226 C3.1924 0.4589 3.1778 0.9033 3.1338 2.4248 L3.1338 7.6269 Z" transform="translate(77.247, 3.4707)"/>
  <path style="fill:#000000; fill-rule:nonzero;stroke:none;" d="M6.0163 2.7929 L5.7793 2.7929 C5.5433 1.5966 5.1583 0.4433 3.6953 0.4433 C2.7493 0.4433 1.9658 1.0947 1.9658 2.0703 C1.9658 4.6259 6.6223 4.5371 6.6223 7.5244 C6.6223 9.4296 4.7303 10.4209 3.0293 10.4209 C2.1283 10.4209 1.1816 10.1543 0.4277 9.666 L0 7.1543 L0.2656 7.1543 C0.6348 8.5722 1.626 9.9765 3.2513 9.9765 C4.3453 9.9765 5.2033 9.3261 5.2033 8.1748 C5.2033 5.5419 0.6797 5.7783 0.6797 2.8242 C0.6797 1.0947 2.3943 0 3.9763 0 C4.7303 0 5.4843 0.2216 6.1343 0.5761 L6.0163 2.7929 Z" transform="translate(87.8037, 3.2793)"/>
  <path style="fill:#000000; fill-rule:nonzero;stroke:none;" d="M3.134 4.8183 C4.509 4.8037 6.209 4.4336 6.209 2.7207 C6.209 0.9463 4.642 0.3984 3.134 0.3984 L3.134 4.8183 Z M3.134 7.583 C3.134 8.7353 3.06 9.8291 4.568 9.8291 C5.854 9.8291 6.756 8.9873 6.756 7.6855 C6.756 6.7832 5.913 4.9961 3.71 5.0996 L3.134 5.1289 L3.134 7.583 Z M5.056 4.833 C6.401 5.1426 8.337 5.7646 8.337 7.5088 C8.337 10.2431 4.805 10.1836 4.065 10.1689 L0 10.1396 L0 9.9179 C1.774 9.6816 1.789 9.2373 1.833 7.7148 L1.833 2.5869 C1.789 1.0644 1.774 0.6211 0.088 0.3984 L0.088 0.1767 L3.09 0.0586 C4.746 0 7.672 0.1631 7.672 2.497 C7.672 3.9463 6.224 4.5088 5.056 4.8037 L5.056 4.833 Z" transform="translate(95.44, 3.3828)"/>
  <path style="fill:#000000; fill-rule:nonzero;stroke:none;" d="M3.518 5.7198 L4.908 1.878 L6.446 5.7198 L3.518 5.7198 Z M17.997 0.5616 L17.997 0.7832 C19.668 1.0791 20.052 1.4942 20.067 2.8985 L20.141 8.292 L12.838 0.5616 L10.398 0.5616 L10.398 0.7832 C12.276 1.1983 12.512 1.7745 12.512 3.253 L12.512 5.4698 C12.512 8.462 12.571 9.8653 11.168 10.2823 C10.878 10.3653 10.594 10.3653 10.372 10.2911 C9.543 10.045 9.305 9.5987 8.959 8.6612 L5.707 0 C5.396 0.3702 5.027 0.6368 4.628 0.7989 C4.791 1.0791 4.598 1.4336 4.465 1.8194 L3.578 4.2276 L1.907 8.5899 C1.449 9.7413 1.316 10.0371 0 10.3916 L0 10.6133 L4.05 10.6133 L4.05 10.3916 C3.385 10.2881 2.366 10.2881 2.366 9.3868 C2.366 8.6778 3.016 7.1407 3.267 6.4004 L6.638 6.4004 C7.022 7.4346 7.585 8.8252 7.585 9.4454 C7.585 10.1114 6.964 10.2735 6.446 10.3916 L6.446 10.6133 L10.59 10.6133 L10.792 10.6133 L15.011 10.6133 L15.011 10.3916 C12.868 9.9629 12.957 9.209 12.957 5.544 L12.957 2.8243 C15.455 5.5137 18.086 8.1006 20.452 10.8946 L20.643 10.8496 C20.57 7.628 20.496 4.0655 20.703 2.4405 C20.821 1.4786 21.013 0.917 22.033 0.7832 L22.033 0.5616 L17.997 0.5616 Z" transform="translate(103.68, 2.9091)"/>
  <path style="fill:#000000; fill-rule:nonzero;stroke:none;" d="M3.135 7.6269 L3.135 2.4248 C3.179 0.9033 3.195 0.4589 4.701 0.2216 L4.701 0 L0 0 L0 0.2216 C1.775 0.4589 1.789 0.9033 1.834 2.4248 L1.834 7.6269 C1.789 9.1494 1.775 9.5937 0 9.83 L0 10.0517 L5.101 10.0517 L5.101 9.83 C3.195 9.5937 3.179 9.1494 3.135 7.6269 " transform="translate(126.283, 3.4707)"/>
  <path style="fill:#000000; fill-rule:nonzero;stroke:none;" d="M15.561 7.125 C15.191 8.9873 14.275 9.6963 12.412 9.6963 C9.987 9.6963 10.194 8.4843 10.194 7.6132 L10.194 5.1884 L11.731 5.1884 C12.842 5.1884 13.654 5.2041 13.847 6.5039 L14.068 6.5039 L14.068 3.208 L13.847 3.208 C13.684 4.4785 12.842 4.5673 11.731 4.5673 L10.194 4.5673 L10.194 0.3554 L11.628 0.3554 C13.122 0.3554 14.497 0.3701 14.601 2.2763 L14.822 2.2763 L14.999 0 L7.061 0 L7.061 0.2216 C8.834 0.4589 8.85 0.9033 8.894 2.4248 L8.894 7.6269 C8.856 8.9306 8.839 9.4433 7.719 9.7129 C7.237 9.7929 6.678 9.7129 6.549 9.6494 C5.642 9.1992 4.865 8.5088 4.184 7.7597 L1.183 4.4502 L2.572 2.9716 C3.666 1.833 4.789 0.3994 6.476 0.2216 L6.476 0 L2.645 0 L2.645 0.2216 C3.637 0.3261 3.933 0.8134 2.379 2.5576 L0 5.1435 L3.016 8.4257 C4.31 9.8427 4.882 10.0302 6.919 10.0498 L6.919 10.0517 L15.28 10.0517 C15.576 9.164 15.768 8.248 15.783 7.125 L15.561 7.125 Z" transform="translate(129.625, 3.4707)"/>
  <path style="fill:#000000; fill-rule:nonzero;stroke:none;" d="M9.743 7.7304 L9.668 2.3369 C9.653 0.9326 9.268 0.5175 7.599 0.2226 L7.599 0 L11.635 0 L11.635 0.2226 C10.614 0.3554 10.422 0.917 10.303 1.8789 C10.098 3.5039 10.17 7.0664 10.245 10.288 L10.053 10.333 C7.687 7.539 5.056 4.9521 2.557 2.2627 L2.557 4.9824 C2.557 8.6474 2.468 9.4013 4.612 9.83 L4.612 10.0517 L0.191 10.0517 L0.191 9.83 C2.186 9.623 2.113 8.2636 2.113 4.9082 L2.113 2.6914 C2.113 1.2129 1.877 0.6367 0 0.2226 L0 0 L2.438 0 L9.743 7.7304 Z" transform="translate(145.792, 3.4707)"/>
  <path style="fill:#000000; fill-rule:nonzero;stroke:none;" d="M9.744 7.7324 L9.67 2.3369 C9.654 0.9306 9.269 0.5166 7.599 0.2207 L7.599 0 L11.636 0 L11.636 0.2207 C10.615 0.3535 10.424 0.916 10.304 1.8779 C10.099 3.5039 10.172 7.0664 10.246 10.289 L10.054 10.333 C7.689 7.539 5.056 4.9531 2.558 2.2617 L2.558 4.9824 C2.558 8.6474 2.469 9.4013 4.615 9.83 L4.615 10.0517 L0.193 10.0517 L0.193 9.83 C2.189 9.624 2.115 8.2626 2.115 4.9082 L2.115 2.6904 C2.115 1.2119 1.879 0.6347 0 0.2207 L0 0 L2.439 0 L9.744 7.7324 Z" transform="translate(168.322, 17.6836)"/>
  <path style="fill:#000000; fill-rule:nonzero;stroke:none;" d="M6.017 2.7929 L5.781 2.7929 C5.544 1.5966 5.16 0.4433 3.697 0.4433 C2.75 0.4433 1.966 1.0947 1.966 2.0703 C1.966 4.6259 6.623 4.5371 6.623 7.5244 C6.623 9.4296 4.732 10.4209 3.031 10.4209 C2.128 10.4209 1.183 10.1543 0.429 9.666 L0 7.1543 L0.267 7.1543 C0.636 8.5722 1.626 9.9765 3.253 9.9765 C4.347 9.9765 5.205 9.3261 5.205 8.1748 C5.205 5.5419 0.681 5.7783 0.681 2.8242 C0.681 1.0947 2.396 0 3.978 0 C4.732 0 5.486 0.2216 6.134 0.5761 L6.017 2.7929 Z" transform="translate(157.666, 3.2793)"/>
  <path style="fill:#000000; fill-rule:nonzero;stroke:none;" d="M2.3506 2.4258 C2.3506 0.7998 2.3213 0.5039 0.3848 0.2226 L0.3848 0 L5.4698 0 L5.4698 0.2226 C3.6963 0.459 3.6524 0.9023 3.6524 2.4258 L3.6524 7.7178 C3.666 10.5859 3.3272 11.2217 0.1192 12.5967 L0 12.3457 C2.1739 11.3252 2.3506 9.7295 2.3506 7.0674 L2.3506 2.4258 Z" transform="translate(60.9101, 17.6826)"/>
  <path style="fill:#000000; fill-rule:nonzero;stroke:none;" d="M11.664 0 L11.664 0.2216 C10.3183 0.3701 10.2304 1.1972 10.1709 3.1494 L10.082 6.3867 C10.0381 8.2929 9.2246 10.2304 5.9424 10.2304 C1.3594 10.2304 1.833 6.9179 1.833 5.7373 L1.833 2.4248 C1.789 0.9013 1.7734 0.458 0 0.2216 L0 0 L5.1006 0 L5.1006 0.2216 C3.1631 0.5029 3.1338 0.7988 3.1338 2.4248 L3.1338 5.455 C3.1338 5.7373 2.6601 9.5498 6.7109 9.5498 C9.9053 9.5498 9.5937 6.5048 9.5937 4.7011 L9.5937 3.1494 C9.5937 1.2705 9.4463 0.413 7.3769 0.2216 L7.3769 0 L11.664 0 Z" transform="translate(67.0166, 17.6836)"/>
  <path style="fill:#000000; fill-rule:nonzero;stroke:none;" d="M3.1337 4.8183 C4.5087 4.8037 6.208 4.4345 6.208 2.7187 C6.208 0.9453 4.6416 0.3974 3.1337 0.3974 L3.1337 4.8183 Z M3.1337 7.583 C3.1337 8.7353 3.0595 9.83 4.5673 9.83 C5.8535 9.83 6.7548 8.9873 6.7548 7.6865 C6.7548 6.7851 5.913 4.9961 3.7109 5.0996 L3.1337 5.1289 L3.1337 7.583 Z M5.0556 4.833 C6.4003 5.1435 8.3369 5.7646 8.3369 7.5088 C8.3369 10.2451 4.8046 10.1845 4.0654 10.1709 L0 10.1416 L0 9.9179 C1.7734 9.6826 1.788 9.2382 1.833 7.7168 L1.833 2.5869 C1.788 1.0625 1.7734 0.6201 0.0878 0.3974 L0.0878 0.1757 L3.0888 0.0576 C4.7451 0 7.6718 0.1621 7.6718 2.498 C7.6718 3.9463 6.2236 4.5078 5.0556 4.8037 L5.0556 4.833 Z" transform="translate(79.376, 17.5957)"/>
  <path style="fill:#000000; fill-rule:nonzero;stroke:none;" d="M3.1345 7.6299 C3.1785 9.1513 3.1935 9.5957 4.9675 9.831 L4.9675 10.0547 L0 10.0547 L0 9.831 C1.7735 9.5957 1.7885 9.1513 1.8335 7.6299 L1.8335 2.4258 C1.7885 0.9023 1.7735 0.459 0 0.2226 L0 0 L4.9675 0 L4.9675 0.2226 C3.1935 0.459 3.1785 0.9023 3.1345 2.4258 L3.1345 7.6299 Z" transform="translate(88.7265, 17.6826)"/>
  <path style="fill:#000000; fill-rule:nonzero;stroke:none;" d="M0 9.83 C1.774 9.5947 1.789 9.1503 1.833 7.6289 L1.833 2.4248 C1.789 0.9013 1.774 0.458 0 0.2216 L0 0 L4.967 0 L4.967 0.2216 C3.194 0.458 3.134 0.9013 3.134 2.4248 L3.134 7.2744 C3.134 8.0126 3.134 8.7959 3.356 9.5048 L5.16 9.6386 C7.406 9.8007 7.776 9.1074 8.915 7.2138 L9.107 7.3037 L8.264 10.0537 L0 10.0537 L0 9.83 Z" transform="translate(95.058, 17.6836)"/>
  <path style="fill:#000000; fill-rule:nonzero;stroke:none;" d="M0 9.83 C1.775 9.5947 1.789 9.1503 1.834 7.6289 L1.834 2.4248 C1.789 0.9013 1.775 0.458 0 0.2216 L0 0 L7.94 0 L7.762 2.2763 L7.54 2.2763 C7.437 0.3701 6.062 0.3535 4.569 0.3535 L3.135 0.3535 L3.135 4.5683 L4.672 4.5683 C5.782 4.5683 6.624 4.4794 6.786 3.208 L7.008 3.208 L7.008 6.5048 L6.786 6.5048 C6.594 5.2041 5.782 5.1904 4.672 5.1904 L3.135 5.1904 L3.135 7.6132 C3.135 8.4863 2.928 9.6972 5.352 9.6972 C7.215 9.6972 8.132 8.9882 8.501 7.125 L8.723 7.125 C8.708 8.249 8.516 9.166 8.22 10.0537 L0 10.0537 L0 9.83 Z" transform="translate(104.445, 17.6836)"/>
  <path style="fill:#000000; fill-rule:nonzero;stroke:none;" d="M11.664 0 L11.664 0.2216 C10.318 0.3701 10.23 1.1972 10.171 3.1494 L10.082 6.3867 C10.038 8.2929 9.224 10.2304 5.942 10.2304 C1.359 10.2304 1.833 6.9179 1.833 5.7373 L1.833 2.4248 C1.788 0.9013 1.773 0.458 0 0.2216 L0 0 L5.099 0 L5.099 0.2216 C3.164 0.5029 3.134 0.7988 3.134 2.4248 L3.134 5.455 C3.134 5.7373 2.661 9.5498 6.711 9.5498 C9.905 9.5498 9.595 6.5048 9.595 4.7011 L9.595 3.1494 C9.595 1.2705 9.446 0.413 7.377 0.2216 L7.377 0 L11.664 0 Z" transform="translate(114.088, 17.6836)"/>
  <path style="fill:#000000; fill-rule:nonzero;stroke:none;" d="M6.963 7.8955 L9.639 2.0107 C10.009 1.1982 10.216 0.459 9.891 0.2383 L9.92 0 L13.173 0 L13.173 0.2226 C12.227 0.414 11.65 0.7705 11.708 1.8047 L12.034 7.1855 C12.197 9.2402 12.197 9.5664 13.779 9.831 L13.779 10.0547 L8.914 10.0547 L8.914 9.831 C10.053 9.6543 10.778 9.5215 10.704 8.2207 L10.305 1.7597 L10.275 1.7597 L6.505 10.0547 L6.343 10.0547 L2.839 2.1006 L2.81 2.1006 C2.572 4.3633 2.455 6.0039 2.351 8.2939 C2.322 8.8711 2.336 9.5371 4.124 9.831 L4.124 10.0547 L0 10.0547 L0 9.831 C1.316 9.6103 1.449 8.9756 1.655 7.7773 L2.202 3.623 L2.396 1.6123 C2.485 0.6357 1.641 0.2959 0.77 0.2226 L0.77 0 L3.962 0 L3.977 0.1631 C3.652 0.5039 4.051 1.3896 4.155 1.6269 L6.963 7.8955 Z" transform="translate(126.115, 17.6826)"/>
  <path style="fill:#000000; fill-rule:nonzero;stroke:none;" d="M6.016 2.7939 L5.779 2.7939 C5.543 1.5967 5.158 0.4433 3.695 0.4433 C2.75 0.4433 1.966 1.0937 1.966 2.0703 C1.966 4.6269 6.623 4.539 6.623 7.5254 C6.623 9.4316 4.731 10.4228 3.031 10.4228 C2.128 10.4228 1.183 10.1562 0.429 9.6679 L0 7.1552 L0.266 7.1552 C0.636 8.5752 1.626 9.9795 3.252 9.9795 C4.346 9.9795 5.203 9.3291 5.203 8.1748 C5.203 5.5439 0.679 5.7812 0.679 2.8232 C0.679 1.0937 2.395 0 3.977 0 C4.731 0 5.484 0.2217 6.135 0.5761 L6.016 2.7939 Z" transform="translate(140.622, 17.4912)"/>
  <path style="fill:#000000; fill-rule:nonzero;stroke:none;" d="M7.096 3.2529 L7.096 6.8593 L6.875 6.8593 C6.756 5.3662 5.989 5.3955 4.746 5.3955 L3.134 5.3955 L3.134 7.6289 C3.134 9.2099 3.207 9.5205 5.261 9.83 L5.261 10.0537 L0 10.0537 L0 9.83 C1.773 9.5947 1.788 9.1503 1.832 7.6289 L1.832 2.4248 C1.788 0.9013 1.773 0.458 0 0.2216 L0 0 L7.821 0 L7.584 2.3369 L7.362 2.3369 C7.274 0.4287 6.032 0.3535 4.478 0.3535 L3.134 0.3535 L3.134 4.7744 L4.746 4.7744 C5.989 4.7744 6.756 4.6572 6.875 3.2529 L7.096 3.2529 Z" transform="translate(148.583, 17.6836)"/>
  <path style="fill:#000000; fill-rule:nonzero;stroke:none;" d="M1.715 4.835 C1.715 7.127 2.928 10.0528 5.588 10.0528 C8.028 10.0528 9.108 7.5694 9.108 5.4561 C9.063 2.8399 7.542 0.3545 5.278 0.3545 C2.735 0.3545 1.715 2.8399 1.715 4.835 Z M10.823 5.2041 C10.823 8.3819 8.516 10.4082 5.413 10.4082 C2.293 10.4082 0 8.3819 0 5.1895 C0 2.0401 2.307 0 5.397 0 C9.182 0 10.823 2.5733 10.823 5.2041 " transform="translate(157.499, 17.5058)"/>
  <path style="fill:#000000; fill-rule:nonzero;stroke:none;" d="M5.153 9.9502 C3.319 9.9502 3.141 9.003 3.141 8.0137 L3.141 0.503 C6.35 0.4883 9.145 1.9668 9.145 5.5157 C9.145 8.8848 6.852 9.9502 5.153 9.9502 Z M0.063 0.2374 L0.063 0.4581 C2.102 0.6553 1.729 1.668 1.832 2.7364 L1.832 7.8663 C1.789 9.3877 1.774 9.8321 0 10.0674 L0 10.2911 L4.405 10.3204 C9.491 10.3633 10.85 7.4073 10.85 5.293 C10.85 3.7569 10.17 0 3.666 0.2071 L0.174 0.2374 " transform="translate(180.46, 17.4462)"/>
  <path style="fill:#000000; fill-rule:nonzero;stroke:none;" d="M4.4365 27.8017 C3.7763 27.9951 3.3428 28.6435 3.3428 29.3203 C3.3428 29.8662 3.6181 30.3945 4.0801 30.6796 C4.6631 31.039 5.4189 30.9257 5.8877 30.4345 C6.3672 29.9277 6.458 29.1337 6.1211 28.5283 C5.792 27.9355 5.0967 27.6113 4.4365 27.8017 Z M3.2705 25.7089 C2.8828 25.0156 2.0635 24.6328 1.2881 24.8584 C0.5107 25.0849 0 25.8457 0 26.6435 C0 27.2832 0.3222 27.9043 0.8691 28.2441 C1.5527 28.667 2.4453 28.5322 2.9961 27.955 C3.5576 27.3584 3.666 26.4257 3.2705 25.7089 Z M12.54 28.7744 C13.2129 27.9355 13.5381 26.8964 13.5381 25.8447 C13.5381 24.4658 12.9717 23.0654 11.8828 22.0693 C11.4853 21.708 11.0439 21.4267 10.5674 21.2236 C10.3847 21.581 10.1748 21.7968 9.9219 21.8584 C9.5039 21.9589 9.1386 21.6484 8.7842 21.3447 C8.5097 21.1103 8.2256 20.8701 8.0371 20.9375 L8.0205 20.9433 L8.0058 20.9453 C7.997 20.9502 7.9853 20.9511 7.9765 20.9511 C8.5713 21.3916 8.9248 22.1093 8.9248 22.8554 C8.9248 23.6572 8.5136 24.4345 7.8252 24.8574 C7.6386 24.9707 7.4394 25.0527 7.2334 25.1045 C7.247 25.206 7.2519 25.3095 7.2519 25.4111 C7.2519 26.2168 6.8408 26.9951 6.1513 27.417 C6.0937 27.4502 6.0332 27.4834 5.9717 27.5146 C6.0771 27.5566 6.1797 27.6025 6.2754 27.667 C6.9638 28.0879 7.3789 28.8662 7.3789 29.6699 C7.3789 29.7392 7.373 29.8056 7.3672 29.873 C8.0771 30.2265 8.8554 30.3847 9.6426 30.3252 C10.7822 30.2334 11.8144 29.6836 12.54 28.7744 Z M17.0869 40.9375 C16.834 40.5302 16.5791 40.1191 16.5517 39.6377 C15.4482 40.708 15.1181 41.3652 15.1181 41.8642 C15.1181 42.2158 15.2773 42.4921 15.4511 42.7812 C15.5371 42.9287 15.626 43.081 15.7011 43.248 C15.7881 43.4375 15.8232 43.6308 15.8232 43.8242 C15.8232 44.0468 15.7705 44.2675 15.6933 44.4726 C16.541 43.6748 17.1133 42.9834 17.4892 42.3857 C17.5615 42.1084 17.5547 41.7959 17.3906 41.4668 C17.3008 41.288 17.1894 41.1113 17.0869 40.9375 Z M1.75 23.3349 C2.3056 23.7539 3.0517 23.8603 3.7051 23.6035 C4.4463 23.3134 4.9619 22.6005 5.0605 21.8173 C5.0752 21.7041 5.0801 21.5908 5.0781 21.4775 C4.6299 21.5244 4.1719 21.4443 3.7656 21.2236 C3.0556 20.8427 2.6142 20.1181 2.5273 19.3388 C2.3388 19.3779 2.1543 19.4462 1.9804 19.5459 C1.2793 19.9375 0.8525 20.7158 0.8525 21.5146 C0.8525 22.2197 1.1816 22.9121 1.75 23.3349 Z M16.3457 33.1621 C16.2998 32.9873 16.2754 32.8027 16.2754 32.6035 C16.2754 31.7148 16.7549 30.5947 17.7099 29.2675 C18.331 28.4072 19.042 27.5351 19.7265 26.6972 C21.2138 24.8818 22.625 23.1591 22.625 22.0781 C22.625 21.9726 22.6123 21.875 22.5801 21.7832 C22.4804 21.4511 22.1875 21.2129 21.6885 21.0498 C21.1299 21.3613 17.1679 23.6123 14.3896 26.1562 C14.4765 27.2548 14.1787 28.374 13.4736 29.2587 C12.9853 29.8662 12.3584 30.3027 11.6484 30.539 C11.6523 30.6181 11.6592 30.7021 11.6719 30.7832 C11.9062 32.1259 13.5508 33.0879 16.5664 33.6425 C16.4785 33.5166 16.3984 33.3564 16.3457 33.1621 Z M4.8945 14.3994 C5.2519 14.8623 5.9336 15.1455 6.0635 15.1181 C7.414 14.25 8.0556 14.8798 8.5273 15.3418 C8.747 15.5586 8.9385 15.7461 9.1465 15.7421 C9.289 15.7421 9.541 15.2754 9.6386 14.4052 C9.8174 12.8408 9.4082 11.0107 8.0898 10.6972 C7.5674 10.5712 6.3799 11.122 5.7871 11.4375 C6.0097 11.6181 6.375 11.9511 6.4804 12.292 C6.5078 12.3818 6.5185 12.4707 6.5029 12.5576 C6.4345 12.9638 6.1709 13.2412 5.831 13.2597 C5.5722 13.2714 5.3222 12.9638 5.1679 12.7275 C5.0429 13.0498 4.8428 13.5576 4.7754 13.6796 C4.7011 13.8164 4.6885 13.9609 4.7344 14.1093 C4.7636 14.206 4.8183 14.3007 4.8945 14.3994 Z M19.6963 38.7031 C19.416 38.1084 19.1279 37.4931 19.1992 36.8476 C17.7422 37.8935 17.2969 38.6064 17.2969 39.2021 C17.2969 39.6269 17.5254 39.9931 17.7656 40.3828 C17.876 40.5586 17.9892 40.7441 18.0859 40.9414 C18.2119 41.1953 18.2656 41.4433 18.2656 41.6855 C18.2656 41.9638 18.1904 42.2304 18.0801 42.4726 C18.3203 42.2959 18.5478 42.1181 18.7588 41.9453 L18.7539 41.9306 C18.7588 41.9306 18.7754 41.9238 18.7969 41.9121 C19.3213 41.4716 19.7412 41.0361 20.0556 40.6054 C20.1679 40.2802 20.1865 39.8974 20.0224 39.455 C19.9306 39.2021 19.8125 38.9462 19.6963 38.7031 Z M9.2763 6.4414 C9.3506 6.4961 9.4199 6.5615 9.4873 6.6377 C9.5136 6.6689 9.5429 6.6943 9.5722 6.7275 C9.6474 6.8252 9.7207 6.9414 9.79 7.0625 C9.8359 7.1406 9.876 7.2246 9.9219 7.3095 C9.9492 7.3681 9.9726 7.4248 9.997 7.4824 C10.1592 7.8515 10.3008 8.2832 10.4189 8.7646 C10.4892 9.5371 10.7265 13.3789 9.3779 19.6787 C9.3232 19.8203 9.2529 19.9531 9.206 20.0996 C9.1972 20.1328 9.1924 20.1601 9.1924 20.1923 C9.1924 20.3173 9.2763 20.4375 9.4062 20.4824 C9.5644 20.5283 9.7344 20.4414 9.7832 20.2812 C9.8886 19.9502 10.0234 19.6367 10.1709 19.3261 C10.3095 19.0937 10.4502 18.8496 10.5888 18.6015 C10.5928 18.5966 10.5937 18.5888 10.6006 18.582 C10.7763 18.3056 10.9765 18.038 11.1914 17.7763 C11.2881 17.6591 11.3828 17.541 11.4853 17.4267 C11.5791 17.3252 11.6806 17.2255 11.7783 17.1289 C12.0234 16.8877 12.2734 16.6543 12.5547 16.4355 C13.4053 17.6425 14.9219 18.0517 16.5605 15.5195 C16.582 15.7226 16.5947 15.9287 16.5947 16.1269 C16.5947 16.3408 16.5791 16.541 16.5371 16.7099 C16.5107 16.8242 16.4726 16.9218 16.4228 17 C16.3965 17.0371 16.3847 17.0781 16.3847 17.1201 C16.3847 17.1923 16.4228 17.2656 16.4873 17.3056 C16.5879 17.375 16.7256 17.3437 16.7929 17.2412 C16.876 17.1132 16.9326 16.955 16.9726 16.7832 C17.0195 16.5781 17.0361 16.3505 17.0361 16.1162 C17.0361 15.9492 17.0263 15.7783 17.0127 15.6113 C17.6386 16.6015 18.2724 16.9726 18.6474 17.1152 C18.8359 17.1855 18.959 17.1962 18.9756 17.2002 C19.0976 17.206 19.2011 17.1162 19.2099 16.9951 C19.2109 16.9785 19.2109 16.9658 19.2099 16.9472 C19.1972 16.8466 19.1133 16.7675 19.0088 16.7568 C19 16.7548 18.1728 16.625 17.3398 15.2666 C17.0078 14.8261 16.7929 14.3007 16.7197 13.7392 C16.6084 12.8877 16.8388 12.0439 17.3623 11.3642 C17.6289 11.0205 17.9521 10.7421 18.3105 10.539 C18.2724 10.4814 18.2373 10.4306 18.1933 10.3935 C17.7373 10.1015 16.8857 10.2802 16.4453 10.6562 C15.1885 11.7539 15.3261 13.2548 14.1386 14.3252 C13.998 14.4687 13.6513 14.6005 13.3789 14.6201 C13.0576 14.6269 12.7334 14.5459 12.5547 14.3212 C11.9883 13.6035 13.7099 11.1543 13.7344 12.1406 C13.708 12.4433 13.0976 12.9013 13.5136 13.1035 C13.9717 13.3222 15.0283 12.3759 14.7539 11.6884 C14.1924 10.6113 12.7656 10.624 11.9472 13.413 C11.7363 14.1406 11.8691 15.1054 12.247 15.9033 C11.9599 16.125 11.6933 16.3613 11.4385 16.6015 C11.2773 15.9961 10.6758 14.3007 11.7178 12.0283 C11.7363 11.9912 11.7431 11.9541 11.7549 11.9189 C12.0058 11.3584 12.3125 10.8017 12.6767 10.2802 C12.6972 10.2539 12.7178 10.2275 12.7392 10.1992 C12.8886 9.9912 13.0508 9.789 13.2236 9.5927 C13.2734 9.5361 13.3213 9.4795 13.373 9.4248 C13.5761 9.206 14.1054 8.9931 14.3388 8.7939 C14.372 8.7675 13.2031 7.4414 12.1269 8.7587 C12.0732 6.4209 8.8301 6.2343 8.872 6.2441 C8.9804 6.2636 9.084 6.3134 9.1845 6.3759 C9.2158 6.3964 9.2461 6.4179 9.2763 6.4414 Z M5.7119 20.5478 C6.3252 20.1787 6.6621 19.4589 6.5859 18.7509 C6.5527 18.416 6.414 18.0996 6.2109 17.8457 C5.7656 18.0175 4.8896 18.2705 5.4687 17.3056 C5.332 17.2578 5.1885 17.2295 5.0381 17.2207 C4.3623 17.1796 3.7304 17.5761 3.417 18.166 C3.0508 18.8623 3.1484 19.7636 3.7129 20.3212 C4.2431 20.8496 5.0752 20.9326 5.7119 20.5478 Z M9.0703 17.5712 C8.7011 17.7783 8.333 17.8515 8.081 17.7295 C7.8584 17.6201 7.833 17.3632 8.0576 17.0263 C8.3515 16.5908 8.3379 16.25 8.2129 16.0048 C8.1113 15.7968 7.9355 15.6591 7.8027 15.5957 C7.4258 15.4121 6.8935 15.4423 6.2881 15.6347 C6.2519 15.6474 6.2109 15.6621 6.1758 15.6748 C5.747 15.8349 5.3662 16.1328 5.0801 16.5214 C5.372 16.5371 5.6601 16.6064 5.9306 16.7373 C6.001 16.7695 6.0537 16.8281 6.1211 16.8671 C6.1943 16.9082 6.2734 16.9619 6.3515 17.0263 C6.4267 17.0888 6.5019 17.1601 6.5664 17.2421 C6.6797 17.3593 6.7812 17.4853 6.8691 17.6201 C6.876 17.6337 6.8818 17.6435 6.8926 17.6572 C6.9707 17.7802 7.04 17.9082 7.0937 18.0449 C7.1172 18.0996 7.1308 18.1562 7.1513 18.2119 C7.1806 18.3164 7.2187 18.417 7.2373 18.5244 C7.2715 18.6953 7.2881 18.874 7.2803 19.0537 C7.2597 19.4804 7.1357 19.8925 6.9258 20.2568 C6.9638 20.2675 7 20.2783 7.0371 20.291 C7.2158 20.2304 7.3974 20.1787 7.584 20.1386 C7.8554 20.0546 8.1113 20.1552 8.3525 20.3144 C8.9775 19.1923 9.2998 17.4423 9.0703 17.5712 Z M7.4521 23.6201 C7.9316 23.1123 8.0224 22.3203 7.6845 21.7129 C7.456 21.2998 7.0498 21.0205 6.6025 20.9511 L5.6865 21.5478 C5.7021 21.9326 5.6308 22.3212 5.4658 22.6728 C5.3691 22.8798 5.2383 23.0752 5.0801 23.2431 C5.208 23.4951 5.3994 23.7129 5.6455 23.8671 C6.2265 24.2255 6.9834 24.1132 7.4521 23.6201 Z M5.7656 26.2148 C6.1015 25.8574 6.2451 25.3662 6.1885 24.8925 C5.8388 24.9033 5.4873 24.8164 5.1777 24.6289 C4.9013 24.4589 4.6748 24.2187 4.5146 23.9404 C4.2842 24.1132 4.0185 24.2451 3.7353 24.3144 C3.6211 24.3418 3.5078 24.3593 3.3926 24.3681 C3.3261 24.5068 3.2773 24.6523 3.25 24.8037 C3.7783 25.1728 4.0908 25.7978 4.0908 26.4453 C4.0908 26.4707 4.0888 26.5019 4.0888 26.5283 C4.6474 26.8027 5.332 26.6709 5.7656 26.2148 Z M45.1054 24.7861 C45.3623 25.0117 45.6611 25.1201 45.9707 25.0996 C46.7138 25.0507 47.2676 24.2627 47.2041 23.3457 C47.1738 22.8408 46.958 22.3808 46.6201 22.0869 C46.4365 21.9238 46.2265 21.8242 46.0136 21.7841 C46.248 22.5625 45.2803 22.2402 44.9961 22.1328 C44.9756 22.1523 44.9551 22.1728 44.9316 22.1953 C44.6328 22.5351 44.4834 23.0175 44.5166 23.5244 C44.5547 24.0283 44.7705 24.4873 45.1054 24.7861 Z M44.2627 25.3662 C43.8594 25.0127 43.6094 24.4726 43.5683 23.8837 C43.5381 23.4394 43.6045 23.0654 43.7959 22.7343 C43.5713 22.7285 43.3418 22.6972 43.0957 22.6621 C42.4873 22.5761 41.8008 22.4804 40.8799 22.7343 C40.2842 22.9013 39.6933 22.7392 39.1523 22.3789 C39.0713 22.6152 38.9756 22.8379 38.8564 23.0498 C41.2461 24.8369 43.622 27.0654 43.9287 29.0361 C44.039 28.9375 44.1543 28.831 44.2627 28.7138 C43.9385 27.6494 43.9853 26.5019 44.4297 25.4912 C44.373 25.4511 44.3164 25.413 44.2627 25.3662 Z M39.5595 43.3046 C39.4726 43.4541 39.3818 43.6045 39.3144 43.7607 C39.1289 44.1806 39.2519 44.6347 39.4531 45.0214 C39.6787 45.2265 39.9258 45.4453 40.2041 45.6845 C41.3926 46.7216 41.7793 46.8437 41.8779 46.8564 C41.8808 46.8427 41.8857 46.833 41.8857 46.8154 C41.8857 46.3867 41.0166 44.7529 39.7969 42.8525 C39.7334 43.0039 39.6484 43.1552 39.5595 43.3046 Z M38.0254 23.541 C37.8603 23.7705 37.6787 23.9814 37.4726 24.1601 C36.8955 24.667 36.1855 24.9179 35.4795 24.8711 C33.8955 24.7666 32.6885 23.208 32.6885 21.3369 C32.6885 21.2431 32.6885 21.1435 32.6953 21.0498 C32.7011 20.9716 32.708 20.8964 32.7178 20.8232 C32.5703 20.8574 32.4189 20.8701 32.2646 20.8584 C32.1992 20.8535 32.1328 20.8457 32.0683 20.833 C32.0508 20.872 32.0332 20.9121 32.0195 20.9589 C31.9922 21.0507 31.9795 21.1494 31.9795 21.2578 C31.9795 22.3369 33.3886 24.0595 34.873 25.875 C35.5615 26.7158 36.2705 27.5839 36.8916 28.4462 C37.8486 29.7734 38.3301 30.8925 38.3301 31.7832 C38.3301 31.9775 38.3056 32.164 38.2549 32.3379 C38.2011 32.5351 38.122 32.6943 38.0351 32.8212 C41.0498 32.2666 42.6953 31.3027 42.9297 29.9609 C42.9511 29.8437 42.958 29.7255 42.958 29.6054 C42.958 27.7089 40.5127 25.3974 38.0254 23.541 Z M52.3955 24.6826 C52.1338 24.4726 51.8506 24.2959 51.5595 24.1474 C51.5127 24.5957 51.3086 25.0117 50.9336 25.3105 C50.5537 25.6201 50.0381 25.7754 49.4912 25.75 C49.3974 25.7441 49.3076 25.7363 49.2207 25.7216 C49.126 25.9433 48.9931 26.1464 48.8213 26.3183 C48.5049 26.6425 48.0879 26.833 47.6445 26.8623 C47.1972 26.8896 46.7519 26.7451 46.3916 26.4638 C46.2324 26.3339 46.0879 26.1826 45.9707 26.0097 C45.9678 26.0097 45.956 26.0117 45.9511 26.0117 C45.7344 26.0263 45.5185 25.999 45.3135 25.9336 C44.497 27.5957 44.9756 29.6777 46.6133 30.9795 C48.583 32.54 51.4687 32.3964 53.0625 30.6601 C54.6621 28.917 54.3594 26.2431 52.3955 24.6826 Z M21.334 9.874 C21.3935 9.917 22.6357 4.8339 19.042 5.706 C16.9922 6.2031 14.665 8.2509 15.0429 11.0517 C15.0429 11.0556 17.5732 7.0429 21.334 9.874 Z M46.3847 20.0058 C46.5371 19.6328 46.6201 19.2187 46.6465 18.7802 C46.4092 18.6093 46.2129 18.3798 46.0625 18.1103 C45.8808 18.2959 45.6533 18.4287 45.3926 18.4804 C44.6035 18.6367 43.8086 17.9951 43.6172 17.0468 C43.5166 16.5371 43.6123 16.0175 43.872 15.625 C44.0801 15.3173 44.3769 15.1103 44.7138 15.0459 C44.9277 15.0019 45.1513 15.0214 45.3681 15.0908 C45.3896 15.083 45.4062 15.0703 45.4306 15.0576 C45.0615 14.6367 44.6084 14.2783 44.0801 14.0078 C44.0742 14 44.0664 13.999 44.0586 13.9951 C43.8525 13.8525 43.5049 13.9785 43.1308 14.1084 C42.708 14.2617 42.2705 14.4179 41.9101 14.2021 C41.6972 14.0732 41.5605 13.8203 41.4844 13.4492 C40.9238 13.4765 40.3769 13.5888 39.8633 13.7939 C38.6533 14.2724 37.7451 15.1562 37.2929 16.2871 C37.1094 16.7617 37.0107 17.2578 37.0107 17.7509 C37.0107 18.332 37.1435 18.9101 37.3965 19.4531 C37.9287 20.582 39.2187 22.3779 40.6748 21.9726 C41.7217 21.6826 42.5224 21.7959 43.1689 21.8847 C43.6894 21.9589 44.0967 22.0166 44.4902 21.8623 C45.4062 21.5009 46.0459 20.8769 46.3847 20.0058 Z M23.9316 38.2754 C23.9316 39.3398 23.4101 40.0996 22.8681 40.6123 C23.5683 40.3457 24.2099 40.0644 24.792 39.7587 C25.0478 39.6035 25.372 39.3701 25.6845 39.0566 C25.0371 38.7421 24.4511 38.4072 23.9238 38.0556 C23.9277 38.1289 23.9316 38.2031 23.9316 38.2754 Z M23.1299 37.8818 C23.1299 37.8671 23.126 37.8486 23.125 37.8349 C22.0332 37.3623 21.0166 36.8974 20.082 36.4433 C20.0185 36.6074 19.9941 36.7705 19.9941 36.9365 C19.9941 37.4228 20.2246 37.916 20.4658 38.4267 C20.582 38.6796 20.706 38.9414 20.8056 39.2099 C20.9053 39.4804 20.9482 39.7324 20.9482 39.9687 C20.9482 40.5214 20.7099 40.9707 20.416 41.3173 C20.8681 41.1181 21.2842 40.9121 21.667 40.7021 C22.3203 40.2802 23.292 39.3877 23.1299 37.8818 Z M26.4179 35.5117 C26.4179 35.3252 26.4297 35.1269 26.456 34.9248 L26.5019 34.582 C26.6142 33.707 26.7314 32.8242 26.7314 31.9755 C26.7314 30.5048 26.3808 29.1337 25.0781 28.0888 C24.7275 28.9502 24.0937 29.8173 23.4394 30.7089 C23.123 31.1406 22.7959 31.5879 22.4941 32.042 C22.0039 32.7841 21.8418 33.5283 22.0176 34.2587 C22.1504 34.8193 22.4648 35.3076 22.8125 35.7041 C23.9648 36.8379 25.6631 37.8232 27.8994 38.6494 C27.1806 38.0146 26.4179 36.998 26.4179 35.5117 Z M33.5566 39.0156 C33.6562 38.7461 33.7803 38.4843 33.8974 38.2324 C34.1377 37.7207 34.3701 37.2285 34.3701 36.7431 C34.3701 36.5673 34.3428 36.3935 34.2744 36.2255 C33.9941 35.498 33.0459 34.7822 31.3847 34.0439 C31.7314 34.9248 31.5605 35.8125 31.3984 36.6777 C31.334 37.0087 31.2705 37.3496 31.2324 37.6875 C31.0703 39.1943 32.0429 40.0888 32.6972 40.5087 C33.0771 40.7177 33.4931 40.9257 33.9433 41.124 C33.6543 40.7783 33.4121 40.3271 33.4121 39.7734 C33.4121 39.539 33.456 39.2861 33.5566 39.0156 Z M36.5996 40.3828 C36.8379 39.9931 37.0644 39.6269 37.0644 39.2021 C37.0644 38.6064 36.622 37.8935 35.164 36.8476 C35.2383 37.4931 34.9463 38.1084 34.666 38.7031 C34.5469 38.9462 34.4316 39.2021 34.3398 39.455 C34.1758 39.8974 34.1943 40.2802 34.3086 40.6054 C34.622 41.0361 35.0429 41.4716 35.5664 41.9121 C35.5888 41.9238 35.6054 41.9306 35.6133 41.9306 L35.6054 41.9453 C35.8144 42.1181 36.04 42.2959 36.2851 42.4726 C36.1728 42.2304 36.0967 41.9638 36.0967 41.6855 C36.0967 41.4433 36.1513 41.1953 36.2773 40.9414 C36.373 40.7441 36.4873 40.5586 36.5996 40.3828 Z M38.9619 42.8242 C39.1455 42.5156 39.3144 42.2265 39.3144 41.8525 C39.3144 41.3232 38.9638 40.6279 37.7949 39.4961 C37.7676 40.0068 37.5 40.4414 37.2334 40.873 C37.1211 41.0517 37.0049 41.2382 36.9092 41.4326 C36.7344 41.7793 36.7295 42.1113 36.8017 42.4043 C37.2031 43.0371 37.8066 43.7695 38.709 44.6132 C38.623 44.3964 38.5703 44.165 38.5703 43.9267 C38.5703 43.7236 38.6064 43.5195 38.6963 43.3173 C38.7763 43.1425 38.8691 42.9795 38.9619 42.8242 Z M30.333 37.75 C30.333 37.6357 30.3408 37.5107 30.3545 37.3837 C30.3916 37.0322 30.459 36.6816 30.5263 36.3457 C30.6181 35.8545 30.709 35.3789 30.709 34.913 C30.709 33.7705 30.1543 32.6943 27.748 31.5879 C27.8525 32.7031 27.7002 33.8808 27.5537 35.0009 L27.5088 35.3408 C27.2226 37.5341 28.6709 38.7421 29.4756 39.2343 C30.0556 39.539 30.6963 39.8212 31.3984 40.0888 C30.8554 39.5742 30.333 38.8144 30.333 37.75 Z M14.75 43.3935 C14.664 43.249 14.5869 43.1045 14.5224 42.9648 C13.373 44.7558 12.5517 46.2988 12.5517 46.708 C12.5517 46.7216 12.5547 46.7324 12.5595 46.7461 C12.6513 46.7373 13.0166 46.6152 14.1396 45.6396 C14.3984 45.414 14.6367 45.205 14.8506 45.0107 C15.0429 44.6464 15.1582 44.2177 14.9824 43.8212 C14.914 43.6738 14.8301 43.5312 14.75 43.3935 Z M46.8847 25.7627 C47.1406 25.9902 47.4424 26.0976 47.7519 26.0781 C48.0605 26.0576 48.3437 25.9111 48.5683 25.6513 C48.8691 25.3105 49.0185 24.8291 48.9853 24.3261 C48.9492 23.8203 48.7363 23.3593 48.3955 23.0615 C48.1738 22.8642 47.915 22.7578 47.6484 22.747 C47.7422 22.9716 47.7998 23.2168 47.8174 23.4707 C47.8799 24.416 47.372 25.247 46.6386 25.4912 C46.7138 25.5918 46.7929 25.6845 46.8847 25.7627 Z M45.9678 15.7744 C45.6709 15.9033 44.6572 16.2822 45.1455 15.331 C44.9062 15.3369 44.6748 15.4443 44.4902 15.6347 C44.247 15.8906 44.1123 16.2646 44.122 16.6601 C44.1406 17.3759 44.6269 17.9511 45.2129 17.9375 C45.4179 17.9326 45.8261 17.8076 45.9853 17.6738 C45.9511 17.5332 45.9345 17.3847 45.9306 17.2373 C45.9199 16.7695 46.0654 16.3281 46.3281 15.9961 C46.2881 15.9033 46.0273 15.8564 45.9678 15.7744 Z M36.2441 12.7431 C35.3066 14.4755 34.0478 15.5722 33.5234 15.9785 C33.372 16.0966 33.2832 16.1562 33.2793 16.1601 C33.1982 16.2129 33.1621 16.3173 33.1826 16.417 C33.1885 16.4443 33.1982 16.4746 33.2158 16.5 C33.2793 16.6171 33.4199 16.6591 33.5185 16.5908 C33.5429 16.5781 33.6738 16.4873 33.8769 16.3281 C34.3847 15.9238 35.3408 15.0673 36.1855 13.7578 C35.9931 14.582 35.8095 15.4931 35.7558 16.1972 C35.7275 16.5273 35.7314 16.8086 35.7695 17.0185 C35.7793 17.041 35.7822 17.0722 35.789 17.0966 C35.8291 17.2295 35.9492 17.3086 36.0664 17.2773 C36.1787 17.2461 36.2441 17.1259 36.2168 16.9951 C36.2168 16.9892 36.2138 16.9853 36.2138 16.9755 C36.2099 16.9619 36.2021 16.9423 36.1992 16.9287 C36.1836 16.8466 36.1787 16.7461 36.1787 16.6289 C36.1767 15.6084 36.9756 13.416 37.0185 12.3535 C37.3428 12.2382 37.6787 12.123 37.834 11.7539 C38.0849 11.1796 37.8603 10.4619 37.3301 10.1435 C36.7998 9.8291 36.164 10.0449 35.9189 10.6191 C35.6719 11.1953 35.8994 11.9189 36.4258 12.2334 C36.4453 12.2382 36.4638 12.2382 36.4775 12.25 C36.414 12.3867 36.3584 12.5341 36.2851 12.6591 C32.0195 7.4951 31.2178 12.2548 31.2324 12.2011 C32.0117 9.9668 35.7353 12.417 36.2803 12.6787 C36.2705 12.6933 36.2636 12.708 36.2558 12.7246 C35.5859 12.915 29.4746 14.9365 29.5293 12.8408 C29.5342 12.7597 26.4609 17.6308 36.2441 12.7431 Z M35.5556 23.9873 C36.1513 24.0283 36.749 23.8125 37.2431 23.3808 C37.6982 22.9834 38.0322 22.4365 38.2158 21.8173 C37.6445 21.3252 37.1513 20.6191 36.8017 19.8779 C36.4717 19.1738 36.3467 18.417 36.4316 17.667 C36.3857 17.6543 36.3447 17.6435 36.2978 17.6328 C36.0332 17.791 35.0176 18.3545 34.9834 17.7587 C34.7402 17.8623 34.5068 18.0078 34.2929 18.1933 C33.6396 18.7675 33.2295 19.6464 33.165 20.6152 C33.0498 22.3789 34.122 23.8935 35.5556 23.9873 Z M32.5469 20.0722 C32.7138 19.2451 33.1162 18.5009 33.6972 17.9746 C33.6601 17.6279 33.5469 17.2998 33.3633 17.0322 C33.042 17.1035 32.7041 17.0605 32.7969 16.5214 C32.6465 16.4414 32.4804 16.3945 32.3095 16.3837 C31.958 16.3613 31.6172 16.4843 31.3261 16.7373 C30.9424 17.0722 30.7021 17.5918 30.664 18.1601 C30.6621 18.2119 30.6582 18.2646 30.6582 18.3164 C30.6582 19.2832 31.2636 20.0839 32.0595 20.1386 C32.2304 20.1504 32.3926 20.124 32.5469 20.0722 Z M37.3672 32.5556 C37.5166 31.9716 37.4131 30.8818 36.0547 28.9912 C35.4414 28.1367 34.7334 27.2744 34.0508 26.4414 C33.1914 25.3916 32.3886 24.4111 31.834 23.541 C30.8291 24.5791 30.4326 25.4873 30.4326 26.3652 C30.4326 27.6396 31.2636 28.8476 32.251 30.2861 L32.8564 31.1787 C33.2627 31.789 33.4658 32.4072 33.4658 33.0244 C33.4658 33.1308 33.458 33.2353 33.4472 33.3369 C33.997 33.705 34.3847 34.0761 34.622 34.457 C35.4258 34.0625 36.1709 33.6757 36.8515 33.2959 L36.8457 33.2685 C36.8584 33.2578 37.2265 33.0859 37.3672 32.5556 Z M32.5439 1.8574 C32.8447 2.4541 32.6103 3.1767 32.0254 3.4912 C32.5898 4.0918 33.5078 4.2783 34.2783 3.8886 C35.2256 3.414 35.6015 2.2636 35.1269 1.3232 C34.6543 0.3789 33.5029 0 32.5595 0.4736 C32.2168 0.6474 31.9453 0.9111 31.7646 1.2246 C32.0928 1.3115 32.3799 1.5312 32.5439 1.8574 Z M48.5215 15.625 C48.3545 15.8828 48.0508 16.1699 47.8105 15.3906 C47.6289 15.4023 47.4492 15.4531 47.2783 15.5498 C46.9121 15.7548 46.6377 16.1328 46.5088 16.5839 C46.3847 17.0322 46.4365 17.5 46.6386 17.8681 C46.7969 18.1386 47.0381 18.3369 47.3154 18.4082 C47.5928 18.4912 47.8965 18.4394 48.1689 18.2851 C48.5351 18.083 48.8174 17.7002 48.9355 17.2529 C49.0635 16.7998 49.0127 16.3339 48.8115 15.9697 C48.7295 15.831 48.6308 15.7158 48.5215 15.625 Z M30.7148 32.4365 C31.4306 32.7343 32.0293 33.0263 32.5234 33.3212 C32.54 32.748 32.3594 32.1709 31.9795 31.5986 L31.3789 30.7089 C30.581 29.5488 29.8838 28.5341 29.6142 27.4755 C28.5176 28.2666 28.0205 29.2548 27.8359 30.3466 C29.2754 30.9853 30.2109 31.664 30.7148 32.4365 Z M32.5176 7.1123 C33.1084 7.1425 33.6006 6.7207 33.7148 6.1552 C34.5967 4.9863 35.6924 4.3173 36.9804 4.1777 C38.8144 3.9785 40.7431 4.8593 42.2031 5.7783 C41.0322 5.6416 39.5888 5.8837 37.8886 6.4961 C37.7344 6.2793 37.5361 6.0976 37.2871 5.9736 C36.4775 5.5742 35.501 5.9043 35.1006 6.7119 C34.956 7.0078 34.9053 7.3261 34.9463 7.6328 C35.2138 7.5234 35.5215 7.5273 35.8017 7.664 C36.3115 7.917 36.5244 8.5283 36.2851 9.041 C36.9804 9.1621 37.6982 8.8203 38.0254 8.1591 C38.2187 7.7675 38.2392 7.3369 38.1162 6.9521 C40.5136 6.1035 42.3965 6.0195 43.5713 6.7343 C43.583 6.7421 43.5888 6.749 43.6025 6.7548 C43.7715 6.8877 43.9189 7.0078 44.0547 7.1201 C44.209 7.2744 44.3349 7.4365 44.4297 7.5937 C44.3886 7.6709 44.3545 7.747 44.3349 7.8457 C44.2998 8.0712 44.417 8.3457 44.7754 8.5859 C44.8144 8.6152 44.8428 8.6425 44.8711 8.6718 C44.8857 8.6826 44.8916 8.6904 44.9062 8.6992 C44.9795 8.7744 45.0185 8.8476 45.0342 8.9189 L45.0342 8.9443 C45.04 9.0136 45.0283 9.0791 44.9795 9.1386 C44.8252 9.3125 44.5215 9.374 44.1748 9.333 C43.8388 9.291 43.4648 9.1543 42.459 8.8769 C42.1025 8.8125 41.7685 8.7597 41.4551 8.7285 C41.3779 8.7207 41.2998 8.7138 41.2236 8.707 C40.4179 8.6591 39.3789 8.4853 38.4726 8.5937 C38.4931 8.7695 38.4902 8.9472 38.4492 9.1289 C38.4004 9.3554 38.2978 9.5625 38.164 9.7431 C38.2158 9.7998 38.2549 9.874 38.2978 9.9755 C39.1006 11.6582 37.834 13.3789 37.7412 13.5117 C37.6513 13.6875 37.708 13.9062 37.8301 14.0576 C38.4355 13.1123 38.8369 12.6269 39.583 12.3554 C40.2607 12.1084 40.9638 11.9453 41.6943 11.9326 C41.7949 11.9287 41.8857 12.0058 41.9004 12.1054 C41.956 12.4951 42.0635 12.7412 42.2246 12.8369 C42.3457 12.915 42.5215 12.9082 42.7109 12.8642 C43.376 12.2597 44.1953 11.8691 45.5937 12.039 L45.5967 12.039 C46.1054 12.0332 46.5898 11.8789 46.8916 11.5449 C46.9609 11.4707 47.0136 11.3896 47.0576 11.3056 C47.3154 11.3545 47.5703 11.4218 47.8105 11.5107 L47.9961 11.5888 C47.2275 13.8086 45.914 14.875 45.9004 14.8867 C45.7871 14.9746 45.7685 15.1328 45.8535 15.2461 C45.9404 15.3574 46.1025 15.3769 46.2148 15.291 C46.2617 15.2548 47.0771 14.581 47.8261 13.2343 C47.79 13.5722 47.7646 13.9062 47.7646 14.2041 C47.7646 14.5595 47.7998 14.8584 47.8867 15.039 C47.9463 15.166 48.1006 15.2207 48.2275 15.1591 C48.3545 15.0976 48.4082 14.9443 48.3486 14.8164 C48.1806 14.4658 48.3388 13.0283 48.5351 11.8623 C52.6924 14.1689 54.0449 22.0869 50.4541 20.9365 C50.664 21.0771 50.8623 21.2451 51.0322 21.4384 C51.4726 21.9248 51.7285 22.5009 51.7998 23.0654 C52.2138 23.2714 52.6094 23.541 52.9785 23.8632 C53.25 24.1054 53.497 24.3701 53.7119 24.6523 C55.4873 21.3183 52.8398 12.417 47.0849 10.125 L47.164 9.499 C47.539 8.6464 47.1269 7.5214 46.2744 7.2148 C46.2217 7.1923 46.1416 7.1699 46.0459 7.1504 C45.9062 7.1259 45.7373 7.1084 45.5566 7.1084 C45.5312 7.1084 45.5097 7.1064 45.4863 7.1084 C45.2959 7.1123 45.1015 7.1367 44.9258 7.2002 L44.9219 7.2002 C44.8545 7.1367 44.6601 6.956 44.3613 6.705 C44.2734 6.625 44.1748 6.5468 44.0742 6.4716 C43.7715 6.2304 43.3896 5.9492 42.9707 5.6611 C43.7959 5.5683 44.4345 4.8769 44.4297 4.0332 C44.4267 3.124 43.6894 2.3916 42.7773 2.3955 C41.8701 2.3994 41.1377 3.1367 41.1435 4.0429 C41.1435 4.2617 41.1875 4.4668 41.2636 4.6582 C40.4678 4.2578 39.5947 3.9257 38.7002 3.7568 C38.8008 3.6826 38.9023 3.6132 38.9844 3.5127 C39.4424 2.9199 39.3349 2.0693 38.7402 1.6103 C38.1513 1.1533 37.2978 1.2597 36.8379 1.8525 C36.4072 2.4101 36.4931 3.1923 37.0049 3.666 C36.9804 3.6679 36.9521 3.667 36.9248 3.6699 C35.6484 3.8076 34.5459 4.4091 33.6328 5.4462 C33.456 5.0615 33.0888 4.7783 32.6347 4.7548 C32.3974 4.7431 32.1709 4.8037 31.9795 4.916 C32.126 5.0625 32.2168 5.2685 32.2031 5.4931 C32.1836 5.9043 31.8388 6.2226 31.4287 6.2138 C31.5469 6.708 31.9814 7.0859 32.5176 7.1123 Z M49.997 19.0644 C49.6699 18.8457 48.6494 19.8232 48.6572 20.3828 C48.8037 20.3545 48.959 20.3437 49.1191 20.3505 C49.2734 20.3603 49.4238 20.3837 49.5752 20.4248 C49.5478 20.3916 49.5429 20.3369 49.5508 20.2519 C49.6103 20.0087 50.3095 19.2793 49.997 19.0644 Z M49.6474 24.7666 C50.0459 24.7861 50.416 24.6621 50.6875 24.4189 C51.3457 23.8271 51.2822 22.6875 50.5537 21.8779 C50.1533 21.4375 49.6181 21.164 49.084 21.1367 C48.6758 21.1162 48.3174 21.2373 48.04 21.4873 C47.8594 21.6484 47.7304 21.8623 47.6553 22.1035 C47.6816 22.1386 47.7051 22.1757 47.7304 22.2158 C47.7383 22.2158 47.7422 22.2129 47.75 22.2129 C48.1357 22.1865 48.5283 22.3281 48.8418 22.6035 C49.2451 22.955 49.5029 23.4951 49.5429 24.083 C49.5547 24.3125 49.5342 24.5371 49.4912 24.75 C49.5429 24.7597 49.5967 24.7636 49.6474 24.7666 Z M22.1396 7.6894 C22.1347 7.7636 27.4258 7.5761 24.6601 5.1718 C23.0801 3.7998 20.2744 3.2851 17.9853 4.9394 C17.9824 4.9414 22.4385 3.9599 22.1396 7.6894 Z M48.4678 18.7627 C48.1885 18.8623 47.8867 18.8681 47.5888 18.791 C47.6084 19.2041 47.7636 19.7255 47.6758 20.0996 C47.664 20.1504 47.6484 20.2002 47.6367 20.2509 C47.8662 20.3642 48.0566 20.4492 48.1885 20.5039 C48.2138 20.4502 48.2383 20.3974 48.2636 20.3437 C48.5586 19.7002 48.748 19.0332 49.3496 18.5039 C49.4638 18.3857 49.7558 18.2744 49.9814 18.2617 C50.2461 18.2587 50.5097 18.3291 50.6562 18.5127 C51.0254 18.9853 50.1953 20.3584 49.832 20.4863 C50.0556 20.5214 50.2763 20.5849 50.4883 20.6777 C50.7314 20.3642 50.959 19.9043 51.1523 19.2656 C51.5166 18.041 50.5146 15.8867 49.2129 15.8574 C49.289 15.9863 49.3467 16.125 49.4033 16.2705 C49.8125 17.0781 49.3398 17.957 49.3398 17.957 C49.3398 17.957 48.9551 18.6367 48.4678 18.7627 Z M21.2715 18.3955 C21.7568 18.4765 22.7617 17.2421 22.9912 16.9179 C22.709 16.7207 22.5517 16.5517 22.4648 16.2207 C22.3008 16.1406 22.1504 16.1318 22.001 16.2002 C21.3877 16.4804 21.0478 17.8681 21.0088 18.0341 C21.0566 18.2519 21.1474 18.372 21.2715 18.3955 Z M23.7851 18.9423 C23.8359 18.9853 23.9013 19.0058 23.9619 19.0117 C24.0039 19.0175 24.082 19.0156 24.0888 18.9726 C24.1377 18.3877 24.0859 17.791 24.2597 17.2295 C23.9345 17.4033 23.6709 17.4375 23.4765 17.4531 C22.8525 17.4746 23.25 18.3086 23.4961 18.6904 C23.5644 18.789 23.6806 18.8545 23.7851 18.9423 Z M24.8691 13.6328 C24.8418 13.7802 24.8506 13.957 24.8935 14.163 C25.0029 14.1386 25.1094 14.1923 25.2168 14.2763 C25.3222 14.3437 25.8515 15.2675 26.2441 15.1162 C26.3271 15.0703 26.4209 15.0468 26.4717 14.9502 C26.4853 14.9257 26.4892 14.8681 26.4804 14.8496 C26.247 14.582 25.9013 14.4052 25.7929 14.0224 C25.7236 13.706 25.2715 13.5791 24.9433 13.4492 C24.9092 13.4834 24.8847 13.5537 24.8691 13.6328 Z M23.751 14.0478 C23.7422 14.1543 23.8252 14.25 23.9316 14.2548 C24.039 14.2656 24.1318 14.1826 24.1426 14.0781 C24.1484 13.9365 24.1553 13.8115 24.1582 13.6796 C24.251 11.0869 23.542 10.4004 22.6601 10.1933 C22.2041 10.0869 21.001 10.3828 20.4844 10.5087 C20.6855 10.581 20.8808 10.6787 21.0703 10.7929 C21.3554 10.7656 22.2734 10.5087 22.5273 10.5683 C23.5742 10.8203 23.8271 11.7656 23.7705 13.6093 C23.7685 13.7539 23.7607 13.8974 23.751 14.0478 Z M24.6963 18.0254 C24.747 18.0673 24.7842 18.0595 24.8437 18.0595 C25.0722 18.0341 25.247 17.8847 25.4629 17.8828 C25.7197 17.8886 26.0039 18.122 26.247 17.9345 C26.2597 17.9121 26.2676 17.8691 26.2588 17.8349 C26.1191 17.5566 25.9179 17.3388 25.8164 17.0517 C25.7636 16.8701 25.5967 16.7617 25.4189 16.6923 C25.4492 16.9394 25.1289 17.1289 24.9853 17.2509 C24.8808 17.3593 24.7783 17.4863 24.7011 17.6279 C24.666 17.7177 24.6269 17.7851 24.6357 17.8828 C24.6504 17.9375 24.6426 17.9795 24.6963 18.0254 Z M25.2588 15.4785 C25.1094 15.3046 24.5967 14.6972 24.1103 14.4306 C24.0859 14.6074 23.9511 14.7412 23.79 14.7412 C23.664 14.7412 23.4189 14.5966 23.2861 14.4375 C23.2168 14.4785 23.1592 14.5224 23.1162 14.5908 C23.0967 14.664 23.0752 14.7412 23.0469 14.8125 C23.0332 14.958 23.0537 15.1494 23.1162 15.4257 C23.25 16.0195 22.9248 16.792 24.3076 16.8212 C25.0547 16.8388 25.6455 15.9267 25.2588 15.4785 Z M20.3428 18.874 C20.4551 18.3125 20.2998 17.7734 19.9785 17.4375 C19.8203 17.2705 19.623 17.1533 19.3926 17.1074 C19.3877 17.1054 19.3847 17.1054 19.3779 17.1054 C19.3779 17.1396 19.3779 17.1709 19.3769 17.2002 C19.3369 17.9296 18.8349 17.7109 18.5107 17.4912 C18.4687 17.4599 18.4267 17.4306 18.3916 17.4023 C18.2929 17.4863 18.2031 17.5869 18.1269 17.6972 C18.3974 18.1259 18.4922 18.6826 18.3838 19.2334 C18.3437 19.4306 18.2763 19.622 18.1904 19.7959 C18.3515 19.9746 18.5547 20.0966 18.791 20.1445 C19.4814 20.2812 20.1767 19.7119 20.3428 18.874 Z M22.6181 30.6826 C23.5654 29.3886 24.4668 28.1591 24.4668 26.9746 C24.4668 26.8466 24.4551 26.7207 24.4326 26.5908 C24.2969 25.8115 23.7314 25.0781 22.7138 24.3466 C22.1562 25.2295 21.3447 26.2226 20.4717 27.291 C19.7881 28.1259 19.0791 28.9912 18.4678 29.8408 C17.1064 31.7353 17.0029 32.8242 17.1562 33.4062 C17.2969 33.9355 17.664 34.1123 17.6767 34.1211 L17.6689 34.1464 C18.9756 34.874 20.5029 35.625 22.248 36.4043 C21.7822 35.9384 21.3174 35.3076 21.1338 34.5459 C21.082 34.3252 21.0566 34.1005 21.0566 33.8769 C21.0566 33.2578 21.2568 32.6386 21.667 32.0283 C21.9717 31.5664 22.3008 31.1181 22.6181 30.6826 Z M14.2969 18.5498 C14.2705 18.539 14.2392 18.5254 14.2099 18.5166 C13.7549 18.7441 13.4248 18.7968 13.2051 18.6718 C13.0937 18.6074 13.0205 18.5 12.9873 18.3535 C12.7636 18.3642 12.5439 18.3916 12.3388 18.4423 C11.7392 18.5879 11.3066 18.8847 11.1845 19.2304 C11.1631 19.2949 11.1513 19.3584 11.1513 19.4257 C11.1513 19.5586 11.2011 19.6894 11.2978 19.8212 C11.7363 20.3955 12.9297 20.6562 13.9629 20.4043 C14.1562 20.3545 14.333 20.291 14.4853 20.2177 C14.2344 19.792 14.1513 19.2539 14.2568 18.7246 C14.2666 18.664 14.2803 18.6074 14.2969 18.5498 Z M19.3388 21.2089 C19.2646 21.1923 19.1894 21.1679 19.1191 21.1367 C18.5176 21.498 17.8418 21.8466 17.1133 22.1494 C15.8222 22.6816 14.5644 22.9746 13.3525 23.0224 C13.7627 23.6591 14.0342 24.3681 14.1631 25.0976 C15.8008 23.6201 17.7285 22.2558 19.3388 21.2089 Z M26.5381 16.8056 C27.0898 16.3925 27.5019 15.7627 27.3916 15.0254 C27.3926 14.9648 27.334 14.8252 27.2842 14.8584 C26.9004 15.3046 26.5263 15.7255 26.0224 15.9668 C26.2002 16.4638 26.3467 16.958 26.5381 16.8056 Z M16.0566 20.5351 C16.3398 20.5918 16.6396 20.5244 16.8984 20.3476 C17.2607 20.1093 17.5176 19.6972 17.6142 19.2216 C17.6386 19.0937 17.6513 18.9648 17.6513 18.8388 C17.6513 18.4961 17.5595 18.1718 17.3847 17.9121 C17.3847 17.9121 17.0928 17.6367 17.0195 17.5664 C16.7812 17.788 16.5664 17.9248 16.3984 17.8681 C16.2607 17.8222 16.1806 17.6767 16.1279 17.4746 C16.0107 17.5254 15.8359 17.6025 15.8359 17.6025 C15.4765 17.8408 15.2187 18.2529 15.123 18.7275 C15.0967 18.8574 15.084 18.9853 15.084 19.1113 C15.084 19.4531 15.1777 19.7802 15.3515 20.039 C15.5283 20.3037 15.7783 20.4795 16.0566 20.5351 Z M18.4013 15.2793 C17.8799 14.8769 17.5469 14.2939 17.4609 13.6435 C17.3779 12.9892 17.5547 12.3418 17.956 11.8242 C18.7851 10.748 20.3349 10.5488 21.4121 11.3769 C21.6338 11.5459 21.8144 11.749 21.9668 11.9755 C21.6299 12.2011 21.459 12.4287 21.459 12.6582 C21.459 12.6748 21.4609 12.6933 21.4629 12.708 C21.4912 12.999 21.789 13.2412 22.3633 13.4453 C22.3379 13.9531 22.1679 14.4306 21.8584 14.832 C21.0283 15.9101 19.4756 16.1103 18.4013 15.2793 " transform="translate(0, 0)"/>
  <path style="fill:#000000; fill-rule:nonzero;stroke:none;" d="M1.8408 0.5401 L1.8408 4.2461 L1.2353 4.2461 L1.2353 0.5401 L0 0.5401 L0 0 L3.0761 0 L3.0761 0.5401 L1.8408 0.5401 Z" transform="translate(60.9131, 37.9638)"/>
  <path style="fill:#000000; fill-rule:nonzero;stroke:none;" d="M2.6817 4.2461 L2.6817 2.3213 L0.6123 2.3213 L0.6123 4.2461 L0 4.2461 L0 0 L0.6123 0 L0.6123 1.7813 L2.6817 1.7813 L2.6817 0 L3.292 0 L3.292 4.2461 L2.6817 4.2461 Z" transform="translate(65.4355, 37.9638)"/>
  <path style="fill:#000000; fill-rule:nonzero;stroke:none;" d="M0 4.2461 L0 0 L2.8731 0 L2.8731 0.5401 L0.6123 0.5401 L0.6123 1.7813 L2.0157 1.7813 L2.0157 2.3213 L0.6123 2.3213 L0.6123 3.7071 L2.9395 3.7071 L2.9395 4.2461 L0 4.2461 Z" transform="translate(70.5517, 37.9638)"/>
  <path style="fill:#000000; fill-rule:nonzero;stroke:none;" d="M1.8105 4.4151 C0.791 4.4151 0.1855 3.8448 0 3.0284 L0.6289 3.0284 C0.8213 3.6651 1.3427 3.8799 1.8759 3.8799 C2.3799 3.8799 2.8242 3.6709 2.8242 3.1905 C2.8242 2.7286 2.4521 2.6094 2.1045 2.5489 C1.5761 2.459 1.2285 2.4112 0.9228 2.2911 C0.5332 2.1368 0.1855 1.8116 0.1855 1.2295 C0.1855 0.4571 0.8037 0 1.6787 0 C2.5781 0 3.1474 0.5284 3.3154 1.2959 L2.7041 1.2959 C2.542 0.7618 2.1289 0.5235 1.6601 0.5235 C1.2705 0.5235 0.8037 0.6836 0.8037 1.1758 C0.8037 1.6133 1.1924 1.753 1.541 1.836 C1.9179 1.9258 2.2129 1.9327 2.6386 2.0577 C3.0576 2.1836 3.459 2.4834 3.459 3.1319 C3.459 3.8799 2.8545 4.4151 1.8105 4.4151 Z" transform="translate(77.7461, 37.8798)"/>
  <path style="fill:#000000; fill-rule:nonzero;stroke:none;" d="M4.1973 4.2461 L3.3818 4.2461 L2.5791 0.6963 L1.7568 4.2461 L0.9414 4.2461 L0 0 L0.6543 0 L1.3799 3.6895 L2.249 0 L2.9082 0 L3.7724 3.6895 L4.4971 0 L5.1387 0 L4.1973 4.2461 Z" transform="translate(82.3955, 37.9638)"/>
  <path style="fill:#000000; fill-rule:nonzero;stroke:none;" d="M0 4.2461 L0 0 L2.8724 0 L2.8724 0.5401 L0.6113 0.5401 L0.6113 1.7813 L2.0144 1.7813 L2.0144 2.3213 L0.6113 2.3213 L0.6113 3.7071 L2.9384 3.7071 L2.9384 4.2461 L0 4.2461 Z" transform="translate(88.9746, 37.9638)"/>
  <path style="fill:#000000; fill-rule:nonzero;stroke:none;" d="M1.595 0.5401 L0.612 0.5401 L0.612 3.7071 L1.595 3.7071 C2.458 3.7071 2.896 3.1367 2.896 2.1231 C2.896 1.1104 2.458 0.5401 1.595 0.5401 Z M2.962 3.7422 C2.584 4.1084 2.207 4.2461 1.535 4.2461 L0 4.2461 L0 0 L1.535 0 C2.207 0 2.584 0.1397 2.962 0.5039 C3.34 0.877 3.538 1.4756 3.538 2.1231 C3.538 2.7705 3.34 3.3701 2.962 3.7422 Z" transform="translate(93.425, 37.9638)"/>
  <path style="fill:#000000; fill-rule:nonzero;stroke:none;" d="M0 4.2461 L0 0 L0.611 0 L0.611 4.2461 L0 4.2461 Z" transform="translate(98.598, 37.9638)"/>
  <path style="fill:#000000; fill-rule:nonzero;stroke:none;" d="M1.81 4.4151 C0.791 4.4151 0.185 3.8448 0 3.0284 L0.63 3.0284 C0.821 3.6651 1.342 3.8799 1.877 3.8799 C2.381 3.8799 2.824 3.6709 2.824 3.1905 C2.824 2.7286 2.452 2.6094 2.104 2.5489 C1.577 2.459 1.229 2.4112 0.924 2.2911 C0.533 2.1368 0.185 1.8116 0.185 1.2295 C0.185 0.4571 0.803 0 1.678 0 C2.578 0 3.148 0.5284 3.316 1.2959 L2.704 1.2959 C2.543 0.7618 2.129 0.5235 1.661 0.5235 C1.271 0.5235 0.803 0.6836 0.803 1.1758 C0.803 1.6133 1.193 1.753 1.541 1.836 C1.919 1.9258 2.213 1.9327 2.638 2.0577 C3.058 2.1836 3.46 2.4834 3.46 3.1319 C3.46 3.8799 2.854 4.4151 1.81 4.4151 Z" transform="translate(100.762, 37.8798)"/>
  <path style="fill:#000000; fill-rule:nonzero;stroke:none;" d="M2.68 4.2461 L2.68 2.3213 L0.612 2.3213 L0.612 4.2461 L0 4.2461 L0 0 L0.612 0 L0.612 1.7813 L2.68 1.7813 L2.68 0 L3.293 0 L3.293 4.2461 L2.68 4.2461 Z" transform="translate(105.841, 37.9638)"/>
  <path style="fill:#000000; fill-rule:nonzero;stroke:none;" d="M0.612 0.5401 L0.612 1.7813 L2.021 1.7813 L2.021 2.3213 L0.612 2.3213 L0.612 4.2461 L0 4.2461 L0 0 L2.752 0 L2.752 0.5401 L0.612 0.5401 Z" transform="translate(113.862, 37.9638)"/>
  <path style="fill:#000000; fill-rule:nonzero;stroke:none;" d="M1.972 0.539 C1.086 0.539 0.647 1.205 0.647 2.2119 C0.647 3.2011 1.109 3.8847 1.972 3.8847 C2.831 3.8847 3.299 3.2011 3.299 2.2119 C3.299 1.2285 2.837 0.539 1.972 0.539 Z M1.972 4.4248 C0.719 4.4248 0 3.5498 0 2.2119 C0 0.9707 0.719 0 1.972 0 C3.22 0 3.94 0.9707 3.94 2.2119 C3.94 3.5498 3.22 4.4248 1.972 4.4248 Z" transform="translate(117.759, 37.875)"/>
  <path style="fill:#000000; fill-rule:nonzero;stroke:none;" d="M1.636 4.3311 C0.599 4.3311 0 3.8448 0 2.7285 L0 0 L0.605 0 L0.605 2.7168 C0.605 3.4366 0.887 3.7959 1.643 3.7959 C2.381 3.7959 2.669 3.4366 2.669 2.7168 L2.669 0 L3.268 0 L3.268 2.7285 C3.268 3.8379 2.591 4.3311 1.636 4.3311 Z" transform="translate(123.303, 37.9638)"/>
  <path style="fill:#000000; fill-rule:nonzero;stroke:none;" d="M2.596 4.2461 L0.599 0.7569 L0.599 4.2461 L0 4.2461 L0 0 L0.797 0 L2.77 3.4366 L2.77 0 L3.37 0 L3.37 4.2461 L2.596 4.2461 Z" transform="translate(128.379, 37.9638)"/>
  <path style="fill:#000000; fill-rule:nonzero;stroke:none;" d="M1.595 0.5401 L0.611 0.5401 L0.611 3.7071 L1.595 3.7071 C2.458 3.7071 2.896 3.1367 2.896 2.1231 C2.896 1.1104 2.458 0.5401 1.595 0.5401 Z M2.962 3.7422 C2.584 4.1084 2.206 4.2461 1.535 4.2461 L0 4.2461 L0 0 L1.535 0 C2.206 0 2.584 0.1397 2.962 0.5039 C3.34 0.877 3.538 1.4756 3.538 2.1231 C3.538 2.7705 3.34 3.3701 2.962 3.7422 Z" transform="translate(133.58, 37.9638)"/>
  <path style="fill:#000000; fill-rule:nonzero;stroke:none;" d="M1.871 0.4024 L1.092 2.8614 L2.651 2.8614 L1.871 0.4024 Z M3.089 4.2461 L2.825 3.4004 L0.918 3.4004 L0.654 4.2461 L0 4.2461 L1.451 0 L2.303 0 L3.754 4.2461 L3.089 4.2461 Z" transform="translate(138.213, 37.9638)"/>
  <path style="fill:#000000; fill-rule:nonzero;stroke:none;" d="M1.842 0.5401 L1.842 4.2461 L1.236 4.2461 L1.236 0.5401 L0 0.5401 L0 0 L3.078 0 L3.078 0.5401 L1.842 0.5401 Z" transform="translate(142.647, 37.9638)"/>
  <path style="fill:#000000; fill-rule:nonzero;stroke:none;" d="M0 4.2461 L0 0 L0.611 0 L0.611 4.2461 L0 4.2461 Z" transform="translate(147.175, 37.9638)"/>
  <path style="fill:#000000; fill-rule:nonzero;stroke:none;" d="M1.973 0.539 C1.086 0.539 0.647 1.205 0.647 2.2119 C0.647 3.2011 1.109 3.8847 1.973 3.8847 C2.831 3.8847 3.299 3.2011 3.299 2.2119 C3.299 1.2285 2.837 0.539 1.973 0.539 Z M1.973 4.4248 C0.72 4.4248 0 3.5498 0 2.2119 C0 0.9707 0.72 0 1.973 0 C3.221 0 3.94 0.9707 3.94 2.2119 C3.94 3.5498 3.221 4.4248 1.973 4.4248 Z" transform="translate(149.42, 37.875)"/>
  <path style="fill:#000000; fill-rule:nonzero;stroke:none;" d="M2.595 4.2461 L0.599 0.7569 L0.599 4.2461 L0 4.2461 L0 0 L0.796 0 L2.771 3.4366 L2.771 0 L3.371 0 L3.371 4.2461 L2.595 4.2461 Z" transform="translate(154.997, 37.9638)"/>
  <path style="fill:#000000; fill-rule:nonzero;stroke:none;" d="M0.611 0.5401 L0.611 1.7813 L2.02 1.7813 L2.02 2.3213 L0.611 2.3213 L0.611 4.2461 L0 4.2461 L0 0 L2.752 0 L2.752 0.5401 L0.611 0.5401 Z" transform="translate(163.102, 37.9638)"/>
  <path style="fill:#000000; fill-rule:nonzero;stroke:none;" d="M1.972 0.539 C1.085 0.539 0.648 1.205 0.648 2.2119 C0.648 3.2011 1.109 3.8847 1.972 3.8847 C2.832 3.8847 3.298 3.2011 3.298 2.2119 C3.298 1.2285 2.837 0.539 1.972 0.539 Z M1.972 4.4248 C0.72 4.4248 0 3.5498 0 2.2119 C0 0.9707 0.72 0 1.972 0 C3.22 0 3.941 0.9707 3.941 2.2119 C3.941 3.5498 3.22 4.4248 1.972 4.4248 Z" transform="translate(166.997, 37.875)"/>
  <path style="fill:#000000; fill-rule:nonzero;stroke:none;" d="M1.595 0.5401 L0.617 0.5401 L0.617 1.9912 C0.756 2.0157 1.068 2.0576 1.384 2.0576 C2.152 2.0576 2.476 1.752 2.476 1.2715 C2.476 0.7744 2.17 0.5401 1.595 0.5401 Z M2.459 4.2461 L1.564 2.5606 L0.617 2.5606 L0.617 4.2461 L0 4.2461 L0 0 L1.654 0 C2.554 0 3.105 0.4571 3.105 1.2774 C3.105 1.8604 2.771 2.291 2.17 2.4532 L3.16 4.2461 L2.459 4.2461 Z" transform="translate(172.575, 37.9638)"/>
  <path style="fill:#000000; fill-rule:nonzero;stroke:none;" d="M2.6806 4.2461 L2.6806 2.3213 L0.6113 2.3213 L0.6113 4.2461 L0 4.2461 L0 0 L0.6113 0 L0.6113 1.7813 L2.6806 1.7813 L2.6806 0 L3.292 0 L3.292 4.2461 L2.6806 4.2461 Z" transform="translate(61.2549, 45.164)"/>
  <path style="fill:#000000; fill-rule:nonzero;stroke:none;" d="M1.6368 4.3301 C0.5996 4.3301 0 3.8457 0 2.7285 L0 0 L0.6055 0 L0.6055 2.7168 C0.6055 3.4375 0.8877 3.7969 1.6426 3.7969 C2.3809 3.7969 2.669 3.4375 2.669 2.7168 L2.669 0 L3.2676 0 L3.2676 2.7285 C3.2676 3.8379 2.5909 4.3301 1.6368 4.3301 Z" transform="translate(66.3515, 45.164)"/>
  <path style="fill:#000000; fill-rule:nonzero;stroke:none;" d="M3.6826 4.2461 L3.6826 0.6192 L2.4287 4.2461 L1.8408 4.2461 L0.6054 0.6192 L0.6054 4.2461 L0 4.2461 L0 0 L0.9541 0 L2.1406 3.5508 L3.3466 0 L4.2822 0 L4.2822 4.2461 L3.6826 4.2461 Z" transform="translate(71.4297, 45.164)"/>
  <path style="fill:#000000; fill-rule:nonzero;stroke:none;" d="M1.8711 0.4024 L1.0908 2.8614 L2.6504 2.8614 L1.8711 0.4024 Z M3.0879 4.2461 L2.8232 3.4004 L0.917 3.4004 L0.6523 4.2461 L0 4.2461 L1.4512 0 L2.3017 0 L3.7539 4.2461 L3.0879 4.2461 Z" transform="translate(77.1455, 45.164)"/>
  <path style="fill:#000000; fill-rule:nonzero;stroke:none;" d="M2.5967 4.2461 L0.5996 0.7569 L0.5996 4.2461 L0 4.2461 L0 0 L0.7979 0 L2.7705 3.4375 L2.7705 0 L3.3701 0 L3.3701 4.2461 L2.5967 4.2461 Z" transform="translate(82.332, 45.164)"/>
  <path style="fill:#000000; fill-rule:nonzero;stroke:none;" d="M0 4.2461 L0 0 L0.6113 0 L0.6113 4.2461 L0 4.2461 Z" transform="translate(87.5254, 45.164)"/>
  <path style="fill:#000000; fill-rule:nonzero;stroke:none;" d="M1.8409 0.5401 L1.8409 4.2461 L1.2359 4.2461 L1.2359 0.5401 L0 0.5401 L0 0 L3.0769 0 L3.0769 0.5401 L1.8409 0.5401 Z" transform="translate(89.5801, 45.164)"/>
  <path style="fill:#000000; fill-rule:nonzero;stroke:none;" d="M0 4.2461 L0 0 L0.612 0 L0.612 4.2461 L0 4.2461 Z" transform="translate(94.106, 45.164)"/>
  <path style="fill:#000000; fill-rule:nonzero;stroke:none;" d="M0 4.2461 L0 0 L2.872 0 L2.872 0.5401 L0.612 0.5401 L0.612 1.7813 L2.015 1.7813 L2.015 2.3213 L0.612 2.3213 L0.612 3.7071 L2.939 3.7071 L2.939 4.2461 L0 4.2461 Z" transform="translate(96.535, 45.164)"/>
  <path style="fill:#000000; fill-rule:nonzero;stroke:none;" d="M1.811 4.4141 C0.791 4.4141 0.186 3.8457 0 3.0284 L0.63 3.0284 C0.822 3.6641 1.343 3.8809 1.877 3.8809 C2.381 3.8809 2.825 3.6719 2.825 3.1905 C2.825 2.7286 2.453 2.6094 2.105 2.5489 C1.578 2.459 1.23 2.4112 0.924 2.2911 C0.534 2.1358 0.186 1.8116 0.186 1.2295 C0.186 0.4571 0.804 0 1.679 0 C2.579 0 3.149 0.5284 3.317 1.2959 L2.704 1.2959 C2.543 0.7618 2.129 0.5235 1.662 0.5235 C1.272 0.5235 0.804 0.6856 0.804 1.1758 C0.804 1.6133 1.194 1.753 1.541 1.836 C1.919 1.9258 2.213 1.9317 2.639 2.0577 C3.059 2.1836 3.46 2.4834 3.46 3.1319 C3.46 3.8809 2.855 4.4141 1.811 4.4141 Z" transform="translate(100.733, 45.08)"/>
  <path style="fill:#000000; fill-rule:nonzero;stroke:none;" d="M1.871 0.4024 L1.092 2.8614 L2.652 2.8614 L1.871 0.4024 Z M3.089 4.2461 L2.825 3.4004 L0.918 3.4004 L0.655 4.2461 L0 4.2461 L1.451 0 L2.303 0 L3.754 4.2461 L3.089 4.2461 Z" transform="translate(108.363, 45.164)"/>
  <path style="fill:#000000; fill-rule:nonzero;stroke:none;" d="M2.596 4.2461 L0.599 0.7569 L0.599 4.2461 L0 4.2461 L0 0 L0.797 0 L2.77 3.4375 L2.77 0 L3.37 0 L3.37 4.2461 L2.596 4.2461 Z" transform="translate(113.548, 45.164)"/>
  <path style="fill:#000000; fill-rule:nonzero;stroke:none;" d="M1.595 0.5401 L0.611 0.5401 L0.611 3.7071 L1.595 3.7071 C2.458 3.7071 2.896 3.1367 2.896 2.1231 C2.896 1.1104 2.458 0.5401 1.595 0.5401 Z M2.962 3.7422 C2.584 4.1094 2.206 4.2461 1.535 4.2461 L0 4.2461 L0 0 L1.535 0 C2.206 0 2.584 0.1397 2.962 0.5039 C3.34 0.877 3.538 1.4766 3.538 2.1231 C3.538 2.7705 3.34 3.3711 2.962 3.7422 Z" transform="translate(118.745, 45.164)"/>
  <path style="fill:#000000; fill-rule:nonzero;stroke:none;" d="M1.81 4.4141 C0.791 4.4141 0.185 3.8457 0 3.0284 L0.63 3.0284 C0.821 3.6641 1.343 3.8809 1.877 3.8809 C2.381 3.8809 2.824 3.6719 2.824 3.1905 C2.824 2.7286 2.452 2.6094 2.104 2.5489 C1.577 2.459 1.229 2.4112 0.924 2.2911 C0.533 2.1358 0.185 1.8116 0.185 1.2295 C0.185 0.4571 0.803 0 1.678 0 C2.578 0 3.148 0.5284 3.316 1.2959 L2.704 1.2959 C2.543 0.7618 2.129 0.5235 1.661 0.5235 C1.271 0.5235 0.803 0.6856 0.803 1.1758 C0.803 1.6133 1.193 1.753 1.541 1.836 C1.919 1.9258 2.213 1.9317 2.638 2.0577 C3.058 2.1836 3.46 2.4834 3.46 3.1319 C3.46 3.8809 2.854 4.4141 1.81 4.4141 Z" transform="translate(126.592, 45.08)"/>
  <path style="fill:#000000; fill-rule:nonzero;stroke:none;" d="M1.972 0.54 C1.086 0.54 0.647 1.206 0.647 2.2129 C0.647 3.2021 1.109 3.8867 1.972 3.8867 C2.831 3.8867 3.299 3.2021 3.299 2.2129 C3.299 1.2295 2.837 0.54 1.972 0.54 Z M1.972 4.4258 C0.719 4.4258 0 3.5508 0 2.2129 C0 0.9717 0.719 0 1.972 0 C3.22 0 3.94 0.9717 3.94 2.2129 C3.94 3.5508 3.22 4.4258 1.972 4.4258 Z" transform="translate(131.469, 45.0742)"/>
  <path style="fill:#000000; fill-rule:nonzero;stroke:none;" d="M3.064 1.3916 C2.902 0.8467 2.405 0.54 1.961 0.54 C1.031 0.54 0.641 1.3135 0.641 2.2129 C0.641 3.1133 1.044 3.8867 1.961 3.8867 C2.518 3.8867 2.992 3.5996 3.142 2.8965 L3.754 2.8965 C3.574 3.8984 2.915 4.4258 1.972 4.4258 C0.702 4.4258 0 3.5508 0 2.2129 C0 0.9717 0.696 0 1.972 0 C2.848 0 3.49 0.54 3.682 1.3916 L3.064 1.3916 Z" transform="translate(136.849, 45.0742)"/>
  <path style="fill:#000000; fill-rule:nonzero;stroke:none;" d="M0 4.2461 L0 0 L0.611 0 L0.611 4.2461 L0 4.2461 Z" transform="translate(142.172, 45.164)"/>
  <path style="fill:#000000; fill-rule:nonzero;stroke:none;" d="M1.871 0.4024 L1.092 2.8614 L2.651 2.8614 L1.871 0.4024 Z M3.089 4.2461 L2.825 3.4004 L0.918 3.4004 L0.654 4.2461 L0 4.2461 L1.451 0 L2.303 0 L3.754 4.2461 L3.089 4.2461 Z" transform="translate(144.203, 45.164)"/>
  <path style="fill:#000000; fill-rule:nonzero;stroke:none;" d="M0 4.2461 L0 0 L0.611 0 L0.611 3.7071 L2.679 3.7071 L2.679 4.2461 L0 4.2461 Z" transform="translate(149.389, 45.164)"/>
  <path style="fill:#000000; fill-rule:nonzero;stroke:none;" d="M1.81 4.4141 C0.791 4.4141 0.185 3.8457 0 3.0284 L0.631 3.0284 C0.822 3.6641 1.343 3.8809 1.877 3.8809 C2.381 3.8809 2.824 3.6719 2.824 3.1905 C2.824 2.7286 2.453 2.6094 2.105 2.5489 C1.578 2.459 1.23 2.4112 0.924 2.2911 C0.533 2.1358 0.185 1.8116 0.185 1.2295 C0.185 0.4571 0.804 0 1.679 0 C2.578 0 3.148 0.5284 3.316 1.2959 L2.705 1.2959 C2.543 0.7618 2.129 0.5235 1.662 0.5235 C1.271 0.5235 0.804 0.6856 0.804 1.1758 C0.804 1.6133 1.193 1.753 1.541 1.836 C1.92 1.9258 2.213 1.9317 2.638 2.0577 C3.058 2.1836 3.461 2.4834 3.461 3.1319 C3.461 3.8809 2.855 4.4141 1.81 4.4141 Z" transform="translate(156.239, 45.08)"/>
  <path style="fill:#000000; fill-rule:nonzero;stroke:none;" d="M3.064 1.3916 C2.902 0.8467 2.406 0.54 1.961 0.54 C1.031 0.54 0.642 1.3135 0.642 2.2129 C0.642 3.1133 1.045 3.8867 1.961 3.8867 C2.519 3.8867 2.992 3.5996 3.142 2.8965 L3.754 2.8965 C3.574 3.8984 2.916 4.4258 1.972 4.4258 C0.703 4.4258 0 3.5508 0 2.2129 C0 0.9717 0.697 0 1.972 0 C2.849 0 3.49 0.54 3.683 1.3916 L3.064 1.3916 Z" transform="translate(161.116, 45.0742)"/>
  <path style="fill:#000000; fill-rule:nonzero;stroke:none;" d="M0 4.2461 L0 0 L0.611 0 L0.611 4.2461 L0 4.2461 Z" transform="translate(166.44, 45.164)"/>
  <path style="fill:#000000; fill-rule:nonzero;stroke:none;" d="M0 4.2461 L0 0 L2.873 0 L2.873 0.5401 L0.611 0.5401 L0.611 1.7813 L2.015 1.7813 L2.015 2.3213 L0.611 2.3213 L0.611 3.7071 L2.937 3.7071 L2.937 4.2461 L0 4.2461 Z" transform="translate(168.868, 45.164)"/>
  <path style="fill:#000000; fill-rule:nonzero;stroke:none;" d="M2.596 4.2461 L0.599 0.7569 L0.599 4.2461 L0 4.2461 L0 0 L0.797 0 L2.769 3.4375 L2.769 0 L3.369 0 L3.369 4.2461 L2.596 4.2461 Z" transform="translate(173.319, 45.164)"/>
  <path style="fill:#000000; fill-rule:nonzero;stroke:none;" d="M3.064 1.3916 C2.902 0.8467 2.406 0.54 1.961 0.54 C1.031 0.54 0.642 1.3135 0.642 2.2129 C0.642 3.1133 1.045 3.8867 1.961 3.8867 C2.519 3.8867 2.992 3.5996 3.142 2.8965 L3.754 2.8965 C3.574 3.8984 2.916 4.4258 1.972 4.4258 C0.703 4.4258 0 3.5508 0 2.2129 C0 0.9717 0.697 0 1.972 0 C2.849 0 3.49 0.54 3.683 1.3916 L3.064 1.3916 Z" transform="translate(178.325, 45.0742)"/>
  <path style="fill:#000000; fill-rule:nonzero;stroke:none;" d="M0 4.2461 L0 0 L2.873 0 L2.873 0.5401 L0.611 0.5401 L0.611 1.7813 L2.015 1.7813 L2.015 2.3213 L0.611 2.3213 L0.611 3.7071 L2.937 3.7071 L2.937 4.2461 L0 4.2461 Z" transform="translate(183.651, 45.164)"/>
  <path style="fill:#000000; fill-rule:nonzero;stroke:none;" d="M1.811 4.4141 C0.791 4.4141 0.186 3.8457 0 3.0284 L0.629 3.0284 C0.82 3.6641 1.342 3.8809 1.877 3.8809 C2.381 3.8809 2.824 3.6719 2.824 3.1905 C2.824 2.7286 2.451 2.6094 2.104 2.5489 C1.576 2.459 1.229 2.4112 0.924 2.2911 C0.533 2.1358 0.186 1.8116 0.186 1.2295 C0.186 0.4571 0.803 0 1.678 0 C2.578 0 3.149 0.5284 3.317 1.2959 L2.703 1.2959 C2.543 0.7618 2.129 0.5235 1.66 0.5235 C1.272 0.5235 0.803 0.6856 0.803 1.1758 C0.803 1.6133 1.193 1.753 1.541 1.836 C1.918 1.9258 2.213 1.9317 2.639 2.0577 C3.059 2.1836 3.459 2.4834 3.459 3.1319 C3.459 3.8809 2.854 4.4141 1.811 4.4141 Z" transform="translate(187.848, 45.08)"/>
 </g>
</svg>